<?xml version="1.0" standalone="no"?>
<!DOCTYPE svg PUBLIC "-//W3C//DTD SVG 1.1//EN" "http://www.w3.org/Graphics/SVG/1.1/DTD/svg11.dtd" >
<svg>
<metadata>
Created by FontForge 20090914 at Thu Nov 17 07:50:38 2016
 By www-data
Copyright (c) 2001, Modular Infotech, Pune, INDIA. - Licenced to Microsoft
</metadata>
<defs>
<font id="Utsaah" horiz-adv-x="816" >
  <font-face 
    font-family="Utsaah"
    font-weight="400"
    font-stretch="normal"
    units-per-em="2048"
    panose-1="2 11 6 4 2 2 2 2 2 4"
    ascent="1638"
    descent="-410"
    x-height="759.999"
    cap-height="1050"
    bbox="-870 -774.001 1906 1500"
    underline-thickness="102"
    underline-position="-117"
    unicode-range="U+0020-U+25CC"
  />
<missing-glyph horiz-adv-x="1600" 
d="M200 1400h1200v-1400h-1200v1400zM1300 100v1200h-1000v-1200h1000z" />
    <glyph glyph-name=".notdef" horiz-adv-x="1600" 
d="M200 1400h1200v-1400h-1200v1400zM1300 100v1200h-1000v-1200h1000z" />
    <glyph glyph-name="space" unicode=" " horiz-adv-x="407" 
 />
    <glyph glyph-name="exclam" unicode="!" horiz-adv-x="407" 
d="M165 261l-39 556v233h160v-233l-38 -556h-83zM132 0v147h148v-147h-148z" />
    <glyph glyph-name="quotedbl" unicode="&#x22;" horiz-adv-x="521" 
d="M103 678l-36 200v172h147v-172l-32 -200h-79zM340 678l-35 200v172h147v-172l-35 -200h-77z" />
    <glyph glyph-name="numbersign" unicode="#" 
d="M74 -18l62 305h-121v107h143l53 260h-196v106h217l62 308h108l-63 -308h226l62 308h108l-62 -308h124v-106h-145l-54 -260h199v-107h-221l-62 -305h-107l61 305h-225l-62 -305h-107zM265 394h225l53 260h-225z" />
    <glyph glyph-name="dollar" unicode="$" 
d="M365 -151v129c-64 8 -116.333 22.333 -157 43s-75.667 54.167 -105 100.5s-46.333 102.833 -51 169.5l130 25c10 -69.333 27.667 -120.333 53 -153c36 -45.333 79.333 -70.666 130 -75.999v410c-52.667 10 -106.667 30.333 -162 61
c-41.333 23.333 -73.166 55.333 -95.499 96s-33.5 86.667 -33.5 138c0 91.333 32.667 165.666 98 222.999c43.333 38 107.666 61.333 192.999 70v61h76v-61c74.667 -7.33301 134 -29.333 178 -66c56.667 -46.667 90.667 -111 102 -193l-133 -20
c-8 50.667 -24 89.5 -48 116.5s-57 44.833 -99 53.5v-372c64.667 -16 107.667 -28.667 129 -38c40 -17.333 72.667 -38.666 98 -63.999s44.833 -55.5 58.5 -90.5s20.5 -72.5 20.5 -112.5c0 -89.333 -28.5 -163.833 -85.5 -223.5s-130.5 -91.834 -220.5 -96.501v-130h-76z
M365 977c-50 -7.33301 -89.501 -27.167 -118.501 -59.5s-43.5 -70.833 -43.5 -115.5c0 -44 12.333 -80.833 37 -110.5s66.334 -53.167 125.001 -70.5v356zM440.999 86.999c50 6 91.333 27.667 124 65s49 83.333 49 138c0 46.667 -11.5 84.167 -34.5 112.5
s-69.167 53.833 -138.5 76.5v-392z" />
    <glyph glyph-name="percent" unicode="%" horiz-adv-x="1304" 
d="M85 798c0 74.667 18.832 138.333 56.499 191s92.5 79 164.5 79c66 0 120.5 -23.5 163.5 -70.5s64.5 -116.167 64.5 -207.5c0 -88.667 -21.833 -157 -65.5 -205s-97.5 -72 -161.5 -72c-63.333 0 -116.166 23.5 -158.499 70.5s-63.5 118.5 -63.5 214.5zM308.999 978.999
c-32 0 -58.499 -13.833 -79.499 -41.5s-31.5 -78.5 -31.5 -152.5c0 -67.333 10.667 -114.833 32 -142.5s47.666 -41.5 78.999 -41.5c32.667 0 59.667 13.833 81 41.5s32 78.5 32 152.5c0 67.333 -10.833 114.833 -32.5 142.5s-48.5 41.5 -80.5 41.5zM310 -39.001l574 1107
h105l-572 -1107h-107zM764 245.999c0 75.333 18.833 139.166 56.5 191.499s92.5 78.5 164.5 78.5c66 0 120.667 -23.5 164 -70.5s65 -116.167 65 -207.5c0 -88.667 -21.833 -157 -65.5 -205s-97.834 -72 -162.501 -72c-63.333 0 -116.166 23.833 -158.499 71.5
s-63.5 118.834 -63.5 213.501zM989 426.999c-32.667 0 -59.667 -13.832 -81 -41.499s-32 -78.5 -32 -152.5c0 -66.667 10.833 -113.834 32.5 -141.501s48.167 -41.5 79.5 -41.5c32.667 0 59.667 13.833 81 41.5s32 78.167 32 151.5c0 68 -10.667 115.667 -32 143
s-48 41 -80 41z" />
    <glyph glyph-name="ampersand" unicode="&#x26;" horiz-adv-x="978" 
d="M697 124c-42.667 -47.333 -89.002 -82.833 -139.002 -106.5s-104.333 -35.5 -163 -35.5c-107.333 0 -192.333 36.333 -255 109c-51.333 59.333 -77 125.333 -77 198c0 65.333 20.833 124 62.5 176s104.167 98 187.5 138c-47.333 54 -78.833 98 -94.5 132
s-23.5 66.667 -23.5 98c0 63.333 24.667 118.333 74 165s111.333 70 186 70c72 0 130.833 -22 176.5 -66s68.5 -97 68.5 -159c0 -99.333 -66.333 -184.333 -199 -255l189 -240c21.333 42 38 90.667 50 146l134 -29c-23.333 -91.333 -54.666 -166.666 -93.999 -225.999
c48.667 -64 103.334 -117.667 164.001 -161l-86 -102c-52 33.333 -105.667 82.666 -161 147.999zM434.998 671c55.333 32.667 91.333 61.502 108 86.502s25 52.5 25 82.5c0 36 -11.333 65.333 -34 88s-51 34 -85 34c-34.667 0 -63.667 -11.333 -87 -34s-35 -50 -35 -82
c0 -16.667 4.16699 -33.834 12.5 -51.501s20.833 -36.834 37.5 -57.501zM615.998 226.002l-237.001 292.002c-69.333 -41.333 -116.166 -79.833 -140.499 -115.5s-36.5 -70.834 -36.5 -105.501c0 -42.667 17 -86.834 51 -132.501s82 -68.5 144 -68.5
c38.667 0 78.667 12 120 36s74.333 55.333 99 94z" />
    <glyph glyph-name="quotesingle" unicode="'" horiz-adv-x="280" 
d="M97 678l-33 196v176h147v-176l-34 -196h-80z" />
    <glyph glyph-name="parenleft" unicode="(" horiz-adv-x="488" 
d="M343 -309c-71.333 90 -131.5 195.166 -180.5 315.499s-73.5 244.833 -73.5 373.5c0 114 18.333 223 55 327c42.667 120.667 109 241 199 361h92c-57.333 -99.333 -95.333 -170.333 -114 -213c-29.333 -66 -52.333 -134.667 -69 -206
c-20.667 -89.333 -31 -179.333 -31 -270c0 -229.333 71.333 -458.666 214 -687.999h-92z" />
    <glyph glyph-name="parenright" unicode=")" horiz-adv-x="488" 
d="M181 -309h-92c142.667 229.333 214 458.666 214 687.999c0 90 -10.333 179.333 -31 268c-16 71.333 -38.667 140 -68 206c-18.667 42.667 -57 114.334 -115 215.001h92c90 -120 156.333 -240.333 199 -361c36.667 -104 55 -213 55 -327
c0 -128.667 -24.667 -253.167 -74 -373.5s-109.333 -225.5 -180 -315.5z" />
    <glyph glyph-name="asterisk" unicode="*" horiz-adv-x="571" 
d="M46 857l33.001 101.998c76 -26.667 131 -50 165 -70c-8.66699 86.667 -13.334 146.334 -14.001 179.001h104c-1.33301 -47.333 -7 -106.666 -17 -177.999c49.333 24.667 105.666 47.667 168.999 69l33 -102c-60.667 -20 -120 -33.333 -178 -40
c28.667 -25.333 69.667 -70.333 123 -135l-86 -61c-27.333 37.333 -60 88.666 -98 153.999c-35.333 -67.333 -66.333 -118.666 -93 -153.999l-85 61c55.333 68 95 113 119 135c-61.333 12 -119.666 25.333 -174.999 40z" />
    <glyph glyph-name="plus" unicode="+" horiz-adv-x="856" 
d="M367 170v288h-285v120h285v285h122v-285h286v-120h-286v-288h-122z" />
    <glyph glyph-name="comma" unicode="," horiz-adv-x="407" 
d="M130 0v147.001h147v-147c0 -54 -9.5 -97.5 -28.5 -130.5s-49.167 -58.833 -90.5 -77.5l-36 55c27.333 12 47.333 29.667 60 53s19.667 56.666 21 99.999h-73z" />
    <glyph glyph-name="hyphen" unicode="-" horiz-adv-x="488" 
d="M47 315v130h395v-130h-395z" />
    <glyph glyph-name="period" unicode="." horiz-adv-x="407" 
d="M133 0v147h147v-147h-147z" />
    <glyph glyph-name="slash" unicode="/" horiz-adv-x="407" 
d="M0 -18l304 1086h103l-303 -1086h-104z" />
    <glyph glyph-name="zero" unicode="0" 
d="M61 518c0 124 12.6641 223.835 37.9971 299.502s63.333 134 114 175s114 61.5 190 61.5c56.667 0 106.167 -11.333 148.5 -34s77.333 -55.334 105 -98.001s49.334 -94.667 65.001 -156s23.5 -144 23.5 -248c0 -123.333 -12.667 -222.833 -38 -298.5
s-63.166 -134.167 -113.499 -175.5s-113.833 -62 -190.5 -62c-101.333 0 -180.666 36.333 -237.999 109c-69.333 87.333 -104 229.666 -104 426.999zM192.997 518.002c0 -172.667 20.168 -287.501 60.501 -344.501s90.166 -85.5 149.499 -85.5s109.166 28.667 149.499 86
s60.5 172 60.5 344c0 172.667 -20.167 287.334 -60.5 344.001s-90.5 85 -150.5 85c-59.333 0 -106.666 -25 -141.999 -75c-44.667 -64 -67 -182 -67 -354z" />
    <glyph glyph-name="one" unicode="1" 
d="M546 0l-129 0.00195312v821c-30.667 -29.333 -71.167 -58.833 -121.5 -88.5s-95.5 -51.834 -135.5 -66.501v124c72 34 135 75.167 189 123.5s92 95.166 114 140.499h83v-1054z" />
    <glyph glyph-name="two" unicode="2" 
d="M738 124v-124.001h-694c0 31.333 5 61.333 15 90c18 46.667 46.5 93 85.5 139s95.167 99 168.5 159c114 93.333 191 167.333 231 222s60 106.334 60 155.001c0 51.333 -18.167 94.5 -54.5 129.5s-83.833 52.5 -142.5 52.5c-62 0 -111.667 -18.5 -149 -55.5
s-56.333 -88.5 -57 -154.5l-132 13c8.66699 99.333 42.667 174.833 102 226.5s139 77.5 239 77.5c100.667 0 180.334 -28 239.001 -84s88 -125 88 -207c0 -42 -8.66699 -83.333 -26 -124s-45.833 -83.5 -85.5 -128.5s-105.834 -106.5 -198.501 -184.5
c-77.333 -65.333 -127 -109.5 -149 -132.5s-40.333 -46.167 -55 -69.5h515z" />
    <glyph glyph-name="three" unicode="3" 
d="M62 277l128.002 17c15.333 -72.667 40.666 -125.167 75.999 -157.5s78.666 -48.5 129.999 -48.5c60.667 0 111.834 21 153.501 63s62.5 94 62.5 156c0 59.333 -19.333 108.166 -58 146.499s-87.667 57.5 -147 57.5c-24.667 0 -55 -4.66699 -91 -14l14 113
c8.66699 -0.666992 15.667 -1 21 -1c54.667 0 104 14.333 148 43s66 72.667 66 132c0 47.333 -16 86.5 -48 117.5s-73.333 46.5 -124 46.5c-50 0 -91.667 -15.833 -125 -47.5s-55 -78.834 -65 -141.501l-129 23c16 86 52 152.833 108 200.5s125.333 71.5 208 71.5
c57.333 0 110.166 -12.333 158.499 -37s85.166 -58.167 110.499 -100.5s38 -87.5 38 -135.5c0 -45.333 -12.167 -86.666 -36.5 -123.999s-60.166 -66.666 -107.499 -87.999c62 -14.667 110.167 -44.5 144.5 -89.5s51.5 -101.5 51.5 -169.5c0 -91.333 -33.5 -169 -100.5 -233
s-151.5 -96 -253.5 -96c-92 0 -168.5 27.5 -229.5 82.5s-95.5 126.167 -103.5 213.5z" />
    <glyph glyph-name="four" unicode="4" 
d="M474 0v251h-455v118l479 681h105v-681h142v-118h-142v-251h-129zM474 369v474l-329 -474h329z" />
    <glyph glyph-name="five" unicode="5" 
d="M61 275l135 11c10 -65.333 33.333 -114.666 70 -147.999s80.667 -50 132 -50c62 0 114.5 23.333 157.5 70s64.5 108.667 64.5 186c0 74 -20.667 132.167 -62 174.5s-95.333 63.5 -162 63.5c-41.333 0 -78.833 -9.33301 -112.5 -28s-59.834 -43.334 -78.501 -74.001
l-121 16l101 539h522v-123h-418l-57 -282c62.667 44 128.667 66 198 66c92 0 169.5 -31.833 232.5 -95.5s94.5 -145.167 94.5 -244.5c0 -95.333 -27.667 -177.333 -83 -246c-67.333 -85.333 -159.333 -128 -276 -128c-95.333 0 -173.166 26.667 -233.499 80
s-94.833 124.333 -103.5 213z" />
    <glyph glyph-name="six" unicode="6" 
d="M730 793l-129.002 -10.002c-11.333 50 -27.333 86.667 -48 110c-35.333 36.667 -78.333 55 -129 55c-41.333 0 -77.333 -11.333 -108 -34c-40.667 -30 -72.667 -73.333 -96 -130s-35.666 -137.667 -36.999 -243c31.333 47.333 69.333 82.5 114 105.5
s91.667 34.5 141 34.5c86 0 159.167 -31.667 219.5 -95s90.5 -145 90.5 -245c0 -66 -14.167 -127.333 -42.5 -184s-67.333 -100 -117 -130s-105.834 -45 -168.501 -45c-108 0 -195.833 39.5 -263.5 118.5s-101.5 209.167 -101.5 390.5c0 202.667 37.667 350.334 113 443.001
c65.333 80 153.333 120 264 120c82.667 0 150.334 -23.167 203.001 -69.5s84.334 -110.166 95.001 -191.499zM202.998 339.998c0 -44 9.50098 -86.334 28.501 -127.001s45.5 -71.667 79.5 -93s69.333 -32 106 -32c54.667 0 101.5 22 140.5 66s58.5 103.667 58.5 179
c0 72.667 -19.333 129.834 -58 171.501s-87.334 62.5 -146.001 62.5c-58 0 -107.333 -20.833 -148 -62.5s-61 -96.5 -61 -164.5z" />
    <glyph glyph-name="seven" unicode="7" 
d="M69 912l0.000976562 124h680v-100c-66.667 -71.333 -132.834 -166 -198.501 -284s-116.5 -239 -152.5 -363c-26 -88 -42.333 -184.333 -49 -289h-133c1.33301 82.667 17.5 182.5 48.5 299.5s75.5 229.667 133.5 338s120 199.833 186 274.5h-515z" />
    <glyph glyph-name="eight" unicode="8" 
d="M259 569c-53.333 20 -92.834 48 -118.501 84s-38.5 79.333 -38.5 130c0 76.667 27.333 141 82 193s127.667 78 219 78c92 0 165.833 -26.667 221.5 -80s83.5 -118 83.5 -194c0 -48.667 -12.667 -91 -38 -127s-64.333 -64 -117 -84
c64.667 -20.667 113.834 -54.5 147.501 -101.5s50.5 -102.833 50.5 -167.5c0 -90 -31.667 -165.5 -95 -226.5s-147 -91.5 -251 -91.5c-103.333 0 -186.833 30.667 -250.5 92s-95.5 138 -95.5 230c0 68 17.333 125 52 171s84 77.333 148 94zM232.999 788
c0 -50 16.001 -90.666 48.001 -121.999s73.667 -47 125 -47c49.333 0 90 15.5 122 46.5s48 69.167 48 114.5c0 47.333 -16.333 87.166 -49 119.499s-73.334 48.5 -122.001 48.5c-49.333 0 -90.333 -15.833 -123 -47.5s-49 -69.167 -49 -112.5zM192 303.001
c0 -36.667 8.66895 -72.167 26.002 -106.5s43.166 -61 77.499 -80s71.5 -28.5 111.5 -28.5c61.333 0 112 19.833 152 59.5s60 90.167 60 151.5c0 62 -20.667 113.167 -62 153.5s-93 60.5 -155 60.5c-60.667 0 -110.834 -20 -150.501 -60s-59.5 -90 -59.5 -150z" />
    <glyph glyph-name="nine" unicode="9" 
d="M80 243l123.998 10.998c10.667 -58 30.834 -100.167 60.501 -126.5s67.5 -39.5 113.5 -39.5c39.333 0 74 9 104 27s54.5 42.167 73.5 72.5s35 71.333 48 123s19.5 104.167 19.5 157.5c0 6 -0.333008 14.667 -1 26c-25.333 -41.333 -60.333 -74.666 -105 -99.999
s-93 -38 -145 -38c-87.333 0 -161 31.5 -221 94.5s-90 146.167 -90 249.5c0 106 31.333 191.5 94 256.5s141.334 97.5 236.001 97.5c68 0 130.333 -18.333 187 -55s99.667 -89 129 -157s44 -166.667 44 -296c0 -134 -14.5 -240.667 -43.5 -320s-72.333 -139.833 -130 -181.5
s-125.167 -62.5 -202.5 -62.5c-82 0 -149 22.833 -201 68.5s-83.333 109.834 -94 192.501zM607.998 705.998c0 74 -19.667 132.669 -59 176.002s-86.666 65 -141.999 65c-57.333 0 -107.333 -23.333 -150 -70s-64 -107.334 -64 -182.001
c0 -66.667 20.167 -120.834 60.5 -162.501s90.166 -62.5 149.499 -62.5c60 0 109.167 20.833 147.5 62.5s57.5 99.5 57.5 173.5z" />
    <glyph glyph-name="colon" unicode=":" horiz-adv-x="407" 
d="M132 614v146h147v-146h-147zM132 0v147h147v-147h-147z" />
    <glyph glyph-name="semicolon" unicode=";" horiz-adv-x="407" 
d="M130 614v146h147v-146h-147zM130 0v147.001h147v-147c0 -54 -9.5 -97.5 -28.5 -130.5s-49.167 -58.833 -90.5 -77.5l-36 55c27.333 12 47.333 29.667 60 53s19.667 56.666 21 99.999h-73z" />
    <glyph glyph-name="less" unicode="&#x3c;" horiz-adv-x="856" 
d="M80 459v120l695 294v-128l-551 -227l551 -228v-128z" />
    <glyph glyph-name="equal" unicode="=" horiz-adv-x="856" 
d="M775 617h-693v120h693v-120zM775 299h-693v120h693v-120z" />
    <glyph glyph-name="greater" unicode="&#x3e;" horiz-adv-x="856" 
d="M775 459l-695 -297v128l551 228l-551 227v128l695 -294v-120z" />
    <glyph glyph-name="question" unicode="?" 
d="M338 258c-0.666992 17.333 -1.00098 30.3359 -1.00098 39.0029c0 50.667 7.33301 94.334 22 131.001c10 28 27 56 51 84c16.667 20.667 47.334 50.667 92.001 90s73.667 70.666 87 93.999s20 49 20 77c0 50 -19.5 94 -58.5 132s-86.833 57 -143.5 57
c-55.333 0 -101.333 -17.333 -138 -52s-60.667 -88.334 -72 -161.001l-133 16c12 97.333 47.5 172.166 106.5 224.499s137.167 78.5 234.5 78.5c102 0 183.667 -28 245 -84s92 -123.667 92 -203c0 -46 -10.833 -88.333 -32.5 -127s-63.5 -85.667 -125.5 -141
c-42 -36.667 -69.5 -63.834 -82.5 -81.501s-22.667 -38 -29 -61s-9.83301 -60.5 -10.5 -112.5h-124zM329.999 0.00292969v147h147v-147h-147z" />
    <glyph glyph-name="at" unicode="@" horiz-adv-x="1489" 
d="M831 117c-30.667 -36 -65.334 -64.8291 -104.001 -86.4961s-77.334 -32.5 -116.001 -32.5c-42 0 -83.167 12.333 -123.5 37s-73 62.834 -98 114.501s-37.5 108.167 -37.5 169.5c0 76 19.5 152.167 58.5 228.5s87.333 133.5 145 171.5s113.834 57 168.501 57
c41.333 0 80.833 -10.833 118.5 -32.5s70.167 -54.834 97.5 -99.501l24 111h129l-103 -480c-14.667 -66.667 -22 -103.667 -22 -111c0 -12.667 4.83301 -23.667 14.5 -33s21.5 -14 35.5 -14c25.333 0 58.666 14.333 99.999 43c54 38.667 97 90 129 154s48 130.333 48 199
c0 79.333 -20.5 153.666 -61.5 222.999s-102 124.666 -183 165.999s-170.167 62 -267.5 62c-112 0 -214.167 -26 -306.5 -78s-164 -126.833 -215 -224.5s-76.5 -202.5 -76.5 -314.5c0 -116.667 25.5 -217.334 76.5 -302.001s124.667 -147.167 221 -187.5
s202.833 -60.5 319.5 -60.5c125.333 0 230.166 21 314.499 63s147.5 93.333 189.5 154h130c-24.667 -50.667 -66.667 -102 -126 -154s-129.666 -93.167 -210.999 -123.5s-179.666 -45.5 -294.999 -45.5c-106 0 -203.667 13.667 -293 41s-165.5 68.333 -228.5 123
s-110.5 117.667 -142.5 189c-40.667 90 -61 187.333 -61 292c0 116.667 24 227.667 72 333c58 129.333 140.667 228.333 248 297s237.333 103 390 103c118.667 0 225 -24.167 319 -72.5s168.333 -120.5 223 -216.5c46 -82.667 69 -172.334 69 -269.001
c0 -138.667 -48.667 -261.667 -146 -369c-86.667 -96.667 -181.667 -145 -285 -145c-32.667 0 -59.167 5 -79.5 15s-35.166 24.333 -44.499 43c-6 12 -10.667 32.667 -14 62zM485 311.004c0 -65.333 15.499 -116.171 46.499 -152.504s66.5 -54.5 106.5 -54.5
c26.667 0 54.834 8 84.501 24s58 39.667 85 71s49 71.333 66 120s25.5 97.334 25.5 146.001c0 64.667 -16 114.834 -48 150.501s-71.333 53.5 -118 53.5c-30.667 0 -59.5 -7.66699 -86.5 -23s-53 -40.166 -78 -74.499s-45.167 -76.166 -60.5 -125.499s-23 -94.333 -23 -135z
" />
    <glyph glyph-name="A" unicode="A" horiz-adv-x="978" 
d="M-2 0l403 1050h150l429 -1050h-158l-122 318h-439l-116 -318h-147zM301 431h356l-110 291c-33.333 88 -58 160.333 -74 217c-13.333 -67.333 -32.333 -134 -57 -200z" />
    <glyph glyph-name="B" unicode="B" horiz-adv-x="978" 
d="M107 0v1050h394c80 0 144.333 -10.667 193 -32s86.667 -54.166 114 -98.499s41 -90.5 41 -138.5c0 -44.667 -12.167 -86.834 -36.5 -126.501s-61.166 -71.834 -110.499 -96.501c64 -18 113 -49.5 147 -94.5s51 -98.167 51 -159.5c0 -48.667 -10.333 -94.167 -31 -136.5
s-46.334 -75 -77.001 -98s-69 -40.333 -115 -52s-102.333 -17.5 -169 -17.5h-401zM246 609.001h227c62 0 106.333 4 133 12c35.333 10.667 61.833 28.167 79.5 52.5s26.5 54.833 26.5 91.5c0 34.667 -8.33301 65.167 -25 91.5s-40.5 44.5 -71.5 54.5s-84.167 15 -159.5 15
h-210v-317zM246 124.001l262 0.000976562c44.667 0 76 1.66699 94 5c32 5.33301 58.833 14.833 80.5 28.5s39.334 33.167 53.001 58.5s20.5 54.666 20.5 87.999c0 39.333 -10 73.5 -30 102.5s-47.833 49.333 -83.5 61s-86.834 17.5 -153.501 17.5h-243v-361z" />
    <glyph glyph-name="C" unicode="C" horiz-adv-x="1059" 
d="M862 368l138.999 -34.9971c-29.333 -114 -81.833 -201 -157.5 -261s-168.167 -90 -277.5 -90c-112.667 0 -204.5 23 -275.5 69s-125 112.667 -162 200s-55.5 181.333 -55.5 282c0 109.333 20.833 204.666 62.5 285.999s101.167 143.166 178.5 185.499
s162.333 63.5 255 63.5c104.667 0 192.834 -26.833 264.501 -80.5s121.5 -128.834 149.5 -225.501l-137 -32c-24 76 -59.167 131.5 -105.5 166.5s-104.5 52.5 -174.5 52.5c-80.667 0 -148.167 -19.333 -202.5 -58s-92.5 -90.667 -114.5 -156s-33 -132.666 -33 -201.999
c0 -88.667 13 -166.334 39 -233.001s66.5 -116.5 121.5 -149.5s114.5 -49.5 178.5 -49.5c78 0 143.833 22.5 197.5 67.5s90.167 111.5 109.5 199.5z" />
    <glyph glyph-name="D" unicode="D" horiz-adv-x="1059" 
d="M113 0l0.00195312 1050h362c81.333 0 143.666 -5 186.999 -15c60 -14 111.333 -39.333 154 -76c55.333 -46.667 96.666 -106.334 123.999 -179.001s41 -155.667 41 -249c0 -80 -9.33301 -150.833 -28 -212.5s-42.5 -112.667 -71.5 -153s-60.833 -72 -95.5 -95
s-76.5 -40.5 -125.5 -52.5s-105.167 -18 -168.5 -18h-379zM252.002 124.001l224.003 -0.000976562c69.333 0 123.666 6.5 162.999 19.5s70.666 31.167 93.999 54.5c33.333 32.667 59.166 76.834 77.499 132.501s27.5 123.167 27.5 202.5c0 109.333 -18 193.5 -54 252.5
s-80 98.5 -132 118.5c-37.333 14.667 -97 22 -179 22h-221v-802z" />
    <glyph glyph-name="E" unicode="E" horiz-adv-x="978" 
d="M116 0v1050h759v-124h-620v-322h581v-123h-581v-357h644v-124h-783z" />
    <glyph glyph-name="F" unicode="F" horiz-adv-x="896" 
d="M120 0v1050h708v-124h-569v-325h493v-124h-493v-477h-139z" />
    <glyph glyph-name="G" unicode="G" horiz-adv-x="1141" 
d="M604 412l-0.00195312 123.002l445 1v-390c-68 -54.667 -138.333 -95.667 -211 -123s-147.334 -41 -224.001 -41c-102.667 0 -196.167 22.167 -280.5 66.5s-148 108.166 -191 191.499s-64.5 176.666 -64.5 279.999c0 102 21.333 197.333 64 286s104.167 154.5 184.5 197.5
s172.833 64.5 277.5 64.5c75.333 0 143.666 -12.333 204.999 -37s109.5 -59 144.5 -103s61.5 -101.333 79.5 -172l-125 -34c-16 53.333 -35.667 95.333 -59 126s-56.666 55.167 -99.999 73.5s-91.666 27.5 -144.999 27.5c-63.333 0 -118.166 -9.66699 -164.499 -29
s-83.666 -44.833 -111.999 -76.5s-50.5 -66.167 -66.5 -103.5c-26.667 -65.333 -40 -136 -40 -212c0 -93.333 16.167 -171.5 48.5 -234.5s79.333 -109.833 141 -140.5s126.834 -46 195.501 -46c60.667 0 119.667 11.667 177 35s100.666 48 129.999 74v196h-309z" />
    <glyph glyph-name="H" unicode="H" horiz-adv-x="1059" 
d="M117 0v1050h139v-431h546v431h139v-1050h-139v495h-546v-495h-139z" />
    <glyph glyph-name="I" unicode="I" horiz-adv-x="407" 
d="M137 0v1050h139v-1050h-139z" />
    <glyph glyph-name="J" unicode="J" horiz-adv-x="733" 
d="M42 298l126.001 16.998c3.33301 -80 18.333 -134.833 45 -164.5s63.667 -44.5 111 -44.5c34.667 0 64.667 8 90 24s42.666 37.667 51.999 65s14 71 14 131v724h139v-716c0 -87.333 -10.5 -155.166 -31.5 -203.499s-54.667 -85.166 -101 -110.499s-100.5 -38 -162.5 -38
c-92 0 -162 26.5 -210 79.5s-72 131.833 -72 236.5z" />
    <glyph glyph-name="K" unicode="K" horiz-adv-x="978" 
d="M107 0v1050h139v-521l522 521h188l-440 -426l459 -624h-183l-374 531l-172 -167v-364h-139z" />
    <glyph glyph-name="L" unicode="L" 
d="M107 0v1050h139v-926h517v-124h-656z" />
    <glyph glyph-name="M" unicode="M" horiz-adv-x="1221" 
d="M109 0v1050h209l248 -744c23.333 -68.667 40 -120.334 50 -155.001c12 38 30.667 94 56 168l252 731h187v-1050h-134v879l-305 -879h-126l-303 894v-894h-134z" />
    <glyph glyph-name="N" unicode="N" horiz-adv-x="1059" 
d="M112 0v1050h142l552 -824v824h133v-1050h-143l-551 825v-825h-133z" />
    <glyph glyph-name="O" unicode="O" horiz-adv-x="1141" 
d="M71 511c0 174.667 46.832 311.166 140.499 409.499s214.5 147.5 362.5 147.5c96.667 0 183.834 -23.167 261.501 -69.5s137 -110.833 178 -193.5s61.5 -176.667 61.5 -282c0 -106 -21.5 -201 -64.5 -285s-103.833 -147.667 -182.5 -191s-163.667 -65 -255 -65
c-98.667 0 -187 23.833 -265 71.5s-137 112.834 -177 195.501s-60 170 -60 262zM213.999 508.999c0 -126.667 33.999 -226.332 101.999 -298.999s153.333 -109 256 -109c104.667 0 190.834 36.667 258.501 110s101.5 177.666 101.5 312.999
c0 85.333 -14.5 159.833 -43.5 223.5s-71.333 113.167 -127 148.5s-118.167 53 -187.5 53c-98 0 -182.5 -33.833 -253.5 -101.5s-106.5 -180.5 -106.5 -338.5z" />
    <glyph glyph-name="P" unicode="P" horiz-adv-x="978" 
d="M113 0l0.000976562 1050h396c70 0 123.333 -3.33301 160 -10c51.333 -8.66699 94.5 -25.167 129.5 -49.5s63 -58.166 84 -101.499s31.5 -91 31.5 -143c0 -89.333 -28.333 -164.833 -85 -226.5s-159.334 -92.5 -308.001 -92.5h-269v-427h-139zM252.001 550.999h271
c90 0 153.833 16.667 191.5 50s56.5 80.333 56.5 141c0 44 -11 81.5 -33 112.5s-51.333 51.5 -88 61.5c-23.333 6.66699 -66.333 10 -129 10h-269v-375z" />
    <glyph glyph-name="Q" unicode="Q" horiz-adv-x="1141" 
d="M909 112c64 -44 123.331 -76.333 177.998 -97l-41 -97c-75.333 27.333 -150.333 70.333 -225 129c-78 -43.333 -164 -65 -258 -65c-95.333 0 -181.666 23 -258.999 69s-136.833 110.5 -178.5 193.5s-62.5 176.5 -62.5 280.5c0 103.333 21 197.5 63 282.5
s101.833 149.667 179.5 194s164.5 66.5 260.5 66.5c96.667 0 183.834 -23 261.501 -69s137 -110.333 178 -193s61.5 -176 61.5 -280c0 -86.667 -13.167 -164.5 -39.5 -233.5s-65.833 -129.167 -118.5 -180.5zM602.998 290c80 -22.667 145.998 -55.999 197.998 -99.999
c82 74 123 186 123 336c0 84.667 -14.5 158.667 -43.5 222s-71.333 112.666 -127 147.999s-118.167 53 -187.5 53c-103.333 0 -189.166 -35.5 -257.499 -106.5s-102.5 -176.833 -102.5 -317.5c0 -136.667 33.833 -241.5 101.5 -314.5s153.834 -109.5 258.501 -109.5
c50 0 97 9.33301 141 28c-43.333 28 -89.333 48 -138 60z" />
    <glyph glyph-name="R" unicode="R" horiz-adv-x="1059" 
d="M115 0l-0.00195312 1050h466c93.333 0 164.333 -9.5 213 -28.5s87.5 -52.333 116.5 -100s43.5 -100.5 43.5 -158.5c0 -74 -24 -136.667 -72 -188s-122.333 -83.666 -223 -96.999c36.667 -18 64.334 -35.667 83.001 -53c40.667 -37.333 79.334 -83.666 116.001 -138.999
l182 -286h-174l-139 218c-40.667 63.333 -74.167 111.666 -100.5 144.999s-49.833 56.666 -70.5 69.999s-41.667 22.666 -63 27.999c-16 3.33301 -42 5 -78 5h-161v-466h-139zM253.998 586.001h298.999c63.333 0 112.833 6.66699 148.5 20s62.834 34.333 81.501 63
s28 60 28 94c0 50 -18 91 -54 123s-93 48 -171 48h-332v-348z" />
    <glyph glyph-name="S" unicode="S" horiz-adv-x="978" 
d="M66 337l130.994 12.001c6 -52.667 20.333 -95.834 43 -129.501s57.834 -60.834 105.501 -81.501s101.5 -31 161.5 -31c52.667 0 99.334 7.83301 140.001 23.5s71 37.167 91 64.5s30 57.333 30 90s-9.66699 61.334 -29 86.001s-51 45.334 -95 62.001
c-28 11.333 -90.167 28.5 -186.5 51.5s-163.833 44.833 -202.5 65.5c-50 26 -87.333 58.5 -112 97.5s-37 82.5 -37 130.5c0 53.333 15 103 45 149s73.833 81 131.5 105s121.834 36 192.501 36c78 0 146.667 -12.667 206 -38s105 -62.333 137 -111s49.333 -103.667 52 -165
l-133 -10c-7.33301 66 -31.666 116 -72.999 150s-102.333 51 -183 51c-84 0 -145.167 -15.333 -183.5 -46s-57.5 -67.667 -57.5 -111c0 -38 13.667 -69 41 -93c26.667 -24.667 96.334 -49.834 209.001 -75.501s190 -47.834 232 -66.501c61.333 -28 106.5 -63.667 135.5 -107
s43.5 -93.333 43.5 -150c0 -55.333 -15.833 -107.833 -47.5 -157.5s-77.5 -88.167 -137.5 -115.5s-127.667 -41 -203 -41c-94.667 0 -174.167 13.833 -238.5 41.5s-114.666 69.334 -150.999 125.001s-55.5 118.5 -57.5 188.5z" />
    <glyph glyph-name="T" unicode="T" horiz-adv-x="896" 
d="M380 0v926h-346v124h832v-124h-347v-926h-139z" />
    <glyph glyph-name="U" unicode="U" horiz-adv-x="1059" 
d="M802 1050h139.003v-607c0 -105.333 -12 -189 -36 -251s-67.167 -112.5 -129.5 -151.5s-143.833 -58.5 -244.5 -58.5c-98.667 0 -179.334 17 -242.001 51s-107.334 83 -134.001 147s-40 151.667 -40 263v607h139v-606c0 -91.333 8.5 -158.5 25.5 -201.5
s46.167 -76.333 87.5 -100s91.666 -35.5 150.999 -35.5c102.667 0 175.667 23.167 219 69.5s65 135.5 65 267.5v606z" />
    <glyph glyph-name="V" unicode="V" horiz-adv-x="978" 
d="M413 0l-407 1050h151l273 -763c22 -61.333 40.333 -118.666 55 -171.999c16 57.333 34.667 114.666 56 171.999l284 763h142l-411 -1050h-143z" />
    <glyph glyph-name="W" unicode="W" horiz-adv-x="1384" 
d="M296 0l-278 1050h142l160 -688c17.333 -72.667 32 -144.334 44 -215.001c27.333 112 43.333 176.667 48 194l199 709h168l150 -532c38 -131.333 65.333 -255 82 -371c13.333 66 30.666 142 51.999 228l165 675h140l-288 -1050h-134l-221 800
c-18.667 66.667 -29.667 107.667 -33 123c-11.333 -48 -21.666 -89 -30.999 -123l-223 -800h-142z" />
    <glyph glyph-name="X" unicode="X" horiz-adv-x="978" 
d="M6 0l406 547l-358 503h166l190 -270c40 -55.333 68.333 -98 85 -128c23.333 38 51 77.667 83 119l211 279h151l-369 -495l398 -555h-172l-264 374l-46 71c-23.333 -38.667 -40 -65 -50 -79l-264 -366h-167z" />
    <glyph glyph-name="Y" unicode="Y" horiz-adv-x="978" 
d="M409 0v444.999l-405 605h169l207 -317c38 -59.333 73.667 -118.333 107 -177c31.333 54.667 69.333 116.334 114 185.001l204 309h162l-419 -605v-445h-139z" />
    <glyph glyph-name="Z" unicode="Z" horiz-adv-x="896" 
d="M29 0v129l538 672c38 48 74.333 89.667 109 125h-586v124h752v-124l-589 -728l-64 -74h670v-124h-830z" />
    <glyph glyph-name="bracketleft" unicode="[" horiz-adv-x="407" 
d="M100 -291v1341h284v-107h-156v-1128h156v-106h-284z" />
    <glyph glyph-name="backslash" unicode="\" horiz-adv-x="407" 
d="M304 -18l-304 1086h104l303 -1086h-103z" />
    <glyph glyph-name="bracketright" unicode="]" horiz-adv-x="407" 
d="M312 -291h-284v106h155v1128h-155v107h284v-1341z" />
    <glyph glyph-name="asciicircum" unicode="^" horiz-adv-x="688" 
d="M171 494h-132l252 574h104l254 -574h-129l-177 427z" />
    <glyph glyph-name="underscore" unicode="_" 
d="M-22 -291v93h854v-93h-854z" />
    <glyph glyph-name="grave" unicode="`" horiz-adv-x="488" 
d="M333 855h-104l-165 200h172z" />
    <glyph glyph-name="a" unicode="a" 
d="M593 94c-48 -40.667 -93.9951 -69.335 -137.995 -86.002s-91.333 -25 -142 -25c-83.333 0 -147.5 20.333 -192.5 61s-67.5 92.667 -67.5 156c0 37.333 8.5 71.5 25.5 102.5s39.167 55.833 66.5 74.5s58.333 32.667 93 42c25.333 6.66699 63.333 13 114 19
c104 12.667 180.667 27.667 230 45c0.666992 17.333 1 28.333 1 33c0 52.667 -12.333 89.667 -37 111c-32.667 29.333 -81.334 44 -146.001 44c-60.667 0 -105.5 -10.667 -134.5 -32s-50.5 -59 -64.5 -113l-126 17c11.333 54 30.166 97.667 56.499 131s64.333 59 114 77
s107.167 27 172.5 27s118.166 -7.66699 158.499 -23s70.166 -34.666 89.499 -57.999s32.666 -52.666 39.999 -87.999c4 -22 6 -61.667 6 -119v-171c0 -120 2.83301 -195.833 8.5 -227.5s16.5 -62.167 32.5 -91.5h-134c-13.333 26.667 -22 58 -26 94zM582.005 381.999
c-46.667 -19.333 -116.667 -35.668 -210 -49.001c-53.333 -8 -91 -16.667 -113 -26s-39 -23.166 -51 -41.499s-18 -38.833 -18 -61.5c0 -34 13.167 -62.5 39.5 -85.5s64.5 -34.5 114.5 -34.5c49.333 0 93.333 10.833 132 32.5s67 51.167 85 88.5c14 29.333 21 72.333 21 129
v48z" />
    <glyph glyph-name="b" unicode="b" 
d="M216 0h-120v1050h129v-375c54 68.667 123.333 103 208 103c46.667 0 91 -9.5 133 -28.5s76.5 -45.5 103.5 -79.5s48 -75.167 63 -123.5s22.5 -99.833 22.5 -154.5c0 -130.667 -32.167 -231.5 -96.5 -302.5s-141.5 -106.5 -231.5 -106.5s-160.333 37.333 -211 112v-95z
M214 386c0 -91.333 12.333 -157.332 37 -197.999c40.667 -66 95.667 -99 165 -99c56 0 104.667 24.5 146 73.5s62 121.833 62 218.5c0 99.333 -19.833 172.666 -59.5 219.999s-87.167 71 -142.5 71c-56.667 0 -105.5 -24.5 -146.5 -73.5s-61.5 -119.833 -61.5 -212.5z" />
    <glyph glyph-name="c" unicode="c" horiz-adv-x="733" 
d="M593 279l126.998 -17c-14 -87.333 -49.5 -155.666 -106.5 -204.999s-127.167 -74 -210.5 -74c-104 0 -187.667 34 -251 102s-95 165.333 -95 292c0 82 13.667 153.833 41 215.5s68.833 108 124.5 139s116.167 46.5 181.5 46.5c82.667 0 150.167 -21 202.5 -63
s85.833 -101.333 100.5 -178l-125 -19c-12 50.667 -33.167 89 -63.5 115s-66.833 39 -109.5 39c-65.333 0 -118.166 -23.333 -158.499 -70s-60.5 -120.334 -60.5 -221.001c0 -102 19.5 -176.167 58.5 -222.5s90.167 -69.5 153.5 -69.5c50.667 0 92.834 15.5 126.501 46.5
s55.167 78.833 64.5 143.5z" />
    <glyph glyph-name="d" unicode="d" 
d="M590 0v95.999c-48 -75.333 -119 -113 -213 -113c-60.667 0 -116.334 16.667 -167.001 50s-90 80 -118 140s-42 128.667 -42 206c0 76 12.667 145 38 207s63.333 109.5 114 142.5s107.334 49.5 170.001 49.5c45.333 0 86 -9.66699 122 -29s65 -44.666 87 -75.999v377h129
v-1050h-120zM183 378.999c0 -97.333 20.499 -170 61.499 -218s89.5 -72 145.5 -72s103.667 23 143 69s59 116.333 59 211c0 104 -20 180.333 -60 229s-89.333 73 -148 73c-57.333 0 -105.166 -23.333 -143.499 -70s-57.5 -120.667 -57.5 -222z" />
    <glyph glyph-name="e" unicode="e" 
d="M617 245l133.002 -17.0029c-20.667 -77.333 -59.5 -137.5 -116.5 -180.5s-129.5 -64.5 -217.5 -64.5c-111.333 0 -199.5 34.167 -264.5 102.5s-97.5 164.5 -97.5 288.5c0 128 32.833 227.333 98.5 298s151.167 106 256.5 106c101.333 0 184.333 -34.667 249 -104
s97 -166.666 97 -291.999c0 -8 -0.333008 -19.667 -1 -35h-567c4.66699 -83.333 28.167 -147.166 70.5 -191.499s95.5 -66.5 159.5 -66.5c47.333 0 87.666 12.333 120.999 37s59.666 64.334 78.999 119.001zM194.002 452.997l424.998 0.000976562c-6 64 -22.333 112 -49 144
c-41.333 50 -94.666 75 -159.999 75c-59.333 0 -109.166 -19.833 -149.499 -59.5s-62.5 -92.834 -66.5 -159.501z" />
    <glyph glyph-name="f" unicode="f" horiz-adv-x="407" 
d="M127 0v660h-113v100h113v81c0 51.333 4.66699 89.333 14 114c12.667 33.333 34.5 60.5 65.5 81.5s74.833 31.5 131.5 31.5c36 0 76 -4.33301 120 -13l-19 -113c-26.667 4.66699 -52 7 -76 7c-39.333 0 -67 -8.33301 -83 -25s-24 -47.667 -24 -93v-71h148v-100h-148v-660
h-129z" />
    <glyph glyph-name="g" unicode="g" 
d="M73 -63l125.001 -18.998c5.33301 -38.667 20 -66.667 44 -84c32 -24 75.667 -36 131 -36c60 0 106.167 12 138.5 36s54.166 57.333 65.499 100c6.66699 26.667 9.66699 82 9 166c-56 -66.667 -126 -100 -210 -100c-104.667 0 -185.667 37.667 -243 113
s-86 165.666 -86 270.999c0 72.667 13.167 139.667 39.5 201s64.5 108.833 114.5 142.5s108.667 50.5 176 50.5c89.333 0 163.333 -36.333 222 -109v91h118v-657c0 -118 -12 -201.833 -36 -251.5s-62.167 -88.834 -114.5 -117.501s-116.5 -43 -192.5 -43
c-90.667 0 -164 20.5 -220 61.5s-83 102.5 -81 184.5zM180.001 394.002c0 -100 19.833 -172.833 59.5 -218.5s89.167 -68.5 148.5 -68.5s109 22.667 149 68s60 117 60 215c0 92.667 -20.667 162.667 -62 210s-91 71 -149 71c-57.333 0 -106 -23.333 -146 -70
s-60 -115.667 -60 -207z" />
    <glyph glyph-name="h" unicode="h" 
d="M97 0l-0.000976562 1050h129v-377c60 70 135.667 105 227 105c56.667 0 105.667 -11.167 147 -33.5s71 -53 89 -92s27 -95.833 27 -170.5v-482h-129v482c0 64.667 -14 111.667 -42 141s-67.333 44 -118 44c-38.667 0 -74.667 -10 -108 -30s-57.166 -47 -71.499 -81
s-21.5 -80.667 -21.5 -140v-416h-129z" />
    <glyph glyph-name="i" unicode="i" horiz-adv-x="326" 
d="M97 901v149h129v-149h-129zM97 0v760h129v-760h-129z" />
    <glyph glyph-name="j" unicode="j" horiz-adv-x="326" 
d="M96 900v150h129v-150h-129zM-67 -295l24 110.001c26 -6.66699 46.333 -10 61 -10c26 0 45.5 8.66699 58.5 26s19.5 60.666 19.5 129.999v799h129v-802c0 -93.333 -12.333 -158.333 -37 -195c-30.667 -48 -82 -72 -154 -72c-35.333 0 -69 4.66699 -101 14z" />
    <glyph glyph-name="k" unicode="k" horiz-adv-x="733" 
d="M97 0v1050h129v-599l305 309h167l-291 -282l320 -478h-158l-252 389l-91 -88v-301h-129z" />
    <glyph glyph-name="l" unicode="l" horiz-adv-x="326" 
d="M94 0v1050h129v-1050h-129z" />
    <glyph glyph-name="m" unicode="m" horiz-adv-x="1221" 
d="M97 0l0.000976562 760h115v-106c24 37.333 55.833 67.333 95.5 90s84.5 34 134.5 34c56.667 0 103 -11.833 139 -35.5s61.333 -56.5 76 -98.5c60.667 89.333 139 134 235 134c75.333 0 133.333 -21 174 -63s61 -106.333 61 -193v-522h-128v479
c0 51.333 -4.16699 88.333 -12.5 111s-23.5 41 -45.5 55s-48 21 -78 21c-53.333 0 -97.666 -17.833 -132.999 -53.5s-53 -92.5 -53 -170.5v-442h-129v494c0 57.333 -10.5 100.333 -31.5 129s-55.167 43 -102.5 43c-36.667 0 -70.334 -9.5 -101.001 -28.5
s-52.834 -47 -66.501 -84s-20.5 -89.833 -20.5 -158.5v-395h-129z" />
    <glyph glyph-name="n" unicode="n" 
d="M97 0l0.00195312 760.002h116v-108c55.333 84 136 126 242 126c45.333 0 87.333 -8.33301 126 -25s67.5 -38.334 86.5 -65.001s32.167 -58.334 39.5 -95.001c5.33301 -24 8 -65.667 8 -125v-468h-129v463c0 52 -5 91 -15 117s-27.833 46.833 -53.5 62.5
s-55.834 23.5 -90.501 23.5c-54.667 0 -101.834 -17.5 -141.501 -52.5s-59.5 -101.167 -59.5 -198.5v-415h-129z" />
    <glyph glyph-name="o" unicode="o" 
d="M49 380c0 140.667 39 245.001 117 313.001c65.333 56.667 145 85 239 85c104.667 0 190.167 -34.333 256.5 -103s99.5 -163.334 99.5 -284.001c0 -98 -14.667 -175 -44 -231s-72 -99.5 -128 -130.5s-117.333 -46.5 -184 -46.5c-106 0 -191.833 34.167 -257.5 102.5
s-98.5 166.5 -98.5 294.5zM181 380.001c0 -97.333 21.333 -170.168 64 -218.501s96 -72.5 160 -72.5s117.333 24.333 160 73s64 122.667 64 222c0 94.667 -21.5 166.167 -64.5 214.5s-96.167 72.5 -159.5 72.5c-64 0 -117.333 -24.167 -160 -72.5s-64 -121.166 -64 -218.499
z" />
    <glyph glyph-name="p" unicode="p" 
d="M97 -291l-0.00195312 1051h117v-98c28 38.667 59.333 67.667 94 87s77 29 127 29c64.667 0 121.834 -16.833 171.501 -50.5s87.167 -80.834 112.5 -141.501s38 -127.334 38 -200.001c0 -78 -14 -148.167 -42 -210.5s-68.667 -110 -122 -143s-109.333 -49.5 -168 -49.5
c-42.667 0 -81.167 9 -115.5 27s-62.166 41 -83.499 69v-370h-129zM212.998 376.002c0 -98 19.832 -170.333 59.499 -217s87.834 -70 144.501 -70c57.333 0 106.333 24.167 147 72.5s61 123.5 61 225.5c0 96.667 -20 169.167 -60 217.5s-87.667 72.5 -143 72.5
c-54.667 0 -103.167 -25.667 -145.5 -77s-63.5 -126 -63.5 -224z" />
    <glyph glyph-name="q" unicode="q" 
d="M581 -291l0.000976562 371.999c-20 -28 -48 -51.333 -84 -70s-74.333 -28 -115 -28c-90 0 -167.5 36 -232.5 108s-97.5 170.667 -97.5 296c0 76.667 13.167 145.334 39.5 206.001s64.666 106.667 114.999 138s105.5 47 165.5 47c94 0 168 -39.667 222 -119v101h116v-1051
h-129zM184.001 381.999c0 -97.333 20.5 -170.498 61.5 -219.498s90.167 -73.5 147.5 -73.5c54.667 0 101.834 23.167 141.501 69.5s59.5 117.166 59.5 212.499c0 101.333 -20.833 177.5 -62.5 228.5s-90.834 76.5 -147.501 76.5c-55.333 0 -102.5 -23.833 -141.5 -71.5
s-58.5 -121.834 -58.5 -222.501z" />
    <glyph glyph-name="r" unicode="r" horiz-adv-x="488" 
d="M95 0l-0.000976562 760.001h116v-115c30 54 57.5 89.667 82.5 107s52.5 26 82.5 26c43.333 0 87.333 -14 132 -42l-44 -120c-31.333 18.667 -63 28 -95 28c-28 0 -53.167 -8.33301 -75.5 -25s-38.166 -40.334 -47.499 -71.001c-14.667 -45.333 -22 -95.333 -22 -150v-398
h-129z" />
    <glyph glyph-name="s" unicode="s" horiz-adv-x="733" 
d="M45 227l128 19.998c6.66699 -51.333 26.334 -90.5 59.001 -117.5s78.334 -40.5 137.001 -40.5c59.333 0 103.333 12 132 36s43 52.333 43 85c0 28.667 -12.667 51.667 -38 69c-17.333 11.333 -61.333 25.666 -132 42.999c-94 24 -159.333 44.667 -196 62
s-64.334 41.5 -83.001 72.5s-28 64.833 -28 101.5c0 34 7.66699 65.5 23 94.5s36.333 53.167 63 72.5c20 14.667 47.333 27.167 82 37.5s72 15.5 112 15.5c59.333 0 111.5 -8.66699 156.5 -26s78.333 -40.666 100 -69.999s36.5 -68.666 44.5 -117.999l-126 -17
c-6 39.333 -22.667 70 -50 92s-66 33 -116 33c-59.333 0 -101.666 -9.83301 -126.999 -29.5s-38 -42.5 -38 -68.5c0 -17.333 5.33301 -32.666 16 -45.999s27 -24.666 49 -33.999c13.333 -4.66699 51.333 -15.667 114 -33c91.333 -24 155 -43.833 191 -59.5
s64.333 -38.334 85 -68.001s31 -66.5 31 -110.5c0 -42.667 -12.667 -83 -38 -121s-61.5 -67.333 -108.5 -88s-100.5 -31 -160.5 -31c-98.667 0 -173.834 20.5 -225.501 61.5s-84.834 101.833 -99.501 182.5z" />
    <glyph glyph-name="t" unicode="t" horiz-adv-x="407" 
d="M378 115l19.0029 -114.001c-36.667 -7.33301 -69.334 -11 -98.001 -11c-46.667 0 -82.834 7.33301 -108.501 22s-43.834 34.167 -54.501 58.5s-16 75.166 -16 152.499v437h-94v100h94v189l128 77v-266h130v-100h-130v-444c0 -37.333 2.33301 -61.166 7 -71.499
s12.167 -18.666 22.5 -24.999s24.833 -9.5 43.5 -9.5c14.667 0 33.667 1.66699 57 5z" />
    <glyph glyph-name="u" unicode="u" 
d="M595 0l-0.000976562 111.999c-59.333 -86 -139.666 -129 -240.999 -129c-45.333 0 -87.333 8.5 -126 25.5s-67.5 38.5 -86.5 64.5s-32.167 58 -39.5 96c-5.33301 25.333 -8 65.333 -8 120v471h129v-421c0 -67.333 2.66699 -112.666 8 -135.999c8 -34 25 -60.667 51 -80
s58.333 -29 97 -29s75 9.83301 109 29.5s58 46.667 72 81s21 83.833 21 148.5v407h129v-760h-115z" />
    <glyph glyph-name="v" unicode="v" horiz-adv-x="733" 
d="M308 0l-288.999 760h136l163 -455c17.333 -49.333 33.666 -100.333 48.999 -153c11.333 40 27.333 88 48 144l169 464h132l-288 -760h-120z" />
    <glyph glyph-name="w" unicode="w" horiz-adv-x="1059" 
d="M237 0l-233 760h133l121 -439l46 -163c1.33301 8 14.333 60.333 39 157l121 445h132l114 -441l38 -145l44 147l130 439h126l-238 -760h-134l-121 455l-29 130l-154 -585h-135z" />
    <glyph glyph-name="x" unicode="x" horiz-adv-x="733" 
d="M11 0l278 395l-257 365h161l116 -178c22 -34 39.667 -62.333 53 -85l58 84l128 179h154l-262 -358l282 -402h-158l-156 236l-41 64l-200 -300h-156z" />
    <glyph glyph-name="y" unicode="y" horiz-adv-x="733" 
d="M91 -293l-14.002 121c28 -7.33301 52.333 -11 73 -11c28.667 0 51.667 4.66699 69 14s31.333 22.666 42 39.999c8.66699 12.667 22 44.667 40 96c2 7.33301 5.66699 18 11 32l-288 761h139l158 -440c20.667 -56 39 -114.667 55 -176c14.667 59.333 32.334 117 53.001 173
l162 443h129l-289 -773c-31.333 -83.333 -55.333 -140.666 -72 -171.999c-23.333 -42.667 -49.666 -74 -78.999 -94s-64.666 -30 -105.999 -30c-24.667 0 -52.334 5.33301 -83.001 16z" />
    <glyph glyph-name="z" unicode="z" horiz-adv-x="733" 
d="M29 0v105l484 555c-55.333 -2.66699 -104 -4 -146 -4h-310v104h622v-85l-412 -482l-79 -88c57.333 4 111.333 6 162 6h352v-111h-673z" />
    <glyph glyph-name="braceleft" unicode="{" horiz-adv-x="490" 
d="M41 438c36.667 1.33301 66.5 11.332 89.5 29.999s38.333 44.5 46 77.5s11.834 89.333 12.501 169s2 132.167 4 157.5c4.66699 40 12.834 72.167 24.501 96.5s26 43.833 43 58.5s38.833 25.667 65.5 33c18.667 5.33301 48.334 8 89.001 8h40v-113h-22
c-49.333 0 -82.166 -9 -98.499 -27s-24.5 -58 -24.5 -120c0 -124.667 -2.66699 -203.667 -8 -237c-8.66699 -50.667 -23.334 -89.834 -44.001 -117.501s-53.334 -52.5 -98.001 -74.5c52.667 -21.333 90.834 -54.666 114.501 -99.999s35.5 -119.333 35.5 -222
c0 -92.667 1 -148 3 -166c4 -32.667 13.667 -55.334 29 -68.001s45.666 -19 90.999 -19h22v-113h-40c-46.667 0 -80.334 4 -101.001 12c-30.667 10.667 -56 28.334 -76 53.001s-33 55.834 -39 93.501s-9.33301 99.5 -10 185.5s-4.83398 145.5 -12.501 178.5s-23 59 -46 78
s-52.833 28.833 -89.5 29.5v117z" />
    <glyph glyph-name="bar" unicode="|" horiz-adv-x="381" 
d="M135 -309v1377h112v-1377h-112z" />
    <glyph glyph-name="braceright" unicode="}" horiz-adv-x="490" 
d="M448 438l-0.000976562 -116.998c-36.667 -0.666992 -66.5 -10.5 -89.5 -29.5s-38.333 -44.833 -46 -77.5s-11.834 -88.834 -12.501 -168.501s-2 -132.167 -4 -157.5c-4.66699 -40.667 -12.834 -73.167 -24.501 -97.5s-26 -43.666 -43 -57.999s-38.833 -25.5 -65.5 -33.5
c-18.667 -5.33301 -48.334 -8 -89.001 -8h-40v113h22c49.333 0 82.166 9 98.499 27s24.5 58 24.5 120c0 119.333 2 195 6 227c8 53.333 23.5 95.833 46.5 127.5s55.5 56.167 97.5 73.5c-55.333 26.667 -94.166 61.5 -116.499 104.5s-33.5 115.833 -33.5 218.5
c0 93.333 -1.33301 149 -4 167c-3.33301 32 -12.666 54.333 -27.999 67s-45.666 19 -90.999 19h-22v113h40c46.667 0 80.334 -4 101.001 -12c30.667 -10.667 56 -28.334 76 -53.001s33 -55.834 39 -93.501s9.33301 -99.5 10 -185.5s4.83398 -145.333 12.501 -178
s23 -58.5 46 -77.5s52.833 -29.167 89.5 -30.5z" />
    <glyph glyph-name="asciitilde" unicode="~" horiz-adv-x="856" 
d="M62 399l-0.000976562 147.001c50.667 57.333 117 86 199 86c28.667 0 58.834 -4.33301 90.501 -13s76.5 -25.334 134.5 -50.001c33.333 -14 58.166 -23 74.499 -27s32.833 -6 49.5 -6c31.333 0 63.5 9.16699 96.5 27.5s62.5 41.833 88.5 70.5v-152
c-30.667 -28.667 -61.667 -49.5 -93 -62.5s-66.666 -19.5 -105.999 -19.5c-28.667 0 -56 3.33301 -82 10s-67.167 22.667 -123.5 48s-103.5 38 -141.5 38c-30.667 0 -59.5 -6.5 -86.5 -19.5s-60.5 -38.833 -100.5 -77.5z" />
    <glyph glyph-name="uni00A0" unicode="&#xa0;" horiz-adv-x="407" 
 />
    <glyph glyph-name="exclamdown" unicode="&#xa1;" horiz-adv-x="488" 
d="M320 760v-146h-148v146h148zM286 499l40 -556v-232h-160v232l37 556h83z" />
    <glyph glyph-name="cent" unicode="&#xa2;" 
d="M533 640l-158.998 -547.999c15.333 -4.66699 29.666 -7 42.999 -7c50 0 93 17 129 51s58 81.667 66 143l128 -15c-15.333 -88 -52.5 -157.333 -111.5 -208s-128.5 -76 -208.5 -76c-24 0 -48.667 3.33301 -74 10l-85 -283l-80 23l82 285
c-54.667 26 -99.334 69.667 -134.001 131s-52 138.333 -52 231c0 84.667 13.833 157.5 41.5 218.5s69.334 106.667 125.001 137s112.5 45.5 170.5 45.5c17.333 0 41 -1.66699 71 -5l81 277l79 -23l-80 -277c47.333 -20.667 83.666 -48.334 108.999 -83.001s43 -78 53 -130
l-126 -19c-12 53.333 -34.667 94 -68 122zM457.002 673.001c-15.333 1.33301 -27.333 2.00293 -36 2.00293c-39.333 0 -76 -10.833 -110 -32.5s-59.5 -55.334 -76.5 -101.001s-25.5 -98.5 -25.5 -158.5c0 -62.667 7.66699 -115.834 23 -159.501s37 -75.834 65 -96.501z" />
    <glyph glyph-name="sterling" unicode="&#xa3;" 
d="M284 579l225.003 -0.000976562v-106h-203c8.66699 -20.667 13 -41.667 13 -63c0 -41.333 -9.83301 -85.166 -29.5 -131.499s-52.167 -93.5 -97.5 -141.5c37.333 10.667 71.666 16 102.999 16c39.333 0 84 -6 134 -18c82 -20 137.667 -30 167 -30
c35.333 0 81 13.333 137 40l42 -118c-44 -18.667 -78 -30.834 -102 -36.501s-48 -8.5 -72 -8.5c-20 0 -40.333 2 -61 6c-12.667 2 -43.5 10.667 -92.5 26s-80.833 24.333 -95.5 27c-22 4 -44.333 6 -67 6c-34.667 0 -71.334 -6 -110.001 -18s-74 -28.333 -106 -49l-50 124
c46 25.333 85 61.5 117 108.5s48 104.167 48 171.5c0 29.333 -4 59 -12 89h-140v106h110c-16 53.333 -26.167 92.333 -30.5 117s-6.5 48.667 -6.5 72c0 99.333 37 177 111 233c58.667 44.667 130 67 214 67c86.667 0 158 -23.833 214 -71.5s90.667 -114.5 104 -200.5
l-129 -19c-6.66699 57.333 -27.834 102.5 -63.501 135.5s-78.5 49.5 -128.5 49.5c-52.667 0 -96.5 -17.167 -131.5 -51.5s-52.5 -75.5 -52.5 -123.5c0 -53.333 13.667 -122.666 41 -207.999z" />
    <glyph glyph-name="currency" unicode="&#xa4;" 
d="M153 688l-100 97l82 86l100 -100c50.667 34.667 107.334 52 170.001 52s119 -17.333 169 -52l100 100l83 -86l-100 -97c34 -52.667 51 -108.667 51 -168c0 -60 -17 -116.333 -51 -169l100 -98l-83 -85l-100 101c-50 -35.333 -106.333 -53 -169 -53
s-119.334 17.667 -170.001 53l-100 -101l-82 85l100 98c-34 52.667 -51 109 -51 169c0 59.333 17 115.333 51 168zM218 520c0 -52 18.167 -96 54.5 -132s80.166 -54 131.499 -54c50.667 0 94.167 18 130.5 54s54.5 80 54.5 132c0 50.667 -18 94.167 -54 130.5
s-79.667 54.5 -131 54.5s-95.166 -18.167 -131.499 -54.5s-54.5 -79.833 -54.5 -130.5z" />
    <glyph glyph-name="yen" unicode="&#xa5;" 
d="M342 0v233h-298v99h298v103h-298v106h245l-291 509h143l208 -370c23.333 -42 41.333 -78.667 54 -110c11.333 25.333 31 64.333 59 117l196 363h153l-290 -509h244v-106h-295v-103h295v-99h-295v-233h-128z" />
    <glyph glyph-name="brokenbar" unicode="&#xa6;" horiz-adv-x="381" 
d="M247 1068v-566h-112v566h112zM247 258v-567h-112v567h112z" />
    <glyph glyph-name="section" unicode="&#xa7;" 
d="M102 -50l130.001 18.0029c13.333 -62 34.5 -105.5 63.5 -130.5s68.833 -37.5 119.5 -37.5c48.667 0 86.667 12.5 114 37.5s41 54.167 41 87.5c0 24 -8.66699 46.333 -26 67c-29.333 36 -110.333 94.667 -243 176c-70.667 43.333 -120 77.166 -148 101.499
s-50.833 53.333 -68.5 87s-26.5 68.5 -26.5 104.5c0 46 14.333 87.667 43 125s68 63.333 118 78c-34 32 -57.833 61.833 -71.5 89.5s-20.5 56.834 -20.5 87.501c0 61.333 23.833 114.5 71.5 159.5s110.834 67.5 189.501 67.5c89.333 0 159 -21.333 209 -64
s80 -104.334 90 -185.001l-134 -13c-10 58 -27.5 98.5 -52.5 121.5s-58.5 34.5 -100.5 34.5c-44 0 -79.5 -11.833 -106.5 -35.5s-40.5 -49.834 -40.5 -78.501c0 -24.667 8.66699 -47.667 26 -69c26.667 -32.667 99.667 -85.334 219 -158.001
c74.667 -45.333 125 -78.666 151 -99.999c34 -28.667 59 -58.334 75 -89.001s24 -64 24 -100c0 -54 -17.333 -100 -52 -138c-20 -22 -56.667 -44.333 -110 -67c38 -28.667 66.5 -59.667 85.5 -93s28.5 -69.333 28.5 -108c0 -42 -12 -81.667 -36 -119s-58.5 -66 -103.5 -86
s-93.5 -30 -145.5 -30c-90.667 0 -162.834 22.833 -216.501 68.5s-85.834 109.167 -96.501 190.5zM521.001 175.003c35.333 18 61.833 38.998 79.5 62.998s26.5 47.667 26.5 71c0 26.667 -12.667 55.334 -38 86.001c-25.333 30 -79 70.333 -161 121
c-65.333 40 -114 72.667 -146 98c-38.667 -22 -66.167 -43.833 -82.5 -65.5s-24.5 -46.167 -24.5 -73.5c0 -30 11 -58.333 33 -85c22 -27.333 71.333 -63.666 148 -108.999c64 -38 119 -73.333 165 -106z" />
    <glyph glyph-name="dieresis" unicode="&#xa8;" horiz-adv-x="488" 
d="M44 909v147h134v-147h-134zM311 909v147h134v-147h-134z" />
    <glyph glyph-name="copyright" unicode="&#xa9;" horiz-adv-x="1080" 
d="M543 1068c90.667 0 179.169 -23.333 265.502 -70s153.666 -113.334 201.999 -200.001s72.5 -177 72.5 -271c0 -93.333 -23.833 -182.833 -71.5 -268.5s-114.334 -152.334 -200.001 -200.001s-175.167 -71.5 -268.5 -71.5c-94 0 -183.833 23.833 -269.5 71.5
s-152.334 114.334 -200.001 200.001s-71.5 175.167 -71.5 268.5c0 94 24.167 184.333 72.5 271s115.833 153.334 202.5 200.001s175.334 70 266.001 70zM543.002 978c-76 0 -150.002 -19.5 -222.002 -58.5s-128.167 -94.667 -168.5 -167s-60.5 -147.5 -60.5 -225.5
s19.833 -152.667 59.5 -224s95.334 -126.833 167.001 -166.5s146.5 -59.5 224.5 -59.5c77.333 0 151.833 19.833 223.5 59.5s127.334 95.167 167.001 166.5s59.5 146 59.5 224s-20.167 153.167 -60.5 225.5s-96.5 128 -168.5 167s-145.667 58.5 -221 58.5zM716 440
l88.0029 -26.001c-14 -60 -44.333 -107.667 -91 -143s-103.334 -53 -170.001 -53c-84 0 -152.167 27.167 -204.5 81.5s-78.5 129.833 -78.5 226.5c0 62.667 12 117.334 36 164.001s58 81.834 102 105.501s94.333 35.5 151 35.5c63.333 0 116 -15.167 158 -45.5
s70.667 -71.5 86 -123.5l-85 -21c-14 35.333 -35 62.333 -63 81s-61 28 -99 28c-54.667 0 -99.834 -19.5 -135.501 -58.5s-53.5 -95.167 -53.5 -168.5c0 -72.667 16.833 -127.834 50.5 -165.501s77.167 -56.5 130.5 -56.5c43.333 0 81.166 12.5 113.499 37.5
s53.833 58.833 64.5 101.5z" />
    <glyph glyph-name="ordfeminine" unicode="&#xaa;" horiz-adv-x="543" 
d="M392 611c-58 -51.333 -119.001 -76.998 -183.001 -76.998c-54 0 -96.667 14.667 -128 44s-47 67 -47 113c0 22.667 3.83301 42.667 11.5 60s19 32.666 34 45.999s34.167 24 57.5 32c17.333 5.33301 41 10.333 71 15l106 16c34 6.66699 56.667 11.334 68 14.001
c0 33.333 -3.16699 55.833 -9.5 67.5s-18 21.667 -35 30s-39.5 12.5 -67.5 12.5c-38 0 -66.167 -7.83301 -84.5 -23.5s-29.833 -37.834 -34.5 -66.501l-98 25c6 42 27 77.333 63 106s87.667 43 155 43c78.667 0 134 -14.667 166 -44c32 -30 48 -73.333 48 -130v-172v-43
c0 -64 9.66699 -108 29 -132h-106c-9.33301 19.333 -14.666 40.666 -15.999 63.999zM381.999 790.002c-25.333 -6.66699 -71.333 -14.999 -138 -24.999c-42.667 -6.66699 -70.667 -16 -84 -28c-13.333 -12.667 -20 -28 -20 -46c0 -19.333 8.16699 -36 24.5 -50
s39.166 -21 68.499 -21c35.333 0 65.833 9.33301 91.5 28s42.834 41.667 51.501 69c3.33301 9.33301 5.33301 33.666 6 72.999z" />
    <glyph glyph-name="guillemotleft" unicode="&#xab;" 
d="M243 378l186 -326h-105l-228 326l228 327h106zM521 378l189 -326h-109l-224 326l224 327h109z" />
    <glyph glyph-name="logicalnot" unicode="&#xac;" horiz-adv-x="856" 
d="M775 304h-122v313h-571v120h693v-433z" />
    <glyph glyph-name="uni00AD" unicode="&#xad;" horiz-adv-x="488" 
d="M47 315v130h395v-130h-395z" />
    <glyph glyph-name="registered" unicode="&#xae;" horiz-adv-x="1080" 
d="M543 1068c90.667 0 179.169 -23.333 265.502 -70s153.666 -113.334 201.999 -200.001s72.5 -177 72.5 -271c0 -93.333 -23.833 -182.833 -71.5 -268.5s-114.334 -152.334 -200.001 -200.001s-175.167 -71.5 -268.5 -71.5c-94 0 -183.833 23.833 -269.5 71.5
s-152.334 114.334 -200.001 200.001s-71.5 175.167 -71.5 268.5c0 94 24.167 184.333 72.5 271s115.833 153.334 202.5 200.001s175.334 70 266.001 70zM543.002 978c-76 0 -150.002 -19.5 -222.002 -58.5s-128.167 -94.667 -168.5 -167s-60.5 -147.5 -60.5 -225.5
s19.833 -152.667 59.5 -224s95.334 -126.833 167.001 -166.5s146.5 -59.5 224.5 -59.5c77.333 0 151.833 19.833 223.5 59.5s127.334 95.167 167.001 166.5s59.5 146 59.5 224s-20.167 153.167 -60.5 225.5s-96.5 128 -168.5 167s-145.667 58.5 -221 58.5zM306 228v582h199
c68.667 0 118.334 -5.33301 149.001 -16s55 -29.5 73 -56.5s27 -55.5 27 -85.5c0 -42 -15.167 -78.833 -45.5 -110.5s-70.5 -49.5 -120.5 -53.5c20.667 -8.66699 37 -18.667 49 -30c23.333 -23.333 52 -62 86 -116l71 -114h-115l-51 92c-40.667 72 -73.334 117 -98.001 135
c-17.333 13.333 -42.333 20 -75 20h-55v-247h-94zM400 556l112.999 -0.000976562c54.667 0 91.834 8 111.501 24s29.5 37.333 29.5 64c0 17.333 -4.66699 32.833 -14 46.5s-22.5 23.834 -39.5 30.501s-48.5 10 -94.5 10h-106v-175z" />
    <glyph glyph-name="macron" unicode="&#xaf;" horiz-adv-x="810" 
d="M-22 1121v93h854v-93h-854z" />
    <glyph glyph-name="degree" unicode="&#xb0;" horiz-adv-x="586" 
d="M92 869c0 55.333 19.333 102.333 58 141s85.334 58 140.001 58c55.333 0 102.333 -19.333 141 -58s58 -85.667 58 -141c0 -54.667 -19.5 -101.5 -58.5 -140.5s-85.833 -58.5 -140.5 -58.5s-101.334 19.333 -140.001 58s-58 85.667 -58 141zM170 869
c0 -33.333 11.833 -61.833 35.5 -85.5s52.167 -35.5 85.5 -35.5c32.667 0 60.834 11.833 84.501 35.5s35.5 52.167 35.5 85.5s-11.833 61.833 -35.5 85.5s-51.834 35.5 -84.501 35.5c-33.333 0 -61.833 -11.833 -85.5 -35.5s-35.5 -52.167 -35.5 -85.5z" />
    <glyph glyph-name="plusminus" unicode="&#xb1;" horiz-adv-x="805" 
d="M342 186v289h-286v119h286v286h121v-286h286v-119h-286v-289h-121zM749 0h-693v120h693v-120z" />
    <glyph glyph-name="twosuperior" unicode="&#xb2;" horiz-adv-x="488" 
d="M18 525c2.66699 27.333 14 54.333 34 81c30 41.333 79.333 87 148 137s109.334 82 122.001 96c18 20 27 40 27 60c0 23.333 -8.33301 42.333 -25 57s-41.334 22 -74.001 22c-31.333 0 -54.833 -5.66699 -70.5 -17s-28.5 -33 -38.5 -65l-108 12
c14 52.667 38 91.667 72 117s83 38 147 38c72 0 124.833 -14.167 158.5 -42.5s50.5 -62.833 50.5 -103.5c0 -40 -14 -78 -42 -114c-21.333 -26.667 -70.333 -67.334 -147 -122.001c-39.333 -29.333 -67.333 -52.666 -84 -69.999h276v-86h-446z" />
    <glyph glyph-name="threesuperior" unicode="&#xb3;" horiz-adv-x="488" 
d="M24 665l104 11.001c9.33301 -28.667 21.666 -48.334 36.999 -59.001c20.667 -14 45 -21 73 -21c34 0 61.333 9.33301 82 28s31 41 31 67c0 24 -8.66699 43.167 -26 57.5s-46.666 21.5 -87.999 21.5c-6 0 -14 -0.666992 -24 -2h-15l15 78c38.667 0 67 7.16699 85 21.5
s27 31.5 27 51.5c0 18 -7.16699 33.167 -21.5 45.5s-35.5 18.5 -63.5 18.5c-26.667 0 -47.5 -5.16699 -62.5 -15.5s-28.167 -29.5 -39.5 -57.5l-102 17c19.333 50 44 85.167 74 105.5s73.667 30.5 131 30.5c68.667 0 118.5 -12.833 149.5 -38.5s46.5 -57.5 46.5 -95.5
c0 -26.667 -8.33301 -50.167 -25 -70.5s-41 -35.166 -73 -44.499c42 -10.667 73.167 -28 93.5 -52s30.5 -52.333 30.5 -85c0 -44 -19 -82.5 -57 -115.5s-91.667 -49.5 -161 -49.5c-66.667 0 -117.667 13.167 -153 39.5s-58 64.166 -68 113.499z" />
    <glyph glyph-name="acute" unicode="&#xb4;" horiz-adv-x="488" 
d="M159 855l95 200h169l-157 -200h-107z" />
    <glyph glyph-name="mu1" unicode="&#xb5;" horiz-adv-x="845" 
d="M729 760v-759.999h-115v90c-25.333 -38 -50 -64.333 -74 -79c-33.333 -19.333 -72.333 -29 -117 -29c-39.333 0 -74.333 8 -105 24c-22.667 12 -48 35.667 -76 71v-368h-127v1051h127v-322c0 -116.667 6.16699 -192.334 18.5 -227.001s32.5 -62 60.5 -82s60 -30 96 -30
c38.667 0 73 10.5 103 31.5s51.167 48 63.5 81s18.5 107.833 18.5 224.5v324h127z" />
    <glyph glyph-name="paragraph" unicode="&#xb6;" horiz-adv-x="788" 
d="M290 -291v748c-89.333 4.66699 -159.833 33.667 -211.5 87s-77.5 121.333 -77.5 204c0 92 28.667 165.333 86 220s141.333 82 252 82h454v-124h-103v-1217h-122v1217h-160v-1217h-118z" />
    <glyph glyph-name="uni00B7" unicode="&#xb7;" horiz-adv-x="407" 
d="M132 443v147h147v-147h-147z" />
    <glyph glyph-name="cedilla" unicode="&#xb8;" horiz-adv-x="488" 
d="M155 -110l36.9961 125.997h96l-24 -76c40.667 -4.66699 71.334 -17.167 92.001 -37.5s31 -42.833 31 -67.5c0 -36 -17.167 -67.667 -51.5 -95s-86.166 -41 -155.499 -41c-39.333 0 -73.666 2.66699 -102.999 8l7 84c30.667 -2 53.334 -3 68.001 -3
c44.667 0 76 6.33301 94 19c14 9.33301 21 21 21 35c0 8.66699 -2.66699 16.334 -8 23.001s-15.5 12.334 -30.5 17.001s-39.5 7.33398 -73.5 8.00098z" />
    <glyph glyph-name="onesuperior" unicode="&#xb9;" horiz-adv-x="488" 
d="M237 525l0.000976562 396.003c-48.667 -38.667 -102 -65.334 -160 -80.001v88c29.333 9.33301 62.166 26.666 98.499 51.999s65.5 52.666 87.5 81.999h78v-538h-104z" />
    <glyph glyph-name="ordmasculine" unicode="&#xba;" horiz-adv-x="536" 
d="M267 1068c69.333 0 125.833 -24 169.5 -72s65.5 -114 65.5 -198c0 -83.333 -22 -148.833 -66 -196.5s-100 -71.5 -168 -71.5c-69.333 0 -126 23.333 -170 70s-66 111.667 -66 195c0 86 21.833 153 65.5 201s100.167 72 169.5 72zM267 972
c-38.667 0 -69.832 -13.5 -93.499 -40.5s-35.5 -71.5 -35.5 -133.5c0 -60 12.167 -104 36.5 -132s55.166 -42 92.499 -42c38 0 69 14 93 42s36 73.333 36 136c0 58 -12 100.833 -36 128.5s-55 41.5 -93 41.5z" />
    <glyph glyph-name="guillemotright" unicode="&#xbb;" 
d="M566 378l-187 327h106l229 -327l-229 -326h-105zM289 378l-189 327h108l225 -327l-225 -326h-108z" />
    <glyph glyph-name="onequarter" unicode="&#xbc;" horiz-adv-x="1223" 
d="M180 -41l789 1109h112l-788 -1109h-113zM237 525l0.000976562 396.003c-48.667 -38.667 -102 -65.334 -160 -80.001v88c29.333 9.33301 62.166 26.666 98.499 51.999s65.5 52.666 87.5 81.999h78v-538h-104zM1024 -21.9971v110h-274v88l290 340h87v-351h74v-77h-74v-110
h-103zM1024 165.003v189l-165 -189h165z" />
    <glyph glyph-name="onehalf" unicode="&#xbd;" horiz-adv-x="1223" 
d="M163 -41l789 1109h112l-788 -1109h-113zM237 525l0.000976562 396.003c-48.667 -38.667 -102 -65.334 -160 -80.001v88c29.333 9.33301 62.166 26.666 98.499 51.999s65.5 52.666 87.5 81.999h78v-538h-104zM751.001 -21.9971
c2.66699 26.667 14.001 53.668 34.001 81.001c30 41.333 79.333 86.833 148 136.5s109.334 81.834 122.001 96.501c18 19.333 27 39.333 27 60c0 23.333 -8.33301 42.166 -25 56.499s-41.334 21.5 -74.001 21.5c-31.333 0 -54.833 -5.5 -70.5 -16.5s-28.5 -32.5 -38.5 -64.5
l-108 11c14 53.333 38.167 92.666 72.5 117.999s83.166 38 146.499 38c72 0 124.833 -14.167 158.5 -42.5s50.5 -62.833 50.5 -103.5c0 -40 -14 -78 -42 -114c-21.333 -26.667 -70 -67.667 -146 -123c-40 -28.667 -68.333 -51.667 -85 -69h276v-86h-446z" />
    <glyph glyph-name="threequarters" unicode="&#xbe;" horiz-adv-x="1223" 
d="M180 -41l789 1109h112l-788 -1109h-113zM24 665l104.001 11.001c9.33301 -28.667 21.666 -48.334 36.999 -59.001c20.667 -14 45 -21 73 -21c34 0 61.333 9.33301 82 28s31 41 31 67c0 24 -8.66699 43.167 -26 57.5s-46 21.5 -86 21.5c-24 -1.33301 -37.667 -2 -41 -2
l15 78c38.667 0 67 7.16699 85 21.5s27 31.5 27 51.5c0 18 -7.16699 33.167 -21.5 45.5s-35.5 18.5 -63.5 18.5c-26.667 0 -47.5 -5.16699 -62.5 -15.5s-28.167 -29.5 -39.5 -57.5l-102 17c19.333 50 44 85.167 74 105.5s73.667 30.5 131 30.5
c68.667 0 118.5 -12.833 149.5 -38.5s46.5 -57.5 46.5 -95.5c0 -26.667 -8.33301 -50.167 -25 -70.5s-41 -35.166 -73 -44.499c42 -10.667 73.167 -28 93.5 -52s30.5 -52.333 30.5 -85c0 -44 -19 -82.5 -57 -115.5s-91.667 -49.5 -161 -49.5
c-66.667 0 -117.667 13.167 -153 39.5s-58 64.166 -68 113.499zM1023 -21.999v110h-273v88l289 340h88v-351h74v-77h-74v-110h-104zM1023 165.001v189l-164 -189h164z" />
    <glyph glyph-name="questiondown" unicode="&#xbf;" horiz-adv-x="896" 
d="M525 760v-146h-147v146h147zM516 502c0.666992 -16 1 -28.333 1 -37c0 -52 -7.33301 -96.333 -22 -133c-10 -28 -26.667 -56 -50 -84c-17.333 -20.667 -48.333 -50.5 -93 -89.5s-73.5 -70.333 -86.5 -94s-19.5 -49.167 -19.5 -76.5c0 -50.667 19.5 -94.834 58.5 -132.501
s86.833 -56.5 143.5 -56.5c54.667 0 100.5 17.167 137.5 51.5s61.167 87.833 72.5 160.5l132 -15c-12 -97.333 -47.5 -172.166 -106.5 -224.499s-136.833 -78.5 -233.5 -78.5c-102.667 0 -184.5 27.833 -245.5 83.5s-91.5 123.167 -91.5 202.5c0 46.667 10.667 89 32 127
s63.333 84.667 126 140c42 38 69.5 65.833 82.5 83.5s22.5 38 28.5 61s9.33301 60.167 10 111.5h124z" />
    <glyph glyph-name="Agrave" unicode="&#xc0;" horiz-adv-x="978" 
d="M-2 0l403 1050h150l429 -1050h-158l-122 318h-439l-116 -318h-147zM301 431h356l-110 291c-33.333 88 -58 160.333 -74 217c-13.333 -67.333 -32.333 -134 -57 -200zM590 1114h-104l-165 200h172z" />
    <glyph glyph-name="Aacute" unicode="&#xc1;" horiz-adv-x="978" 
d="M-2 0l403 1050h150l429 -1050h-158l-122 318h-439l-116 -318h-147zM301 431h356l-110 291c-33.333 88 -58 160.333 -74 217c-13.333 -67.333 -32.333 -134 -57 -200zM387 1114l95 200h169l-157 -200h-107z" />
    <glyph glyph-name="Acircumflex" unicode="&#xc2;" horiz-adv-x="978" 
d="M-2 0l403 1050h150l429 -1050h-158l-122 318h-439l-116 -318h-147zM301 431h356l-110 291c-33.333 88 -58 160.333 -74 217c-13.333 -67.333 -32.333 -134 -57 -200zM475 1236l-81 -122h-147l155 200h137l161 -200h-146z" />
    <glyph glyph-name="Atilde" unicode="&#xc3;" horiz-adv-x="978" 
d="M-2 0l403 1050h150l429 -1050h-158l-122 318h-439l-116 -318h-147zM301 431h356l-110 291c-33.333 88 -58 160.333 -74 217c-13.333 -67.333 -32.333 -134 -57 -200zM250 1114c0 49.333 13.666 89 40.999 119c27.333 29.333 62 44 104 44c30 0 70.333 -13 121 -39
c28.667 -14 51.334 -21 68.001 -21c15.333 0 27 4.16699 35 12.5s13.667 24.833 17 49.5h93c-1.33301 -54 -15 -94.667 -41 -122s-59 -41 -99 -41c-30 0 -69.667 13.333 -119 40c-32 17.333 -55.333 26 -70 26c-16.667 0 -30 -5.66699 -40 -17c-10 -12 -15 -29 -15 -51h-95z
" />
    <glyph glyph-name="Adieresis" unicode="&#xc4;" horiz-adv-x="978" 
d="M-2 0l403 1050h150l429 -1050h-158l-122 318h-439l-116 -318h-147zM301 431h356l-110 291c-33.333 88 -58 160.333 -74 217c-13.333 -67.333 -32.333 -134 -57 -200zM272 1114v147h134v-147h-134zM539 1114v147h134v-147h-134z" />
    <glyph glyph-name="Aring" unicode="&#xc5;" horiz-adv-x="978" 
d="M-2 0l403 1050h150l429 -1050h-158l-122 318h-439l-116 -318h-147zM301 431h356l-110 291c-33.333 88 -58 160.333 -74 217c-13.333 -67.333 -32.333 -134 -57 -200zM344 1146c0 34.667 12.833 64.667 38.5 90s55.834 38 90.501 38c35.333 0 65.666 -12.667 90.999 -38
s38 -56.333 38 -93s-12.667 -67.667 -38 -93s-55.333 -38 -90 -38c-36 0 -66.667 12.833 -92 38.5s-38 57.5 -38 95.5zM398 1144c0 -21.333 7.66699 -39.666 23 -54.999s33 -23.333 53 -24c20.667 0.666992 38.5 8.66699 53.5 24s22.5 33.333 22.5 54
c0 22 -7.33301 40.667 -22 56s-32.667 22.666 -54 21.999c-20 0.666992 -37.667 -6.5 -53 -21.5s-23 -33.5 -23 -55.5z" />
    <glyph glyph-name="AE" unicode="&#xc6;" horiz-adv-x="1466" 
d="M1 0l504 1050h862v-124h-528v-323h491v-123h-491v-356h547v-124h-686v303h-406l-143 -303h-150zM353 426h347v500h-104z" />
    <glyph glyph-name="Ccedilla" unicode="&#xc7;" horiz-adv-x="1059" 
d="M862 368l138.999 -34.9971c-29.333 -114 -81.833 -201 -157.5 -261s-168.167 -90 -277.5 -90c-112.667 0 -204.5 23 -275.5 69s-125 112.667 -162 200s-55.5 181.333 -55.5 282c0 109.333 20.833 204.666 62.5 285.999s101.167 143.166 178.5 185.499
s162.333 63.5 255 63.5c104.667 0 192.834 -26.833 264.501 -80.5s121.5 -128.834 149.5 -225.501l-137 -32c-24 76 -59.167 131.5 -105.5 166.5s-104.5 52.5 -174.5 52.5c-80.667 0 -148.167 -19.333 -202.5 -58s-92.5 -90.667 -114.5 -156s-33 -132.666 -33 -201.999
c0 -88.667 13 -166.334 39 -233.001s66.5 -116.5 121.5 -149.5s114.5 -49.5 178.5 -49.5c78 0 143.833 22.5 197.5 67.5s90.167 111.5 109.5 199.5zM443.999 -109.997l36.9961 125.997h96l-24 -76c40.667 -4.66699 71.334 -17.167 92.001 -37.5s31 -42.833 31 -67.5
c0 -36 -17.167 -67.667 -51.5 -95s-86.166 -41 -155.499 -41c-39.333 0 -73.666 2.66699 -102.999 8l7 84c30.667 -2 53.334 -3 68.001 -3c44.667 0 76 6.33301 94 19c14 9.33301 21 21 21 35c0 8.66699 -2.66699 16.334 -8 23.001s-15.5 12.334 -30.5 17.001
s-39.5 7.33398 -73.5 8.00098z" />
    <glyph glyph-name="Egrave" unicode="&#xc8;" horiz-adv-x="978" 
d="M116 0v1050h759v-124h-620v-322h581v-123h-581v-357h644v-124h-783zM609 1114h-104l-165 200h172z" />
    <glyph glyph-name="Eacute" unicode="&#xc9;" horiz-adv-x="978" 
d="M116 0v1050h759v-124h-620v-322h581v-123h-581v-357h644v-124h-783zM402 1114l95 200h169l-157 -200h-107z" />
    <glyph glyph-name="Ecircumflex" unicode="&#xca;" horiz-adv-x="978" 
d="M116 0v1050h759v-124h-620v-322h581v-123h-581v-357h644v-124h-783zM506 1236l-81 -122h-147l155 200h137l161 -200h-146z" />
    <glyph glyph-name="Edieresis" unicode="&#xcb;" horiz-adv-x="978" 
d="M116 0v1050h759v-124h-620v-322h581v-123h-581v-357h644v-124h-783zM305 1114v147h134v-147h-134zM572 1114v147h134v-147h-134z" />
    <glyph glyph-name="Igrave" unicode="&#xcc;" horiz-adv-x="407" 
d="M137 0v1050h139v-1050h-139zM309 1114h-104l-165 200h172z" />
    <glyph glyph-name="Iacute" unicode="&#xcd;" horiz-adv-x="407" 
d="M137 0v1050h139v-1050h-139zM102 1114l95 200h169l-157 -200h-107z" />
    <glyph glyph-name="Icircumflex" unicode="&#xce;" horiz-adv-x="407" 
d="M137 0v1050h139v-1050h-139zM206 1236l-81 -122h-147l155 200h137l161 -200h-146z" />
    <glyph glyph-name="Idieresis" unicode="&#xcf;" horiz-adv-x="407" 
d="M137 0v1050h139v-1050h-139zM4 1114v147h134v-147h-134zM271 1114v147h134v-147h-134z" />
    <glyph glyph-name="Eth" unicode="&#xd0;" horiz-adv-x="1059" 
d="M113 0l0.000976562 478.001h-115v94h115v478h362c81.333 0 143.666 -5 186.999 -15c60 -14 111.333 -39.333 154 -76c55.333 -46.667 96.666 -106.334 123.999 -179.001s41 -155.667 41 -249c0 -107.333 -17 -199.5 -51 -276.5s-74.667 -133 -122 -168
s-101.666 -59.833 -162.999 -74.5c-34 -8 -85 -12 -153 -12h-379zM252.001 124.001l224 0.000976562c70 0 124.5 6.5 163.5 19.5s69.833 30.833 92.5 53.5c33.333 32.667 59.333 76.667 78 132s28 123 28 203c0 82 -9.16699 147.667 -27.5 197s-42.333 88.666 -72 117.999
s-62.667 49.833 -99 61.5s-91.833 17.5 -166.5 17.5h-221v-354h289v-94h-289v-354z" />
    <glyph glyph-name="Ntilde" unicode="&#xd1;" horiz-adv-x="1059" 
d="M112 0v1050h142l552 -824v824h133v-1050h-143l-551 825v-825h-133zM308 1114c0 49.333 13.666 89 40.999 119c27.333 29.333 62 44 104 44c30 0 70.333 -13 121 -39c28.667 -14 51.334 -21 68.001 -21c15.333 0 27 4.16699 35 12.5s13.667 24.833 17 49.5h93
c-1.33301 -54 -15 -94.667 -41 -122s-59 -41 -99 -41c-30 0 -69.667 13.333 -119 40c-32 17.333 -55.333 26 -70 26c-16.667 0 -30 -5.66699 -40 -17c-10 -12 -15 -29 -15 -51h-95z" />
    <glyph glyph-name="Ograve" unicode="&#xd2;" horiz-adv-x="1141" 
d="M71 511c0 174.667 46.832 311.166 140.499 409.499s214.5 147.5 362.5 147.5c96.667 0 183.834 -23.167 261.501 -69.5s137 -110.833 178 -193.5s61.5 -176.667 61.5 -282c0 -106 -21.5 -201 -64.5 -285s-103.833 -147.667 -182.5 -191s-163.667 -65 -255 -65
c-98.667 0 -187 23.833 -265 71.5s-137 112.834 -177 195.501s-60 170 -60 262zM213.999 508.999c0 -126.667 33.999 -226.332 101.999 -298.999s153.333 -109 256 -109c104.667 0 190.834 36.667 258.501 110s101.5 177.666 101.5 312.999
c0 85.333 -14.5 159.833 -43.5 223.5s-71.333 113.167 -127 148.5s-118.167 53 -187.5 53c-98 0 -182.5 -33.833 -253.5 -101.5s-106.5 -180.5 -106.5 -338.5zM655.998 1114h-104l-165 200h172z" />
    <glyph glyph-name="Oacute" unicode="&#xd3;" horiz-adv-x="1141" 
d="M71 511c0 174.667 46.832 311.166 140.499 409.499s214.5 147.5 362.5 147.5c96.667 0 183.834 -23.167 261.501 -69.5s137 -110.833 178 -193.5s61.5 -176.667 61.5 -282c0 -106 -21.5 -201 -64.5 -285s-103.833 -147.667 -182.5 -191s-163.667 -65 -255 -65
c-98.667 0 -187 23.833 -265 71.5s-137 112.834 -177 195.501s-60 170 -60 262zM213.999 508.999c0 -126.667 33.999 -226.332 101.999 -298.999s153.333 -109 256 -109c104.667 0 190.834 36.667 258.501 110s101.5 177.666 101.5 312.999
c0 85.333 -14.5 159.833 -43.5 223.5s-71.333 113.167 -127 148.5s-118.167 53 -187.5 53c-98 0 -182.5 -33.833 -253.5 -101.5s-106.5 -180.5 -106.5 -338.5zM484.998 1114l95 200h169l-157 -200h-107z" />
    <glyph glyph-name="Ocircumflex" unicode="&#xd4;" horiz-adv-x="1141" 
d="M71 511c0 174.667 46.832 311.166 140.499 409.499s214.5 147.5 362.5 147.5c96.667 0 183.834 -23.167 261.501 -69.5s137 -110.833 178 -193.5s61.5 -176.667 61.5 -282c0 -106 -21.5 -201 -64.5 -285s-103.833 -147.667 -182.5 -191s-163.667 -65 -255 -65
c-98.667 0 -187 23.833 -265 71.5s-137 112.834 -177 195.501s-60 170 -60 262zM213.999 508.999c0 -126.667 33.999 -226.332 101.999 -298.999s153.333 -109 256 -109c104.667 0 190.834 36.667 258.501 110s101.5 177.666 101.5 312.999
c0 85.333 -14.5 159.833 -43.5 223.5s-71.333 113.167 -127 148.5s-118.167 53 -187.5 53c-98 0 -182.5 -33.833 -253.5 -101.5s-106.5 -180.5 -106.5 -338.5zM570.998 1236l-81 -122h-147l155 200h137l161 -200h-146z" />
    <glyph glyph-name="Otilde" unicode="&#xd5;" horiz-adv-x="1141" 
d="M71 511c0 174.667 46.832 311.166 140.499 409.499s214.5 147.5 362.5 147.5c96.667 0 183.834 -23.167 261.501 -69.5s137 -110.833 178 -193.5s61.5 -176.667 61.5 -282c0 -106 -21.5 -201 -64.5 -285s-103.833 -147.667 -182.5 -191s-163.667 -65 -255 -65
c-98.667 0 -187 23.833 -265 71.5s-137 112.834 -177 195.501s-60 170 -60 262zM213.999 508.999c0 -126.667 33.999 -226.332 101.999 -298.999s153.333 -109 256 -109c104.667 0 190.834 36.667 258.501 110s101.5 177.666 101.5 312.999
c0 85.333 -14.5 159.833 -43.5 223.5s-71.333 113.167 -127 148.5s-118.167 53 -187.5 53c-98 0 -182.5 -33.833 -253.5 -101.5s-106.5 -180.5 -106.5 -338.5zM333.998 1114c0 49.333 13.666 89 40.999 119c27.333 29.333 62 44 104 44c30 0 70.333 -13 121 -39
c28.667 -14 51.334 -21 68.001 -21c15.333 0 27 4.16699 35 12.5s13.667 24.833 17 49.5h93c-1.33301 -54 -15 -94.667 -41 -122s-59 -41 -99 -41c-30 0 -69.667 13.333 -119 40c-32 17.333 -55.333 26 -70 26c-16.667 0 -30 -5.66699 -40 -17c-10 -12 -15 -29 -15 -51h-95z
" />
    <glyph glyph-name="Odieresis" unicode="&#xd6;" horiz-adv-x="1141" 
d="M71 511c0 174.667 46.832 311.166 140.499 409.499s214.5 147.5 362.5 147.5c96.667 0 183.834 -23.167 261.501 -69.5s137 -110.833 178 -193.5s61.5 -176.667 61.5 -282c0 -106 -21.5 -201 -64.5 -285s-103.833 -147.667 -182.5 -191s-163.667 -65 -255 -65
c-98.667 0 -187 23.833 -265 71.5s-137 112.834 -177 195.501s-60 170 -60 262zM213.999 508.999c0 -126.667 33.999 -226.332 101.999 -298.999s153.333 -109 256 -109c104.667 0 190.834 36.667 258.501 110s101.5 177.666 101.5 312.999
c0 85.333 -14.5 159.833 -43.5 223.5s-71.333 113.167 -127 148.5s-118.167 53 -187.5 53c-98 0 -182.5 -33.833 -253.5 -101.5s-106.5 -180.5 -106.5 -338.5zM369.998 1114v147h134v-147h-134zM636.998 1114v147h134v-147h-134z" />
    <glyph glyph-name="multiply" unicode="&#xd7;" horiz-adv-x="856" 
d="M115 293l226 225l-225 225l87 88l225 -225l224 224l86 -87l-223 -224l225 -225l-88 -87l-225 225l-225 -226z" />
    <glyph glyph-name="Oslash" unicode="&#xd8;" horiz-adv-x="1141" 
d="M895 954l120 134.002l71 -60l-126 -142c41.333 -60.667 69 -114 83 -160c19.333 -60 29 -127.333 29 -202c0 -107.333 -21.667 -203 -65 -287s-104.333 -147.5 -183 -190.5s-162 -64.5 -250 -64.5c-66 0 -125.667 9.33301 -179 28c-41.333 14.667 -89.333 42 -144 82
l-121 -134l-71 60l126 141c-46.667 71.333 -77.834 132.166 -93.501 182.499s-23.5 110.833 -23.5 181.5c0 107.333 21.5 203.166 64.5 287.499s103.333 148.333 181 192s163.834 65.5 258.501 65.5c64 0 120 -8.5 168 -25.5s99.667 -46.5 155 -88.5zM809 857.002
c-44.667 35.333 -83.833 59.499 -117.5 72.499s-73.167 19.5 -118.5 19.5c-104.667 0 -191.167 -35.5 -259.5 -106.5s-102.5 -176.833 -102.5 -317.5c0 -55.333 5.33301 -104.666 16 -147.999c7.33301 -32 23.333 -71.333 48 -118zM868.001 783.001l-532.001 -594.999
c36.667 -30.667 70.334 -51.667 101.001 -63c40.667 -16 84.667 -24 132 -24c104 0 190 36.667 258 110s102 176.666 102 309.999c0 98.667 -20.333 186 -61 262z" />
    <glyph glyph-name="Ugrave" unicode="&#xd9;" horiz-adv-x="1059" 
d="M802 1050h139.003v-607c0 -105.333 -12 -189 -36 -251s-67.167 -112.5 -129.5 -151.5s-143.833 -58.5 -244.5 -58.5c-98.667 0 -179.334 17 -242.001 51s-107.334 83 -134.001 147s-40 151.667 -40 263v607h139v-606c0 -91.333 8.5 -158.5 25.5 -201.5
s46.167 -76.333 87.5 -100s91.666 -35.5 150.999 -35.5c102.667 0 175.667 23.167 219 69.5s65 135.5 65 267.5v606zM612.003 1114h-104l-165 200h172z" />
    <glyph glyph-name="Uacute" unicode="&#xda;" horiz-adv-x="1059" 
d="M802 1050h139.003v-607c0 -105.333 -12 -189 -36 -251s-67.167 -112.5 -129.5 -151.5s-143.833 -58.5 -244.5 -58.5c-98.667 0 -179.334 17 -242.001 51s-107.334 83 -134.001 147s-40 151.667 -40 263v607h139v-606c0 -91.333 8.5 -158.5 25.5 -201.5
s46.167 -76.333 87.5 -100s91.666 -35.5 150.999 -35.5c102.667 0 175.667 23.167 219 69.5s65 135.5 65 267.5v606zM440.003 1114l95 200h169l-157 -200h-107z" />
    <glyph glyph-name="Ucircumflex" unicode="&#xdb;" horiz-adv-x="1059" 
d="M802 1050h139.003v-607c0 -105.333 -12 -189 -36 -251s-67.167 -112.5 -129.5 -151.5s-143.833 -58.5 -244.5 -58.5c-98.667 0 -179.334 17 -242.001 51s-107.334 83 -134.001 147s-40 151.667 -40 263v607h139v-606c0 -91.333 8.5 -158.5 25.5 -201.5
s46.167 -76.333 87.5 -100s91.666 -35.5 150.999 -35.5c102.667 0 175.667 23.167 219 69.5s65 135.5 65 267.5v606zM527.003 1236l-81 -122h-147l155 200h137l161 -200h-146z" />
    <glyph glyph-name="Udieresis" unicode="&#xdc;" horiz-adv-x="1059" 
d="M802 1050h139.003v-607c0 -105.333 -12 -189 -36 -251s-67.167 -112.5 -129.5 -151.5s-143.833 -58.5 -244.5 -58.5c-98.667 0 -179.334 17 -242.001 51s-107.334 83 -134.001 147s-40 151.667 -40 263v607h139v-606c0 -91.333 8.5 -158.5 25.5 -201.5
s46.167 -76.333 87.5 -100s91.666 -35.5 150.999 -35.5c102.667 0 175.667 23.167 219 69.5s65 135.5 65 267.5v606zM325.003 1114v147h134v-147h-134zM592.003 1114v147h134v-147h-134z" />
    <glyph glyph-name="Yacute" unicode="&#xdd;" horiz-adv-x="978" 
d="M409 0v444.999l-405 605h169l207 -317c38 -59.333 73.667 -118.333 107 -177c31.333 54.667 69.333 116.334 114 185.001l204 309h162l-419 -605v-445h-139zM397 1114l95 200h169l-157 -200h-107z" />
    <glyph glyph-name="Thorn" unicode="&#xde;" horiz-adv-x="978" 
d="M113 0l0.000976562 1050h139v-214h257c70 0 123.333 -3.33301 160 -10c52 -8.66699 95.333 -25.167 130 -49.5s62.5 -58.166 83.5 -101.499s31.5 -91 31.5 -143c0 -88.667 -28.333 -164 -85 -226s-159.334 -93 -308.001 -93h-269v-213h-139zM252.001 336.999
l270.999 0.000976562c90 0 153.833 16.667 191.5 50s56.5 80.333 56.5 141c0 43.333 -11 80.666 -33 111.999s-51 52 -87 62c-23.333 6.66699 -66.666 10 -129.999 10h-269v-375z" />
    <glyph glyph-name="germandbls" unicode="&#xdf;" horiz-adv-x="896" 
d="M110 0v715c0 87.333 10.5 154.5 31.5 201.5s56.333 84 106 111s105.5 40.5 167.5 40.5c82.667 0 147.667 -20.667 195 -62s71 -89.333 71 -144c0 -24 -4.33301 -49 -13 -75s-24 -58.167 -46 -96.5s-35.833 -65 -41.5 -80s-8.5 -28.167 -8.5 -39.5
c0 -15.333 5.33301 -30.333 16 -45c10 -15.333 38.667 -38.666 86 -69.999c65.333 -42.667 108.666 -76.667 129.999 -102c30.667 -36.667 46 -80.334 46 -131.001c0 -66 -24.5 -122.667 -73.5 -170s-111.5 -71 -187.5 -71c-60.667 0 -113.667 16.167 -159 48.5
s-79 73.833 -101 124.5l111 51c23.333 -44 47 -74.667 71 -92s49 -26 75 -26c36.667 0 67.834 12.5 93.501 37.5s38.5 54.167 38.5 87.5c0 26.667 -7.66699 49.334 -23 68.001c-10 12.667 -36.667 33.667 -80 63c-79.333 54.667 -128.333 95.667 -147 123s-28 55.333 -28 84
c0 18.667 3.16699 37.5 9.5 56.5s21.833 49.5 46.5 91.5s40.834 73.5 48.501 94.5s11.5 39.5 11.5 55.5c0 30 -13 56.333 -39 79s-61 34 -105 34c-50.667 0 -92.334 -15.833 -125.001 -47.5s-49 -99.834 -49 -204.501v-710h-128z" />
    <glyph glyph-name="agrave" unicode="&#xe0;" 
d="M593 94c-48 -40.667 -93.9951 -69.335 -137.995 -86.002s-91.333 -25 -142 -25c-83.333 0 -147.5 20.333 -192.5 61s-67.5 92.667 -67.5 156c0 37.333 8.5 71.5 25.5 102.5s39.167 55.833 66.5 74.5s58.333 32.667 93 42c25.333 6.66699 63.333 13 114 19
c104 12.667 180.667 27.667 230 45c0.666992 17.333 1 28.333 1 33c0 52.667 -12.333 89.667 -37 111c-32.667 29.333 -81.334 44 -146.001 44c-60.667 0 -105.5 -10.667 -134.5 -32s-50.5 -59 -64.5 -113l-126 17c11.333 54 30.166 97.667 56.499 131s64.333 59 114 77
s107.167 27 172.5 27s118.166 -7.66699 158.499 -23s70.166 -34.666 89.499 -57.999s32.666 -52.666 39.999 -87.999c4 -22 6 -61.667 6 -119v-171c0 -120 2.83301 -195.833 8.5 -227.5s16.5 -62.167 32.5 -91.5h-134c-13.333 26.667 -22 58 -26 94zM582.005 381.999
c-46.667 -19.333 -116.667 -35.668 -210 -49.001c-53.333 -8 -91 -16.667 -113 -26s-39 -23.166 -51 -41.499s-18 -38.833 -18 -61.5c0 -34 13.167 -62.5 39.5 -85.5s64.5 -34.5 114.5 -34.5c49.333 0 93.333 10.833 132 32.5s67 51.167 85 88.5c14 29.333 21 72.333 21 129
v48zM512.005 854.997h-104l-165 200h172z" />
    <glyph glyph-name="aacute" unicode="&#xe1;" 
d="M593 94c-48 -40.667 -93.9951 -69.335 -137.995 -86.002s-91.333 -25 -142 -25c-83.333 0 -147.5 20.333 -192.5 61s-67.5 92.667 -67.5 156c0 37.333 8.5 71.5 25.5 102.5s39.167 55.833 66.5 74.5s58.333 32.667 93 42c25.333 6.66699 63.333 13 114 19
c104 12.667 180.667 27.667 230 45c0.666992 17.333 1 28.333 1 33c0 52.667 -12.333 89.667 -37 111c-32.667 29.333 -81.334 44 -146.001 44c-60.667 0 -105.5 -10.667 -134.5 -32s-50.5 -59 -64.5 -113l-126 17c11.333 54 30.166 97.667 56.499 131s64.333 59 114 77
s107.167 27 172.5 27s118.166 -7.66699 158.499 -23s70.166 -34.666 89.499 -57.999s32.666 -52.666 39.999 -87.999c4 -22 6 -61.667 6 -119v-171c0 -120 2.83301 -195.833 8.5 -227.5s16.5 -62.167 32.5 -91.5h-134c-13.333 26.667 -22 58 -26 94zM582.005 381.999
c-46.667 -19.333 -116.667 -35.668 -210 -49.001c-53.333 -8 -91 -16.667 -113 -26s-39 -23.166 -51 -41.499s-18 -38.833 -18 -61.5c0 -34 13.167 -62.5 39.5 -85.5s64.5 -34.5 114.5 -34.5c49.333 0 93.333 10.833 132 32.5s67 51.167 85 88.5c14 29.333 21 72.333 21 129
v48zM332.005 854.997l95 200h169l-157 -200h-107z" />
    <glyph glyph-name="acircumflex" unicode="&#xe2;" 
d="M593 94c-48 -40.667 -93.9951 -69.335 -137.995 -86.002s-91.333 -25 -142 -25c-83.333 0 -147.5 20.333 -192.5 61s-67.5 92.667 -67.5 156c0 37.333 8.5 71.5 25.5 102.5s39.167 55.833 66.5 74.5s58.333 32.667 93 42c25.333 6.66699 63.333 13 114 19
c104 12.667 180.667 27.667 230 45c0.666992 17.333 1 28.333 1 33c0 52.667 -12.333 89.667 -37 111c-32.667 29.333 -81.334 44 -146.001 44c-60.667 0 -105.5 -10.667 -134.5 -32s-50.5 -59 -64.5 -113l-126 17c11.333 54 30.166 97.667 56.499 131s64.333 59 114 77
s107.167 27 172.5 27s118.166 -7.66699 158.499 -23s70.166 -34.666 89.499 -57.999s32.666 -52.666 39.999 -87.999c4 -22 6 -61.667 6 -119v-171c0 -120 2.83301 -195.833 8.5 -227.5s16.5 -62.167 32.5 -91.5h-134c-13.333 26.667 -22 58 -26 94zM582.005 381.999
c-46.667 -19.333 -116.667 -35.668 -210 -49.001c-53.333 -8 -91 -16.667 -113 -26s-39 -23.166 -51 -41.499s-18 -38.833 -18 -61.5c0 -34 13.167 -62.5 39.5 -85.5s64.5 -34.5 114.5 -34.5c49.333 0 93.333 10.833 132 32.5s67 51.167 85 88.5c14 29.333 21 72.333 21 129
v48zM405.005 976.997l-81 -122h-147l155 200h137l161 -200h-146z" />
    <glyph glyph-name="atilde" unicode="&#xe3;" 
d="M593 94c-48 -40.667 -93.9951 -69.335 -137.995 -86.002s-91.333 -25 -142 -25c-83.333 0 -147.5 20.333 -192.5 61s-67.5 92.667 -67.5 156c0 37.333 8.5 71.5 25.5 102.5s39.167 55.833 66.5 74.5s58.333 32.667 93 42c25.333 6.66699 63.333 13 114 19
c104 12.667 180.667 27.667 230 45c0.666992 17.333 1 28.333 1 33c0 52.667 -12.333 89.667 -37 111c-32.667 29.333 -81.334 44 -146.001 44c-60.667 0 -105.5 -10.667 -134.5 -32s-50.5 -59 -64.5 -113l-126 17c11.333 54 30.166 97.667 56.499 131s64.333 59 114 77
s107.167 27 172.5 27s118.166 -7.66699 158.499 -23s70.166 -34.666 89.499 -57.999s32.666 -52.666 39.999 -87.999c4 -22 6 -61.667 6 -119v-171c0 -120 2.83301 -195.833 8.5 -227.5s16.5 -62.167 32.5 -91.5h-134c-13.333 26.667 -22 58 -26 94zM582.005 381.999
c-46.667 -19.333 -116.667 -35.668 -210 -49.001c-53.333 -8 -91 -16.667 -113 -26s-39 -23.166 -51 -41.499s-18 -38.833 -18 -61.5c0 -34 13.167 -62.5 39.5 -85.5s64.5 -34.5 114.5 -34.5c49.333 0 93.333 10.833 132 32.5s67 51.167 85 88.5c14 29.333 21 72.333 21 129
v48zM164.005 872.997c0 49.333 13.666 89 40.999 119c27.333 29.333 62 44 104 44c30 0 70.333 -13 121 -39c28.667 -14 51.334 -21 68.001 -21c15.333 0 27 4.16699 35 12.5s13.667 24.833 17 49.5h93c-1.33301 -54 -15 -94.667 -41 -122s-59 -41 -99 -41
c-30 0 -69.667 13.333 -119 40c-32 17.333 -55.333 26 -70 26c-16.667 0 -30 -5.66699 -40 -17c-10 -12 -15 -29 -15 -51h-95z" />
    <glyph glyph-name="adieresis" unicode="&#xe4;" 
d="M593 94c-48 -40.667 -93.9951 -69.335 -137.995 -86.002s-91.333 -25 -142 -25c-83.333 0 -147.5 20.333 -192.5 61s-67.5 92.667 -67.5 156c0 37.333 8.5 71.5 25.5 102.5s39.167 55.833 66.5 74.5s58.333 32.667 93 42c25.333 6.66699 63.333 13 114 19
c104 12.667 180.667 27.667 230 45c0.666992 17.333 1 28.333 1 33c0 52.667 -12.333 89.667 -37 111c-32.667 29.333 -81.334 44 -146.001 44c-60.667 0 -105.5 -10.667 -134.5 -32s-50.5 -59 -64.5 -113l-126 17c11.333 54 30.166 97.667 56.499 131s64.333 59 114 77
s107.167 27 172.5 27s118.166 -7.66699 158.499 -23s70.166 -34.666 89.499 -57.999s32.666 -52.666 39.999 -87.999c4 -22 6 -61.667 6 -119v-171c0 -120 2.83301 -195.833 8.5 -227.5s16.5 -62.167 32.5 -91.5h-134c-13.333 26.667 -22 58 -26 94zM582.005 381.999
c-46.667 -19.333 -116.667 -35.668 -210 -49.001c-53.333 -8 -91 -16.667 -113 -26s-39 -23.166 -51 -41.499s-18 -38.833 -18 -61.5c0 -34 13.167 -62.5 39.5 -85.5s64.5 -34.5 114.5 -34.5c49.333 0 93.333 10.833 132 32.5s67 51.167 85 88.5c14 29.333 21 72.333 21 129
v48zM203.005 908.997v147h134v-147h-134zM470.005 908.997v147h134v-147h-134z" />
    <glyph glyph-name="aring" unicode="&#xe5;" 
d="M593 94c-48 -40.667 -93.9951 -69.335 -137.995 -86.002s-91.333 -25 -142 -25c-83.333 0 -147.5 20.333 -192.5 61s-67.5 92.667 -67.5 156c0 37.333 8.5 71.5 25.5 102.5s39.167 55.833 66.5 74.5s58.333 32.667 93 42c25.333 6.66699 63.333 13 114 19
c104 12.667 180.667 27.667 230 45c0.666992 17.333 1 28.333 1 33c0 52.667 -12.333 89.667 -37 111c-32.667 29.333 -81.334 44 -146.001 44c-60.667 0 -105.5 -10.667 -134.5 -32s-50.5 -59 -64.5 -113l-126 17c11.333 54 30.166 97.667 56.499 131s64.333 59 114 77
s107.167 27 172.5 27s118.166 -7.66699 158.499 -23s70.166 -34.666 89.499 -57.999s32.666 -52.666 39.999 -87.999c4 -22 6 -61.667 6 -119v-171c0 -120 2.83301 -195.833 8.5 -227.5s16.5 -62.167 32.5 -91.5h-134c-13.333 26.667 -22 58 -26 94zM582.005 381.999
c-46.667 -19.333 -116.667 -35.668 -210 -49.001c-53.333 -8 -91 -16.667 -113 -26s-39 -23.166 -51 -41.499s-18 -38.833 -18 -61.5c0 -34 13.167 -62.5 39.5 -85.5s64.5 -34.5 114.5 -34.5c49.333 0 93.333 10.833 132 32.5s67 51.167 85 88.5c14 29.333 21 72.333 21 129
v48zM274.005 957.997c0 34.667 12.833 64.667 38.5 90s55.834 38 90.501 38c35.333 0 65.666 -12.667 90.999 -38s38 -56.333 38 -93s-12.667 -67.667 -38 -93s-55.333 -38 -90 -38c-36 0 -66.667 12.833 -92 38.5s-38 57.5 -38 95.5zM328.005 955.997
c0 -21.333 7.66699 -39.666 23 -54.999s33 -23.333 53 -24c20.667 0.666992 38.5 8.66699 53.5 24s22.5 33.333 22.5 54c0 22 -7.33301 40.667 -22 56s-32.667 22.666 -54 21.999c-20 0.666992 -37.667 -6.5 -53 -21.5s-23 -33.5 -23 -55.5z" />
    <glyph glyph-name="ae" unicode="&#xe6;" horiz-adv-x="1304" 
d="M1242 233c-24 -80 -64.667 -141.667 -122 -185s-128.666 -65 -213.999 -65c-60 0 -112.833 11.5 -158.5 34.5s-86.834 58.833 -123.501 107.5c-50 -48.667 -100.333 -84.5 -151 -107.5s-105.334 -34.5 -164.001 -34.5c-82.667 0 -146.667 21.167 -192 63.5
s-68 93.5 -68 153.5c0 41.333 11.833 80 35.5 116s56.5 63.333 98.5 82s109.333 34 202 46c72 9.33301 132.333 21 181 35v29c0 60.667 -12.5 103 -37.5 127s-68.833 36 -131.5 36c-41.333 0 -76.333 -5 -105 -15s-49.834 -24.167 -63.501 -42.5
s-24.834 -47.833 -33.501 -88.5l-126 15c14 56 33.5 100.333 58.5 133s60.833 58.334 107.5 77.001s101.334 28 164.001 28c79.333 0 143.333 -12 192 -36c28.667 -14 52.334 -36.333 71.001 -67c30.667 33.333 65.334 58.833 104.001 76.5s85.334 26.5 140.001 26.5
c77.333 0 141.333 -18.833 192 -56.5s87.667 -87.334 111 -149.001s35 -122.167 35 -181.5c0 -9.33301 -0.333008 -24 -1 -44h-549c0.666992 -68.667 9 -118.5 25 -149.5s41.5 -56.833 76.5 -77.5s73.5 -31 115.5 -31c49.333 0 91.166 14 125.499 42s57.833 67.667 70.5 119
zM694 453h418c-6.66699 75.333 -28.167 130.5 -64.5 165.5s-83.5 52.5 -141.5 52.5c-60 0 -109.333 -19.167 -148 -57.5s-60 -91.833 -64 -160.5zM568 382c-38 -16.667 -115.002 -34.334 -231.002 -53.001c-52 -8 -88.333 -20 -109 -36c-28.667 -22.667 -43 -52 -43 -88
c0 -34 12.667 -62.667 38 -86s62.333 -35 111 -35c54.667 0 102.334 13.667 143.001 41s67.334 61.333 80.001 102c7.33301 24.667 11 76.334 11 155.001z" />
    <glyph glyph-name="ccedilla" unicode="&#xe7;" horiz-adv-x="733" 
d="M593 279l126.998 -17c-14 -87.333 -49.5 -155.666 -106.5 -204.999s-127.167 -74 -210.5 -74c-104 0 -187.667 34 -251 102s-95 165.333 -95 292c0 82 13.667 153.833 41 215.5s68.833 108 124.5 139s116.167 46.5 181.5 46.5c82.667 0 150.167 -21 202.5 -63
s85.833 -101.333 100.5 -178l-125 -19c-12 50.667 -33.167 89 -63.5 115s-66.833 39 -109.5 39c-65.333 0 -118.166 -23.333 -158.499 -70s-60.5 -120.334 -60.5 -221.001c0 -102 19.5 -176.167 58.5 -222.5s90.167 -69.5 153.5 -69.5c50.667 0 92.834 15.5 126.501 46.5
s55.167 78.833 64.5 143.5zM294.998 -96l36.9961 125.997h96l-24 -76c40.667 -4.66699 71.334 -17.167 92.001 -37.5s31 -42.833 31 -67.5c0 -36 -17.167 -67.667 -51.5 -95s-86.166 -41 -155.499 -41c-39.333 0 -73.666 2.66699 -102.999 8l7 84
c30.667 -2 53.334 -3 68.001 -3c44.667 0 76 6.33301 94 19c14 9.33301 21 21 21 35c0 8.66699 -2.66699 16.334 -8 23.001s-15.5 12.334 -30.5 17.001s-39.5 7.33398 -73.5 8.00098z" />
    <glyph glyph-name="egrave" unicode="&#xe8;" 
d="M617 245l133.002 -17.0029c-20.667 -77.333 -59.5 -137.5 -116.5 -180.5s-129.5 -64.5 -217.5 -64.5c-111.333 0 -199.5 34.167 -264.5 102.5s-97.5 164.5 -97.5 288.5c0 128 32.833 227.333 98.5 298s151.167 106 256.5 106c101.333 0 184.333 -34.667 249 -104
s97 -166.666 97 -291.999c0 -8 -0.333008 -19.667 -1 -35h-567c4.66699 -83.333 28.167 -147.166 70.5 -191.499s95.5 -66.5 159.5 -66.5c47.333 0 87.666 12.333 120.999 37s59.666 64.334 78.999 119.001zM194.002 452.997l424.998 0.000976562c-6 64 -22.333 112 -49 144
c-41.333 50 -94.666 75 -159.999 75c-59.333 0 -109.166 -19.833 -149.499 -59.5s-62.5 -92.834 -66.5 -159.501zM491 854.998h-104l-165 200h172z" />
    <glyph glyph-name="eacute" unicode="&#xe9;" 
d="M617 245l133.002 -17.0029c-20.667 -77.333 -59.5 -137.5 -116.5 -180.5s-129.5 -64.5 -217.5 -64.5c-111.333 0 -199.5 34.167 -264.5 102.5s-97.5 164.5 -97.5 288.5c0 128 32.833 227.333 98.5 298s151.167 106 256.5 106c101.333 0 184.333 -34.667 249 -104
s97 -166.666 97 -291.999c0 -8 -0.333008 -19.667 -1 -35h-567c4.66699 -83.333 28.167 -147.166 70.5 -191.499s95.5 -66.5 159.5 -66.5c47.333 0 87.666 12.333 120.999 37s59.666 64.334 78.999 119.001zM194.002 452.997l424.998 0.000976562c-6 64 -22.333 112 -49 144
c-41.333 50 -94.666 75 -159.999 75c-59.333 0 -109.166 -19.833 -149.499 -59.5s-62.5 -92.834 -66.5 -159.501zM333 854.998l95 200h169l-157 -200h-107z" />
    <glyph glyph-name="ecircumflex" unicode="&#xea;" 
d="M617 245l133.002 -17.0029c-20.667 -77.333 -59.5 -137.5 -116.5 -180.5s-129.5 -64.5 -217.5 -64.5c-111.333 0 -199.5 34.167 -264.5 102.5s-97.5 164.5 -97.5 288.5c0 128 32.833 227.333 98.5 298s151.167 106 256.5 106c101.333 0 184.333 -34.667 249 -104
s97 -166.666 97 -291.999c0 -8 -0.333008 -19.667 -1 -35h-567c4.66699 -83.333 28.167 -147.166 70.5 -191.499s95.5 -66.5 159.5 -66.5c47.333 0 87.666 12.333 120.999 37s59.666 64.334 78.999 119.001zM194.002 452.997l424.998 0.000976562c-6 64 -22.333 112 -49 144
c-41.333 50 -94.666 75 -159.999 75c-59.333 0 -109.166 -19.833 -149.499 -59.5s-62.5 -92.834 -66.5 -159.501zM406 976.998l-81 -122h-147l155 200h137l161 -200h-146z" />
    <glyph glyph-name="edieresis" unicode="&#xeb;" 
d="M617 245l133.002 -17.0029c-20.667 -77.333 -59.5 -137.5 -116.5 -180.5s-129.5 -64.5 -217.5 -64.5c-111.333 0 -199.5 34.167 -264.5 102.5s-97.5 164.5 -97.5 288.5c0 128 32.833 227.333 98.5 298s151.167 106 256.5 106c101.333 0 184.333 -34.667 249 -104
s97 -166.666 97 -291.999c0 -8 -0.333008 -19.667 -1 -35h-567c4.66699 -83.333 28.167 -147.166 70.5 -191.499s95.5 -66.5 159.5 -66.5c47.333 0 87.666 12.333 120.999 37s59.666 64.334 78.999 119.001zM194.002 452.997l424.998 0.000976562c-6 64 -22.333 112 -49 144
c-41.333 50 -94.666 75 -159.999 75c-59.333 0 -109.166 -19.833 -149.499 -59.5s-62.5 -92.834 -66.5 -159.501zM204 908.998v147h134v-147h-134zM471 908.998v147h134v-147h-134z" />
    <glyph glyph-name="igrave" unicode="&#xec;" horiz-adv-x="407" 
d="M142 0v760h129v-760h-129zM295 855h-104l-165 200h172z" />
    <glyph glyph-name="iacute" unicode="&#xed;" horiz-adv-x="407" 
d="M142 0v760h129v-760h-129zM136 855l95 200h169l-157 -200h-107z" />
    <glyph glyph-name="icircumflex" unicode="&#xee;" horiz-adv-x="407" 
d="M142 0v760h129v-760h-129zM217 977l-81 -122h-147l155 200h137l161 -200h-146z" />
    <glyph glyph-name="idieresis" unicode="&#xef;" horiz-adv-x="407" 
d="M142 0v760h129v-760h-129zM8 909v147h134v-147h-134zM275 909v147h134v-147h-134z" />
    <glyph glyph-name="eth" unicode="&#xf0;" 
d="M221 1050l154.999 -0.000976562c34 -26 63.667 -50.333 89 -73l154 73l32 -73l-123 -60c152.667 -175.333 229 -356.666 229 -543.999c0 -120.667 -33.167 -216 -99.5 -286s-150.833 -105 -253.5 -105c-122 0 -217 46.333 -285 139c-44.667 60.667 -67 143.667 -67 249
c0 124.667 30.833 220.834 92.5 288.501s138.834 101.5 231.501 101.5c27.333 0 51.5 -2.83301 72.5 -8.5s47.5 -16.834 79.5 -33.501c-17.333 34.667 -32.5 61.667 -45.5 81s-31.833 43.333 -56.5 72l-197 -91l-31 73l171 79c-46.667 42.667 -96 82 -148 118z
M622.999 378.999c0 91.333 -21.668 161.333 -65.001 210s-96.333 73 -159 73c-62 0 -113.333 -24.333 -154 -73s-61 -122.667 -61 -222c0 -92.667 20.833 -162.5 62.5 -209.5s93.834 -70.5 156.501 -70.5c61.333 0 113.333 24.833 156 74.5s64 122.167 64 217.5z" />
    <glyph glyph-name="ntilde" unicode="&#xf1;" 
d="M97 0l0.00195312 760.002h116v-108c55.333 84 136 126 242 126c45.333 0 87.333 -8.33301 126 -25s67.5 -38.334 86.5 -65.001s32.167 -58.334 39.5 -95.001c5.33301 -24 8 -65.667 8 -125v-468h-129v463c0 52 -5 91 -15 117s-27.833 46.833 -53.5 62.5
s-55.834 23.5 -90.501 23.5c-54.667 0 -101.834 -17.5 -141.501 -52.5s-59.5 -101.167 -59.5 -198.5v-415h-129zM188.002 873.002c0 49.333 13.666 89 40.999 119c27.333 29.333 62 44 104 44c30 0 70.333 -13 121 -39c28.667 -14 51.334 -21 68.001 -21
c15.333 0 27 4.16699 35 12.5s13.667 24.833 17 49.5h93c-1.33301 -54 -15 -94.667 -41 -122s-59 -41 -99 -41c-30 0 -69.667 13.333 -119 40c-32 17.333 -55.333 26 -70 26c-16.667 0 -30 -5.66699 -40 -17c-10 -12 -15 -29 -15 -51h-95z" />
    <glyph glyph-name="ograve" unicode="&#xf2;" 
d="M49 380c0 140.667 39 245.001 117 313.001c65.333 56.667 145 85 239 85c104.667 0 190.167 -34.333 256.5 -103s99.5 -163.334 99.5 -284.001c0 -98 -14.667 -175 -44 -231s-72 -99.5 -128 -130.5s-117.333 -46.5 -184 -46.5c-106 0 -191.833 34.167 -257.5 102.5
s-98.5 166.5 -98.5 294.5zM181 380.001c0 -97.333 21.333 -170.168 64 -218.501s96 -72.5 160 -72.5s117.333 24.333 160 73s64 122.667 64 222c0 94.667 -21.5 166.167 -64.5 214.5s-96.167 72.5 -159.5 72.5c-64 0 -117.333 -24.167 -160 -72.5s-64 -121.166 -64 -218.499
zM492 854.999h-104l-165 200h172z" />
    <glyph glyph-name="oacute" unicode="&#xf3;" 
d="M49 380c0 140.667 39 245.001 117 313.001c65.333 56.667 145 85 239 85c104.667 0 190.167 -34.333 256.5 -103s99.5 -163.334 99.5 -284.001c0 -98 -14.667 -175 -44 -231s-72 -99.5 -128 -130.5s-117.333 -46.5 -184 -46.5c-106 0 -191.833 34.167 -257.5 102.5
s-98.5 166.5 -98.5 294.5zM181 380.001c0 -97.333 21.333 -170.168 64 -218.501s96 -72.5 160 -72.5s117.333 24.333 160 73s64 122.667 64 222c0 94.667 -21.5 166.167 -64.5 214.5s-96.167 72.5 -159.5 72.5c-64 0 -117.333 -24.167 -160 -72.5s-64 -121.166 -64 -218.499
zM334 854.999l95 200h169l-157 -200h-107z" />
    <glyph glyph-name="ocircumflex" unicode="&#xf4;" 
d="M49 380c0 140.667 39 245.001 117 313.001c65.333 56.667 145 85 239 85c104.667 0 190.167 -34.333 256.5 -103s99.5 -163.334 99.5 -284.001c0 -98 -14.667 -175 -44 -231s-72 -99.5 -128 -130.5s-117.333 -46.5 -184 -46.5c-106 0 -191.833 34.167 -257.5 102.5
s-98.5 166.5 -98.5 294.5zM181 380.001c0 -97.333 21.333 -170.168 64 -218.501s96 -72.5 160 -72.5s117.333 24.333 160 73s64 122.667 64 222c0 94.667 -21.5 166.167 -64.5 214.5s-96.167 72.5 -159.5 72.5c-64 0 -117.333 -24.167 -160 -72.5s-64 -121.166 -64 -218.499
zM406 976.999l-81 -122h-147l155 200h137l161 -200h-146z" />
    <glyph glyph-name="otilde" unicode="&#xf5;" 
d="M49 380c0 140.667 39 245.001 117 313.001c65.333 56.667 145 85 239 85c104.667 0 190.167 -34.333 256.5 -103s99.5 -163.334 99.5 -284.001c0 -98 -14.667 -175 -44 -231s-72 -99.5 -128 -130.5s-117.333 -46.5 -184 -46.5c-106 0 -191.833 34.167 -257.5 102.5
s-98.5 166.5 -98.5 294.5zM181 380.001c0 -97.333 21.333 -170.168 64 -218.501s96 -72.5 160 -72.5s117.333 24.333 160 73s64 122.667 64 222c0 94.667 -21.5 166.167 -64.5 214.5s-96.167 72.5 -159.5 72.5c-64 0 -117.333 -24.167 -160 -72.5s-64 -121.166 -64 -218.499
zM165 872.999c0 49.333 13.666 89 40.999 119c27.333 29.333 62 44 104 44c30 0 70.333 -13 121 -39c28.667 -14 51.334 -21 68.001 -21c15.333 0 27 4.16699 35 12.5s13.667 24.833 17 49.5h93c-1.33301 -54 -15 -94.667 -41 -122s-59 -41 -99 -41
c-30 0 -69.667 13.333 -119 40c-32 17.333 -55.333 26 -70 26c-16.667 0 -30 -5.66699 -40 -17c-10 -12 -15 -29 -15 -51h-95z" />
    <glyph glyph-name="odieresis" unicode="&#xf6;" 
d="M49 380c0 140.667 39 245.001 117 313.001c65.333 56.667 145 85 239 85c104.667 0 190.167 -34.333 256.5 -103s99.5 -163.334 99.5 -284.001c0 -98 -14.667 -175 -44 -231s-72 -99.5 -128 -130.5s-117.333 -46.5 -184 -46.5c-106 0 -191.833 34.167 -257.5 102.5
s-98.5 166.5 -98.5 294.5zM181 380.001c0 -97.333 21.333 -170.168 64 -218.501s96 -72.5 160 -72.5s117.333 24.333 160 73s64 122.667 64 222c0 94.667 -21.5 166.167 -64.5 214.5s-96.167 72.5 -159.5 72.5c-64 0 -117.333 -24.167 -160 -72.5s-64 -121.166 -64 -218.499
zM204 908.999v147h134v-147h-134zM471 908.999v147h134v-147h-134z" />
    <glyph glyph-name="divide" unicode="&#xf7;" horiz-adv-x="805" 
d="M329 660v147h146v-147h-146zM749 458h-693v120h693v-120zM329 228v147h146v-147h-146z" />
    <glyph glyph-name="oslash" unicode="&#xf8;" horiz-adv-x="896" 
d="M658 715l71 91.998l69 -50l-77 -99c30 -41.333 50.667 -78.666 62 -111.999c14.667 -47.333 22 -103 22 -167c0 -142.667 -40.333 -247.667 -121 -315c-65.333 -54 -144 -81 -236 -81c-76 0 -143.333 19 -202 57l-75 -97l-67 51l77 101c-28 32.667 -48 65.334 -60 98.001
c-19.333 52 -29 110.667 -29 176c0 144 35.167 248.167 105.5 312.5s152.833 96.5 247.5 96.5c38.667 0 74.5 -5 107.5 -15s68.167 -26 105.5 -48zM586 620.998c-43.333 33.333 -89 50.001 -137 50.001c-63.333 0 -116.5 -24.333 -159.5 -73s-64.5 -121.334 -64.5 -218.001
c0 -71.333 12.333 -131.333 37 -180zM639 550.999l-321.001 -417c37.333 -30 79.333 -45 126 -45c66 0 120.667 24.333 164 73s65 121.667 65 219c0 36 -3 67.667 -9 95c-3.33301 20 -11.666 45 -24.999 75z" />
    <glyph glyph-name="ugrave" unicode="&#xf9;" 
d="M595 0l-0.000976562 111.999c-59.333 -86 -139.666 -129 -240.999 -129c-45.333 0 -87.333 8.5 -126 25.5s-67.5 38.5 -86.5 64.5s-32.167 58 -39.5 96c-5.33301 25.333 -8 65.333 -8 120v471h129v-421c0 -67.333 2.66699 -112.666 8 -135.999c8 -34 25 -60.667 51 -80
s58.333 -29 97 -29s75 9.83301 109 29.5s58 46.667 72 81s21 83.833 21 148.5v407h129v-760h-115zM520.999 854.999h-104l-165 200h172z" />
    <glyph glyph-name="uacute" unicode="&#xfa;" 
d="M595 0l-0.000976562 111.999c-59.333 -86 -139.666 -129 -240.999 -129c-45.333 0 -87.333 8.5 -126 25.5s-67.5 38.5 -86.5 64.5s-32.167 58 -39.5 96c-5.33301 25.333 -8 65.333 -8 120v471h129v-421c0 -67.333 2.66699 -112.666 8 -135.999c8 -34 25 -60.667 51 -80
s58.333 -29 97 -29s75 9.83301 109 29.5s58 46.667 72 81s21 83.833 21 148.5v407h129v-760h-115zM323.999 854.999l95 200h169l-157 -200h-107z" />
    <glyph glyph-name="ucircumflex" unicode="&#xfb;" 
d="M595 0l-0.000976562 111.999c-59.333 -86 -139.666 -129 -240.999 -129c-45.333 0 -87.333 8.5 -126 25.5s-67.5 38.5 -86.5 64.5s-32.167 58 -39.5 96c-5.33301 25.333 -8 65.333 -8 120v471h129v-421c0 -67.333 2.66699 -112.666 8 -135.999c8 -34 25 -60.667 51 -80
s58.333 -29 97 -29s75 9.83301 109 29.5s58 46.667 72 81s21 83.833 21 148.5v407h129v-760h-115zM403.999 976.999l-81 -122h-147l155 200h137l161 -200h-146z" />
    <glyph glyph-name="udieresis" unicode="&#xfc;" 
d="M595 0l-0.000976562 111.999c-59.333 -86 -139.666 -129 -240.999 -129c-45.333 0 -87.333 8.5 -126 25.5s-67.5 38.5 -86.5 64.5s-32.167 58 -39.5 96c-5.33301 25.333 -8 65.333 -8 120v471h129v-421c0 -67.333 2.66699 -112.666 8 -135.999c8 -34 25 -60.667 51 -80
s58.333 -29 97 -29s75 9.83301 109 29.5s58 46.667 72 81s21 83.833 21 148.5v407h129v-760h-115zM201.999 908.999v147h134v-147h-134zM468.999 908.999v147h134v-147h-134z" />
    <glyph glyph-name="yacute" unicode="&#xfd;" horiz-adv-x="733" 
d="M91 -293l-14.002 121c28 -7.33301 52.333 -11 73 -11c28.667 0 51.667 4.66699 69 14s31.333 22.666 42 39.999c8.66699 12.667 22 44.667 40 96c2 7.33301 5.66699 18 11 32l-288 761h139l158 -440c20.667 -56 39 -114.667 55 -176c14.667 59.333 32.334 117 53.001 173
l162 443h129l-289 -773c-31.333 -83.333 -55.333 -140.666 -72 -171.999c-23.333 -42.667 -49.666 -74 -78.999 -94s-64.666 -30 -105.999 -30c-24.667 0 -52.334 5.33301 -83.001 16zM300.998 855l95 200h169l-157 -200h-107z" />
    <glyph glyph-name="thorn" unicode="&#xfe;" 
d="M97 -291l-0.000976562 1341h129v-370c34.667 36.667 65 61 91 73c34.667 16.667 74 25 118 25c64.667 0 121.834 -16.833 171.501 -50.5s87.167 -80.834 112.5 -141.501s38 -127.334 38 -200.001c0 -78 -14 -148.167 -42 -210.5s-68.667 -110 -122 -143
s-109 -49.5 -167 -49.5c-39.333 0 -76 7.66699 -110 23c-26 12.667 -56 37 -90 73v-370h-129zM212.999 376.002c0 -98 19.832 -170.333 59.499 -217s87.834 -70 144.501 -70c57.333 0 106.333 24.167 147 72.5s61 123.5 61 225.5c0 96.667 -20 169.167 -60 217.5
s-87.667 72.5 -143 72.5c-54.667 0 -103.167 -25.667 -145.5 -77s-63.5 -126 -63.5 -224z" />
    <glyph glyph-name="ydieresis" unicode="&#xff;" horiz-adv-x="733" 
d="M91 -293l-14.002 121c28 -7.33301 52.333 -11 73 -11c28.667 0 51.667 4.66699 69 14s31.333 22.666 42 39.999c8.66699 12.667 22 44.667 40 96c2 7.33301 5.66699 18 11 32l-288 761h139l158 -440c20.667 -56 39 -114.667 55 -176c14.667 59.333 32.334 117 53.001 173
l162 443h129l-289 -773c-31.333 -83.333 -55.333 -140.666 -72 -171.999c-23.333 -42.667 -49.666 -74 -78.999 -94s-64.666 -30 -105.999 -30c-24.667 0 -52.334 5.33301 -83.001 16zM173.998 909v147h134v-147h-134zM440.998 909v147h134v-147h-134z" />
    <glyph glyph-name="dotlessi" unicode="&#x131;" horiz-adv-x="407" 
d="M142 0v760h129v-760h-129z" />
    <glyph glyph-name="OE" unicode="&#x152;" horiz-adv-x="1466" 
d="M1420 124l0.000976562 -124h-617v152c-64.667 -113.333 -160.334 -170 -287.001 -170c-143.333 0 -252 55.333 -326 166c-65.333 98 -98 224 -98 378s34 282.833 102 386.5s175.333 155.5 322 155.5c126 0 221.667 -53.333 287 -160v142h595v-124h-466v-321h429v-123
h-429v-358h488zM516.001 955c-48.667 0 -95.835 -15.5 -141.502 -46.5s-80.167 -78.167 -103.5 -141.5s-35 -147 -35 -251c0 -144.667 27.5 -251.167 82.5 -319.5s120.833 -102.5 197.5 -102.5s142.334 34 197.001 102s82 180.333 82 337c0 146.667 -27.667 253.667 -83 321
s-120.666 101 -195.999 101z" />
    <glyph glyph-name="oe" unicode="&#x153;" horiz-adv-x="1384" 
d="M700 125c-36 -47.333 -77.666 -82.834 -124.999 -106.501s-100 -35.5 -158 -35.5c-107.333 0 -193.833 34.167 -259.5 102.5s-98.5 163.5 -98.5 285.5c0 80.667 13.833 152.834 41.5 216.501s70.167 111.334 127.5 143.001s120.666 47.5 189.999 47.5
c66 0 123.5 -13.833 172.5 -41.5s85.5 -62.5 109.5 -104.5c30.667 44.667 70 80.167 118 106.5s101.667 39.5 161 39.5c104.667 0 189.334 -36.167 254.001 -108.5s97 -180.166 97 -323.499h-562c1.33301 -79.333 23.5 -142 66.5 -188s96.5 -69 160.5 -69
c46.667 0 87.167 13.167 121.5 39.5s59.166 66.166 74.499 119.499l129 -19c-20.667 -78.667 -59 -139.334 -115 -182.001s-127 -64 -213 -64c-64 0 -121.167 12.5 -171.5 37.5s-90.5 59.833 -120.5 104.5zM191.001 381.999c0 -89.333 17 -156.999 51 -202.999
c44 -60 101 -90 171 -90c61.333 0 114 25.333 158 76s66 123.334 66 218.001s-21.5 166.5 -64.5 215.5s-96.167 73.5 -159.5 73.5c-41.333 0 -79.5 -11.833 -114.5 -35.5s-61.667 -58.334 -80 -104.001s-27.5 -95.834 -27.5 -150.501zM773.001 452h421
c-6 72 -28 126.667 -66 164s-85 56 -141 56c-57.333 0 -106 -19.667 -146 -59s-62.667 -93 -68 -161z" />
    <glyph glyph-name="Scaron" unicode="&#x160;" horiz-adv-x="978" 
d="M66 337l130.994 12.001c6 -52.667 20.333 -95.834 43 -129.501s57.834 -60.834 105.501 -81.501s101.5 -31 161.5 -31c52.667 0 99.334 7.83301 140.001 23.5s71 37.167 91 64.5s30 57.333 30 90s-9.66699 61.334 -29 86.001s-51 45.334 -95 62.001
c-28 11.333 -90.167 28.5 -186.5 51.5s-163.833 44.833 -202.5 65.5c-50 26 -87.333 58.5 -112 97.5s-37 82.5 -37 130.5c0 53.333 15 103 45 149s73.833 81 131.5 105s121.834 36 192.501 36c78 0 146.667 -12.667 206 -38s105 -62.333 137 -111s49.333 -103.667 52 -165
l-133 -10c-7.33301 66 -31.666 116 -72.999 150s-102.333 51 -183 51c-84 0 -145.167 -15.333 -183.5 -46s-57.5 -67.667 -57.5 -111c0 -38 13.667 -69 41 -93c26.667 -24.667 96.334 -49.834 209.001 -75.501s190 -47.834 232 -66.501c61.333 -28 106.5 -63.667 135.5 -107
s43.5 -93.333 43.5 -150c0 -55.333 -15.833 -107.833 -47.5 -157.5s-77.5 -88.167 -137.5 -115.5s-127.667 -41 -203 -41c-94.667 0 -174.167 13.833 -238.5 41.5s-114.666 69.334 -150.999 125.001s-55.5 118.5 -57.5 188.5zM468.994 1189l79 121h146l-161 -200h-138
l-154 200h147z" />
    <glyph glyph-name="scaron" unicode="&#x161;" horiz-adv-x="733" 
d="M45 227l128 19.998c6.66699 -51.333 26.334 -90.5 59.001 -117.5s78.334 -40.5 137.001 -40.5c59.333 0 103.333 12 132 36s43 52.333 43 85c0 28.667 -12.667 51.667 -38 69c-17.333 11.333 -61.333 25.666 -132 42.999c-94 24 -159.333 44.667 -196 62
s-64.334 41.5 -83.001 72.5s-28 64.833 -28 101.5c0 34 7.66699 65.5 23 94.5s36.333 53.167 63 72.5c20 14.667 47.333 27.167 82 37.5s72 15.5 112 15.5c59.333 0 111.5 -8.66699 156.5 -26s78.333 -40.666 100 -69.999s36.5 -68.666 44.5 -117.999l-126 -17
c-6 39.333 -22.667 70 -50 92s-66 33 -116 33c-59.333 0 -101.666 -9.83301 -126.999 -29.5s-38 -42.5 -38 -68.5c0 -17.333 5.33301 -32.666 16 -45.999s27 -24.666 49 -33.999c13.333 -4.66699 51.333 -15.667 114 -33c91.333 -24 155 -43.833 191 -59.5
s64.333 -38.334 85 -68.001s31 -66.5 31 -110.5c0 -42.667 -12.667 -83 -38 -121s-61.5 -67.333 -108.5 -88s-100.5 -31 -160.5 -31c-98.667 0 -173.834 20.5 -225.501 61.5s-84.834 101.833 -99.501 182.5zM363 933.998l79 121h146l-161 -200h-138l-154 200h147z" />
    <glyph glyph-name="Ydieresis" unicode="&#x178;" horiz-adv-x="978" 
d="M409 0v444.999l-405 605h169l207 -317c38 -59.333 73.667 -118.333 107 -177c31.333 54.667 69.333 116.334 114 185.001l204 309h162l-419 -605v-445h-139zM285 1114v147h134v-147h-134zM552 1114v147h134v-147h-134z" />
    <glyph glyph-name="Zcaron" unicode="&#x17d;" horiz-adv-x="896" 
d="M29 0v129l538 672c38 48 74.333 89.667 109 125h-586v124h752v-124l-589 -728l-64 -74h670v-124h-830zM455 1189l79 121h146l-161 -200h-138l-154 200h147z" />
    <glyph glyph-name="zcaron" unicode="&#x17e;" horiz-adv-x="733" 
d="M29 0v105l484 555c-55.333 -2.66699 -104 -4 -146 -4h-310v104h622v-85l-412 -482l-79 -88c57.333 4 111.333 6 162 6h352v-111h-673zM389 934l79 121h146l-161 -200h-138l-154 200h147z" />
    <glyph glyph-name="florin" unicode="&#x192;" 
d="M33 -290l24.999 111.001c48 -10.667 84.333 -16 109 -16c25.333 0 45 6.66699 59 20s24.667 43 32 89l127 746h-144l17 100h144l18 96c10 57.333 20.667 96.666 32 117.999c14.667 29.333 35.667 52.333 63 69s63.333 25 108 25c38 0 89.333 -9 154 -27l-25 -109
c-49.333 11.333 -86 17 -110 17c-27.333 0 -47.666 -6.66699 -60.999 -20s-24.333 -45 -33 -95l-14 -74h146l-18 -100h-146l-137 -782c-12 -70.667 -32.5 -119.5 -61.5 -146.5s-70.5 -40.5 -124.5 -40.5c-44.667 0 -98 6.33301 -160 19z" />
    <glyph glyph-name="afii57929" unicode="&#x2bc;" horiz-adv-x="530" 
d="M230 911v149h138v-118c0 -64 -7.33301 -110 -22 -138c-20.667 -38.667 -52.667 -67.667 -96 -87l-32 51c26 10 45.333 26.333 58 49s19.667 54 21 94h-67z" />
    <glyph glyph-name="circumflex" unicode="&#x2c6;" horiz-adv-x="488" 
d="M246 977l-81 -122h-147l155 200h137l161 -200h-146z" />
    <glyph glyph-name="caron" unicode="&#x2c7;" horiz-adv-x="488" 
d="M257 934l79 121h146l-161 -200h-138l-154 200h147z" />
    <glyph glyph-name="ring" unicode="&#x2da;" horiz-adv-x="488" 
d="M116 958c0 34.667 12.833 64.667 38.5 90s55.834 38 90.501 38c35.333 0 65.666 -12.667 90.999 -38s38 -56.333 38 -93s-12.667 -67.667 -38 -93s-55.333 -38 -90 -38c-36 0 -66.667 12.833 -92 38.5s-38 57.5 -38 95.5zM170 956c0 -21.333 7.66699 -39.666 23 -54.999
s33 -23.333 53 -24c20.667 0.666992 38.5 8.66699 53.5 24s22.5 33.333 22.5 54c0 22 -7.33301 40.667 -22 56s-32.667 22.666 -54 21.999c-20 0.666992 -37.667 -6.5 -53 -21.5s-23 -33.5 -23 -55.5z" />
    <glyph glyph-name="tilde" unicode="&#x2dc;" horiz-adv-x="488" 
d="M5 873c0 49.333 13.666 89 40.999 119c27.333 29.333 62 44 104 44c30 0 70.333 -13 121 -39c28.667 -14 51.334 -21 68.001 -21c15.333 0 27 4.16699 35 12.5s13.667 24.833 17 49.5h93c-1.33301 -54 -15 -94.667 -41 -122s-59 -41 -99 -41
c-30 0 -69.667 13.333 -119 40c-32 17.333 -55.333 26 -70 26c-16.667 0 -30 -5.66699 -40 -17c-10 -12 -15 -29 -15 -51h-95z" />
    <glyph glyph-name="u0901" unicode="&#x901;" horiz-adv-x="0" 
d="M102 1410c-13.333 -78 -47.833 -142.5 -103.5 -193.5s-121.167 -76.5 -196.5 -76.5s-140.833 25.5 -196.5 76.5s-90.167 115.5 -103.5 193.5h100c9.33301 -54 32.5 -99.167 69.5 -135.5s80.5 -54.5 130.5 -54.5s93.5 18.167 130.5 54.5s60.167 81.5 69.5 135.5h100z
M-138 1425c0 -43.333 -21.667 -65 -65 -65s-65 21.667 -65 65s21.667 65 65 65s65 -21.667 65 -65z" />
    <glyph glyph-name="u0902" unicode="&#x902;" horiz-adv-x="0" 
d="M-127 1319c0 -43.333 -21.667 -65 -65 -65s-65 21.667 -65 65s21.667 65 65 65s65 -21.667 65 -65z" />
    <glyph glyph-name="u0903" unicode="&#x903;" horiz-adv-x="510" 
d="M250 160c-28.667 0 -52.5 10.833 -71.5 32.5s-28.5 47.5 -28.5 77.5c0 30.667 9.5 56.667 28.5 78s42.833 32 71.5 32c32 0 58.333 -10.333 79 -31s31 -47 31 -79c0 -31.333 -10.5 -57.5 -31.5 -78.5s-47.167 -31.5 -78.5 -31.5zM250 600
c-28.667 0 -52.5 10.833 -71.5 32.5s-28.5 47.5 -28.5 77.5c0 30.667 9.5 56.667 28.5 78s42.833 32 71.5 32c32 0 58.333 -10.333 79 -31s31 -47 31 -79c0 -31.333 -10.5 -57.5 -31.5 -78.5s-47.167 -31.5 -78.5 -31.5z" />
    <glyph glyph-name="u0904" unicode="&#x904;" horiz-adv-x="1154" 
d="M1004 910l0.00195312 -910.001h-100v450c-32 -26.667 -67.333 -40 -106 -40c-50 0 -91.333 10 -124 30c26.667 -21.333 40 -58 40 -110c0 -72 -24 -133.333 -72 -184s-107.333 -76 -178 -76c-84 0 -161.833 31.667 -233.5 95s-137.167 158.333 -196.5 285l74 42
c50.667 -107.333 105.667 -187.833 165 -241.5s123 -80.5 191 -80.5c42 0 77.5 15.5 106.5 46.5s43.5 68.167 43.5 111.5c0 52.667 -16.167 97.834 -48.5 135.501s-72.833 56.5 -121.5 56.5c-30.667 0 -64 -6.66699 -100 -20l-40 90c56 5.33301 108 25.333 156 60
s72 74.667 72 120c0 37.333 -11.167 70 -33.5 98s-50.5 42 -84.5 42c-80.667 0 -160.667 -46.667 -240 -140l-70 70c73.333 106.667 176.666 160 309.999 160c62.667 0 115 -22.333 157 -67s63 -99 63 -163c0 -34.667 -7.5 -67 -22.5 -97s-37.5 -57.667 -67.5 -83
c44.667 -30 86.167 -52.5 124.5 -67.5s73.5 -22.5 105.5 -22.5c47.333 0 90.666 16.667 129.999 50v360h-180v90h500v-90h-220zM1000 999.999l-99.999 0.000976562c0 57.333 -19.333 106.666 -58 147.999s-86 62 -142 62c-75.333 0 -140.833 25.5 -196.5 76.5
s-90.167 115.5 -103.5 193.5h100c9.33301 -54 32.5 -99.167 69.5 -135.5s80.5 -54.5 130.5 -54.5c83.333 0 154.166 -27.833 212.499 -83.5s87.5 -124.5 87.5 -206.5z" />
    <glyph glyph-name="u0905" unicode="&#x905;" horiz-adv-x="1154" 
d="M1004 910l0.00195312 -910.001h-100v450c-32 -26.667 -67.333 -40 -106 -40c-50 0 -91.333 10 -124 30c26.667 -21.333 40 -58 40 -110c0 -72 -24 -133.333 -72 -184s-107.333 -76 -178 -76c-84 0 -161.833 31.667 -233.5 95s-137.167 158.333 -196.5 285l74 42
c50.667 -107.333 105.667 -187.833 165 -241.5s123 -80.5 191 -80.5c42 0 77.5 15.5 106.5 46.5s43.5 68.167 43.5 111.5c0 52.667 -16.167 97.834 -48.5 135.501s-72.833 56.5 -121.5 56.5c-30.667 0 -64 -6.66699 -100 -20l-40 90c56 5.33301 108 25.333 156 60
s72 74.667 72 120c0 37.333 -11.167 70 -33.5 98s-50.5 42 -84.5 42c-80.667 0 -160.667 -46.667 -240 -140l-70 70c73.333 106.667 176.666 160 309.999 160c62.667 0 115 -22.333 157 -67s63 -99 63 -163c0 -34.667 -7.5 -67 -22.5 -97s-37.5 -57.667 -67.5 -83
c44.667 -30 86.167 -52.5 124.5 -67.5s73.5 -22.5 105.5 -22.5c47.333 0 90.666 16.667 129.999 50v360h-180v90h500v-90h-220z" />
    <glyph glyph-name="u0906" unicode="&#x906;" horiz-adv-x="1566" 
d="M1006 910l0.000976562 -910.001h-100v450c-32 -26.667 -68 -40 -108 -40c-50 0 -91.333 10 -124 30c26.667 -21.333 40 -58 40 -110c0 -72 -24 -133.333 -72 -184s-107.333 -76 -178 -76c-84 0 -161.833 31.667 -233.5 95s-137.167 158.333 -196.5 285l74 42
c50.667 -107.333 105.667 -187.833 165 -241.5s123 -80.5 191 -80.5c42 0 77.5 15.5 106.5 46.5s43.5 68.167 43.5 111.5c0 52.667 -16.167 97.834 -48.5 135.501s-72.833 56.5 -121.5 56.5c-30.667 0 -64 -6.66699 -100 -20l-40 90c56 5.33301 108 25.333 156 60
s72 74.667 72 120c0 37.333 -11.167 70 -33.5 98s-50.5 42 -84.5 42c-80.667 0 -160.667 -46.667 -240 -140l-70 70c73.333 106.667 176.666 160 309.999 160c62.667 0 115 -22.333 157 -67s63 -99 63 -163c0 -34.667 -7.5 -67 -22.5 -97s-37.5 -57.667 -67.5 -83
c44.667 -30 86.167 -52.5 124.5 -67.5s73.5 -22.5 105.5 -22.5c48.667 0 92.667 16.667 132 50v360h-180v90h910v-90h-220v-910h-100v910h-310zM1154 -50.001z" />
    <glyph glyph-name="u0907" unicode="&#x907;" horiz-adv-x="756" 
d="M302 30c-59.333 0 -114.167 11.666 -164.5 34.999s-75.5 55 -75.5 95c0 28.667 9.5 52.5 28.5 71.5s42.833 28.5 71.5 28.5c83.333 0 153.333 -50 210 -150c58.667 0 108.334 21.667 149.001 65s61 95 61 155c0 46.667 -13.333 70 -40 70
c-22.667 0 -56 -8.33301 -100 -25c-43.333 -16.667 -76.666 -25 -99.999 -25c-45.333 0 -100.333 32 -165 96s-97 118.667 -97 164c0 40.667 16.333 74.167 49 100.5s71 39.5 115 39.5h248v160h-498v90h832v-90h-224v-260h-360c-40 0 -60 -13.333 -60 -40
c0 -22.667 21 -55 63 -97s74.333 -63 97 -63c23.333 0 56.666 8.33301 99.999 25c44 16.667 77.333 25 100 25c40.667 0 74.167 -16.833 100.5 -50.5s39.5 -73.5 39.5 -119.5c0 -81.333 -24.667 -151.666 -74 -210.999s-111.333 -89 -186 -89
c51.333 -72.667 134.666 -136 249.999 -190l-50 -80c-143.333 82.667 -250 172.667 -320 270z" />
    <glyph glyph-name="u0908" unicode="&#x908;" horiz-adv-x="756" 
d="M302 30c-59.333 0 -114.167 11.666 -164.5 34.999s-75.5 55 -75.5 95c0 28.667 9.5 52.5 28.5 71.5s42.833 28.5 71.5 28.5c83.333 0 153.333 -50 210 -150c58.667 0 108.334 21.667 149.001 65s61 95 61 155c0 46.667 -13.333 70 -40 70
c-22.667 0 -56 -8.33301 -100 -25c-43.333 -16.667 -76.666 -25 -99.999 -25c-45.333 0 -100.333 32 -165 96s-97 118.667 -97 164c0 40.667 16.333 74.167 49 100.5s71 39.5 115 39.5h248v160h-498v90h832v-90h-224v-260h-360c-40 0 -60 -13.333 -60 -40
c0 -22.667 21 -55 63 -97s74.333 -63 97 -63c23.333 0 56.666 8.33301 99.999 25c44 16.667 77.333 25 100 25c40.667 0 74.167 -16.833 100.5 -50.5s39.5 -73.5 39.5 -119.5c0 -81.333 -24.667 -151.666 -74 -210.999s-111.333 -89 -186 -89
c51.333 -72.667 134.666 -136 249.999 -190l-50 -80c-143.333 82.667 -250 172.667 -320 270zM718.999 1310c-54.667 20 -91.334 30 -110.001 30c-39.333 0 -72.5 -13.5 -99.5 -40.5s-40.5 -60.167 -40.5 -99.5c0 -78 46.667 -144.667 140 -200h-130
c-73.333 62 -110 128.667 -110 200c0 63.333 23.333 115.833 70 157.5s103.334 62.5 170.001 62.5c36 0 72.667 -6.66699 110 -20v-90z" />
    <glyph glyph-name="u0909" unicode="&#x909;" horiz-adv-x="948" 
d="M854 310c0 -78 -25.832 -144.168 -77.499 -198.501s-115.834 -81.5 -192.501 -81.5c-105.333 0 -205.5 55.167 -300.5 165.5s-178.167 261.833 -249.5 454.5l82 36c63.333 -173.333 135.5 -309.333 216.5 -408s164.833 -148 251.5 -148c47.333 0 87.5 17.667 120.5 53
s49.5 77.666 49.5 126.999c0 52.667 -15 99.167 -45 139.5s-68.333 60.5 -115 60.5h-200l-40 90h220c39.333 0 72.5 14.833 99.5 44.5s40.5 64.834 40.5 105.501c0 58 -30 111.333 -90 160h-630v90h1024v-90h-264c40 -45.333 60 -98.666 60 -159.999
c0 -48 -8.33301 -88.667 -25 -122s-41.667 -59.333 -75 -78c46.667 -16.667 81.667 -45 105 -85s35 -91.667 35 -155z" />
    <glyph glyph-name="u090A" unicode="&#x90a;" horiz-adv-x="1384" 
d="M854 310c0 -78 -25.8311 -144.167 -77.498 -198.5s-115.834 -81.5 -192.501 -81.5c-105.333 0 -205.5 55.167 -300.5 165.5s-178.167 261.833 -249.5 454.5l82 36c63.333 -173.333 135.5 -309.333 216.5 -408s164.833 -148 251.5 -148c47.333 0 87.5 17.667 120.5 53
s49.5 77.666 49.5 126.999c0 52.667 -15 99.167 -45 139.5s-68.333 60.5 -115 60.5h-200l-40 90h220c39.333 0 72.5 14.833 99.5 44.5s40.5 64.834 40.5 105.501c0 58 -30 111.333 -90 160h-630v90h1460v-90h-700c40 -45.333 60 -98.666 60 -159.999
c0 -48 -8.33301 -88.667 -25 -122s-41.667 -59.333 -75 -78c44 -14.667 78 -44 102 -88l3 -4c51.333 114.667 131.666 172 240.999 172c72 0 133.333 -22.833 184 -68.5s76 -102.834 76 -171.501c0 -140.667 -56.667 -250.667 -170 -330l-66 74
c90.667 51.333 136 136.666 136 255.999c0 42.667 -15.667 78.334 -47 107.001s-69 43 -113 43c-44.667 0 -85.5 -21.5 -122.5 -64.5s-64.833 -97.167 -83.5 -162.5v-3zM948.002 -50z" />
    <glyph glyph-name="u090B" unicode="&#x90b;" horiz-adv-x="1298" 
d="M748 460l0.000976562 -459.999h-100v380l-410 -190l-60 80l390 180l-110 110c-60 60 -110 90 -150 90c-56 0 -132.667 -33.333 -230 -100l-60 70c116 80 212.667 120 290 120c60 0 120 -30 180 -90l160 -160v420h-654v90h1374v-90h-620v-360
c29.333 -13.333 66 -20 110 -20c34.667 0 58 3.33301 70 10c-20 28.667 -30 58.667 -30 90c0 24 11 43.333 33 58s47.667 22 77 22c30.667 0 56.667 -9.5 78 -28.5s32 -42.833 32 -71.5c0 -56 -20 -92.667 -60 -110c60 -60 105 -117.5 135 -172.5s45 -107.5 45 -157.5
c0 -52.667 -18.5 -97.5 -55.5 -134.5s-81.833 -55.5 -134.5 -55.5c-42.667 0 -80.334 14 -113.001 42s-55 64 -67 108l90 40c9.33301 -60 39.333 -90 90 -90c25.333 0 46.666 8.66699 63.999 26s26 38.666 26 63.999c0 46.667 -15 94.167 -45 142.5s-75 97.5 -135 147.5
c-29.333 -13.333 -62.666 -20 -99.999 -20c-49.333 0 -86 6.66699 -110 20z" />
    <glyph glyph-name="u090C" unicode="&#x90c;" horiz-adv-x="1057" 
d="M897 371c0 60.667 -16.999 112.327 -50.999 154.994s-74.333 64 -121 64c-41.333 0 -80 -25.667 -116 -77s-63.667 -116 -83 -194l-100 31c10.667 48.667 27 95 49 139c-38.667 67.333 -92 101 -160 101c-42.667 0 -78.167 -19.333 -106.5 -58s-42.5 -83 -42.5 -133
c0 -66.667 23.333 -129 70 -187s106.667 -102 180 -132l-39 -80c-90.667 38 -165.167 93.333 -223.5 166s-87.5 150.334 -87.5 233.001c0 70.667 22 136.834 66 198.501s105 92.5 183 92.5c83.333 0 153.666 -40.333 210.999 -121c40 66 93.333 106.333 160 121v219h-692v90
h1133v-90h-341v-219c66 -21.333 117.333 -61.166 154 -119.499s55 -124.833 55 -199.5c0 -72.667 -22 -138.5 -66 -197.5s-98.333 -97.167 -163 -114.5c-41.333 -9.33301 -76.666 -28.666 -105.999 -57.999s-44 -63 -44 -101c0 -39.333 15.667 -70.666 47 -93.999
s65.666 -35 102.999 -35c80 0 143.333 16.333 190 49l29 -90c-56.667 -40 -129.667 -60 -219 -60c-68 0 -126.667 21.833 -176 65.5s-74 98.5 -74 164.5c0 57.333 19 108.833 57 154.5s89.333 73.834 154 84.501c44.667 8 84.167 34.5 118.5 79.5s51.5 95.833 51.5 152.5z
" />
    <glyph glyph-name="u090D" unicode="&#x90d;" horiz-adv-x="730" 
d="M800 910h-170v-292c0 -53.333 -10.5 -100.5 -31.5 -141.5s-50.5 -66.5 -88.5 -76.5l-60 70c53.333 14.667 80 64.667 80 150v290h-340v-380c0 -55.333 16.667 -98.666 50 -129.999l350 -330c53.333 -50 80 -90 80 -120c0 -63.333 -40 -110 -120 -140l-80 70
c60 9.33301 90 32.666 90 69.999c0 22 -13.333 45.333 -40 70l-370 340c-40 36.667 -60 92 -60 166v384h-96v90h806v-90zM674 1400c-13.333 -78 -47.833 -142.5 -103.5 -193.5s-121.167 -76.5 -196.5 -76.5s-140.833 25.5 -196.5 76.5s-90.167 115.5 -103.5 193.5h100
c9.33301 -54 32.5 -99.167 69.5 -135.5s80.5 -54.5 130.5 -54.5s93.5 18.167 130.5 54.5s60.167 81.5 69.5 135.5h100z" />
    <glyph glyph-name="u090E" unicode="&#x90e;" horiz-adv-x="730" 
d="M800 910h-170v-292c0 -53.333 -10.5 -100.5 -31.5 -141.5s-50.5 -66.5 -88.5 -76.5l-60 70c53.333 14.667 80 64.667 80 150v290h-340v-380c0 -55.333 16.667 -98.666 50 -129.999l350 -330c53.333 -50 80 -90 80 -120c0 -63.333 -40 -110 -120 -140l-80 70
c60 9.33301 90 32.666 90 69.999c0 22 -13.333 45.333 -40 70l-370 340c-40 36.667 -60 92 -60 166v384h-96v90h806v-90zM631 1000l-99.999 0.000976562c0 57.333 -19.333 106.666 -58 147.999s-86 62 -142 62c-75.333 0 -140.833 25.5 -196.5 76.5
s-90.167 115.5 -103.5 193.5h100c9.33301 -54 32.5 -99.167 69.5 -135.5s80.5 -54.5 130.5 -54.5c83.333 0 154.166 -27.833 212.499 -83.5s87.5 -124.5 87.5 -206.5z" />
    <glyph glyph-name="u090F" unicode="&#x90f;" horiz-adv-x="730" 
d="M800 910h-170v-292c0 -53.333 -10.5 -100.5 -31.5 -141.5s-50.5 -66.5 -88.5 -76.5l-60 70c53.333 14.667 80 64.667 80 150v290h-340v-380c0 -55.333 16.667 -98.666 50 -129.999l350 -330c53.333 -50 80 -90 80 -120c0 -63.333 -40 -110 -120 -140l-80 70
c60 9.33301 90 32.666 90 69.999c0 22 -13.333 45.333 -40 70l-370 340c-40 36.667 -60 92 -60 166v384h-96v90h806v-90z" />
    <glyph glyph-name="u0910" unicode="&#x910;" horiz-adv-x="730" 
d="M800 910h-170v-292c0 -53.333 -10.5 -100.5 -31.5 -141.5s-50.5 -66.5 -88.5 -76.5l-60 70c53.333 14.667 80 64.667 80 150v290h-340v-380c0 -55.333 16.667 -98.666 50 -129.999l350 -330c53.333 -50 80 -90 80 -120c0 -63.333 -40 -110 -120 -140l-80 70
c60 9.33301 90 32.666 90 69.999c0 22 -13.333 45.333 -40 70l-370 340c-40 36.667 -60 92 -60 166v384h-96v90h806v-90zM623 1000h-100l-370 440l70 60z" />
    <glyph glyph-name="u0911" unicode="&#x911;" horiz-adv-x="1566" 
d="M1006 910l0.000976562 -910.001h-100v450c-32 -26.667 -68 -40 -108 -40c-50 0 -91.333 10 -124 30c26.667 -21.333 40 -58 40 -110c0 -72 -24 -133.333 -72 -184s-107.333 -76 -178 -76c-84 0 -161.833 31.667 -233.5 95s-137.167 158.333 -196.5 285l74 42
c50.667 -107.333 105.667 -187.833 165 -241.5s123 -80.5 191 -80.5c42 0 77.5 15.5 106.5 46.5s43.5 68.167 43.5 111.5c0 52.667 -16.167 97.834 -48.5 135.501s-72.833 56.5 -121.5 56.5c-30.667 0 -64 -6.66699 -100 -20l-40 90c56 5.33301 108 25.333 156 60
s72 74.667 72 120c0 37.333 -11.167 70 -33.5 98s-50.5 42 -84.5 42c-80.667 0 -160.667 -46.667 -240 -140l-70 70c73.333 106.667 176.666 160 309.999 160c62.667 0 115 -22.333 157 -67s63 -99 63 -163c0 -34.667 -7.5 -67 -22.5 -97s-37.5 -57.667 -67.5 -83
c44.667 -30 86.167 -52.5 124.5 -67.5s73.5 -22.5 105.5 -22.5c48.667 0 92.667 16.667 132 50v360h-180v90h910v-90h-220v-910h-100v910h-310zM1391 1400c-13.333 -78 -47.833 -142.5 -103.5 -193.5s-121.167 -76.5 -196.5 -76.5s-140.833 25.5 -196.5 76.5
s-90.167 115.5 -103.5 193.5h100c9.33301 -54 32.5 -99.167 69.5 -135.5s80.5 -54.5 130.5 -54.5s93.5 18.167 130.5 54.5s60.167 81.5 69.5 135.5h100z" />
    <glyph glyph-name="u0912" unicode="&#x912;" horiz-adv-x="1566" 
d="M1006 910l0.000976562 -910.001h-100v450c-32 -26.667 -68 -40 -108 -40c-50 0 -91.333 10 -124 30c26.667 -21.333 40 -58 40 -110c0 -72 -24 -133.333 -72 -184s-107.333 -76 -178 -76c-84 0 -161.833 31.667 -233.5 95s-137.167 158.333 -196.5 285l74 42
c50.667 -107.333 105.667 -187.833 165 -241.5s123 -80.5 191 -80.5c42 0 77.5 15.5 106.5 46.5s43.5 68.167 43.5 111.5c0 52.667 -16.167 97.834 -48.5 135.501s-72.833 56.5 -121.5 56.5c-30.667 0 -64 -6.66699 -100 -20l-40 90c56 5.33301 108 25.333 156 60
s72 74.667 72 120c0 37.333 -11.167 70 -33.5 98s-50.5 42 -84.5 42c-80.667 0 -160.667 -46.667 -240 -140l-70 70c73.333 106.667 176.666 160 309.999 160c62.667 0 115 -22.333 157 -67s63 -99 63 -163c0 -34.667 -7.5 -67 -22.5 -97s-37.5 -57.667 -67.5 -83
c44.667 -30 86.167 -52.5 124.5 -67.5s73.5 -22.5 105.5 -22.5c48.667 0 92.667 16.667 132 50v360h-180v90h910v-90h-220v-910h-100v910h-310zM1417 999.999l-99.999 0.000976562c0 57.333 -19.333 106.666 -58 147.999s-86 62 -142 62
c-75.333 0 -140.833 25.5 -196.5 76.5s-90.167 115.5 -103.5 193.5h100c9.33301 -54 32.5 -99.167 69.5 -135.5s80.5 -54.5 130.5 -54.5c83.333 0 154.166 -27.833 212.499 -83.5s87.5 -124.5 87.5 -206.5z" />
    <glyph glyph-name="u0913" unicode="&#x913;" horiz-adv-x="1566" 
d="M1006 910l0.000976562 -910.001h-100v450c-32 -26.667 -68 -40 -108 -40c-50 0 -91.333 10 -124 30c26.667 -21.333 40 -58 40 -110c0 -72 -24 -133.333 -72 -184s-107.333 -76 -178 -76c-84 0 -161.833 31.667 -233.5 95s-137.167 158.333 -196.5 285l74 42
c50.667 -107.333 105.667 -187.833 165 -241.5s123 -80.5 191 -80.5c42 0 77.5 15.5 106.5 46.5s43.5 68.167 43.5 111.5c0 52.667 -16.167 97.834 -48.5 135.501s-72.833 56.5 -121.5 56.5c-30.667 0 -64 -6.66699 -100 -20l-40 90c56 5.33301 108 25.333 156 60
s72 74.667 72 120c0 37.333 -11.167 70 -33.5 98s-50.5 42 -84.5 42c-80.667 0 -160.667 -46.667 -240 -140l-70 70c73.333 106.667 176.666 160 309.999 160c62.667 0 115 -22.333 157 -67s63 -99 63 -163c0 -34.667 -7.5 -67 -22.5 -97s-37.5 -57.667 -67.5 -83
c44.667 -30 86.167 -52.5 124.5 -67.5s73.5 -22.5 105.5 -22.5c48.667 0 92.667 16.667 132 50v360h-180v90h910v-90h-220v-910h-100v910h-310zM1417 999.999h-100l-370 440l70 60z" />
    <glyph glyph-name="u0914" unicode="&#x914;" horiz-adv-x="1566" 
d="M1006 910l0.000976562 -910.001h-100v450c-32 -26.667 -68 -40 -108 -40c-50 0 -91.333 10 -124 30c26.667 -21.333 40 -58 40 -110c0 -72 -24 -133.333 -72 -184s-107.333 -76 -178 -76c-84 0 -161.833 31.667 -233.5 95s-137.167 158.333 -196.5 285l74 42
c50.667 -107.333 105.667 -187.833 165 -241.5s123 -80.5 191 -80.5c42 0 77.5 15.5 106.5 46.5s43.5 68.167 43.5 111.5c0 52.667 -16.167 97.834 -48.5 135.501s-72.833 56.5 -121.5 56.5c-30.667 0 -64 -6.66699 -100 -20l-40 90c56 5.33301 108 25.333 156 60
s72 74.667 72 120c0 37.333 -11.167 70 -33.5 98s-50.5 42 -84.5 42c-80.667 0 -160.667 -46.667 -240 -140l-70 70c73.333 106.667 176.666 160 309.999 160c62.667 0 115 -22.333 157 -67s63 -99 63 -163c0 -34.667 -7.5 -67 -22.5 -97s-37.5 -57.667 -67.5 -83
c44.667 -30 86.167 -52.5 124.5 -67.5s73.5 -22.5 105.5 -22.5c48.667 0 92.667 16.667 132 50v360h-180v90h910v-90h-220v-910h-100v910h-310zM1416 999.999h-130l-430 210l50 90l450 -290l-220 430l100 60z" />
    <glyph glyph-name="u0915" unicode="&#x915;" horiz-adv-x="1126" 
d="M318 210c-72 0 -133.332 25.333 -183.999 76s-76 112 -76 184c0 82 29.167 150.833 87.5 206.5s129.166 83.5 212.499 83.5c50.667 0 84 -6.66699 100 -20l-20 -100c-24 13.333 -50.667 20 -80 20c-54.667 0 -101.667 -18.333 -141 -55s-59 -81.667 -59 -135
c0 -44.667 15.5 -82.5 46.5 -113.5s68.833 -46.5 113.5 -46.5c42 0 79.667 10.833 113 32.5s62.333 54.167 87 97.5v470h-524v90h1202v-90h-578v-270c46 80 116 120 210 120c66.667 0 121.667 -26.5 165 -79.5s65 -116.5 65 -190.5c0 -132.667 -63.333 -252.667 -190 -360
l-90 60c120 86 180 186 180 300c0 44.667 -12 84.167 -36 118.5s-55.333 51.5 -94 51.5c-48.667 0 -92.167 -18 -130.5 -54s-64.833 -81.333 -79.5 -136v-470h-100v300c-51.333 -60 -118 -90 -200 -90z" />
    <glyph glyph-name="u0916" unicode="&#x916;" horiz-adv-x="1240" 
d="M610 90c76.667 0 148.833 21.667 216.5 65s122.167 101.666 163.5 174.999v80c-54.667 -46.667 -108 -70 -160 -70c-66 0 -122.5 20.333 -169.5 61s-70.5 91.667 -70.5 153c0 62 23.5 113.5 70.5 154.5s103.5 61.5 169.5 61.5c50 0 93.333 -10 130 -30v-100
c-54.667 20 -98 30 -130 30c-37.333 0 -70 -11 -98 -33s-42 -49.667 -42 -83s14 -60.666 42 -81.999s60.667 -32 98 -32c42 0 95.333 26.667 160 80v390h-550v-220c0 -61.333 -16.833 -115 -50.5 -161s-76.834 -69 -129.501 -69c-16.667 0 -33.334 3.33301 -50.001 10
c40.667 -111.333 96.834 -202.5 168.501 -273.5s148.834 -106.5 231.501 -106.5zM609.999 0c-123.333 0 -236.333 63.332 -339 189.999s-179.667 283.334 -231 470.001l80 40c32 -93.333 78.667 -140 140 -140c24.667 0 44.167 13.167 58.5 39.5s21.5 56.5 21.5 90.5v220
h-346v90h1316v-90h-220v-910h-100v200c-46.667 -66.667 -101.667 -116.667 -165 -150s-135 -50 -215 -50z" />
    <glyph glyph-name="u0917" unicode="&#x917;" horiz-adv-x="778" 
d="M528 910h-250v-490c0 -40 -16.667 -60 -50 -60c-27.333 0 -67.5 31.167 -120.5 93.5s-79.5 107.833 -79.5 136.5c0 13.333 3.33301 23.333 10 30s16.667 10 30 10h70c26.667 0 40 16.667 40 50v230h-184v90h854v-90h-220v-910h-100v910z" />
    <glyph glyph-name="u0918" unicode="&#x918;" horiz-adv-x="956" 
d="M396 170c-78.667 0 -146.667 23.665 -204 70.998s-86 107 -86 179c0 38.667 9.16699 73 27.5 103s45.833 55.667 82.5 77c-46.667 16.667 -81.667 40.834 -105 72.501s-35 70.834 -35 117.501c0 41.333 16.667 81.333 50 120h-132v90h1032v-90h-220v-910h-100v320
c-50 -50 -100.833 -87.5 -152.5 -112.5s-104.167 -37.5 -157.5 -37.5zM706 449.998l-0.000976562 460.001h-460c-46.667 -26 -70 -66 -70 -120c0 -38.667 17.167 -70 51.5 -94s73.833 -36 118.5 -36h130l30 -90h-90c-55.333 0 -104.166 -13.833 -146.499 -41.5
s-63.5 -63.834 -63.5 -108.501c0 -44 19.167 -80 57.5 -108s82.5 -42 132.5 -42c53.333 0 105.833 15 157.5 45s102.5 75 152.5 135z" />
    <glyph glyph-name="u0919" unicode="&#x919;" horiz-adv-x="1078" 
d="M578 20c-109.333 0 -212.834 40.168 -310.501 120.501s-177.5 186.833 -239.5 319.5l80 50c55.333 -117.333 124.833 -211.666 208.5 -282.999s170.834 -107 261.501 -107c56 0 103.333 20.667 142 62s58 90.666 58 147.999c0 20 -4.16699 35 -12.5 45
s-20.833 15 -37.5 15c-20.667 0 -50.667 -6.66699 -90 -20s-69.333 -20 -90 -20c-53.333 0 -110 31.667 -170 95s-90 121.666 -90 174.999c0 36.667 12.5 67.5 37.5 92.5s55.833 37.5 92.5 37.5h270v160h-694v90h1154v-90h-360v-260h-370c-20 0 -30 -10 -30 -30
c0 -28.667 19.5 -64.167 58.5 -106.5s72.833 -63.5 101.5 -63.5c20.667 0 50.667 6.66699 90 20s69.333 20 90 20c42.667 0 78.334 -15.667 107.001 -47s43 -69 43 -113c0 -86 -28.833 -159.167 -86.5 -219.5s-128.834 -90.5 -213.501 -90.5zM1045 565.001
c0 -43.333 -21.667 -65 -65 -65s-65 21.667 -65 65s21.667 65 65 65s65 -21.667 65 -65z" />
    <glyph glyph-name="u091A" unicode="&#x91a;" horiz-adv-x="958" 
d="M438 180c-66.667 0 -123.333 23.3311 -170 69.998s-70 103.334 -70 170.001c0 52 9.16699 96.333 27.5 133s45.833 65.667 82.5 87h-290v100h590v-100h-140c-51.333 -19.333 -92.5 -48.666 -123.5 -87.999s-46.5 -83.333 -46.5 -132c0 -38.667 13.667 -71.667 41 -99
s60.333 -41 99 -41c45.333 0 90.5 19.167 135.5 57.5s89.833 95.833 134.5 172.5v400h-714v90h1034v-90h-220v-910h-100v360c-42.667 -60 -86.5 -105 -131.5 -135s-91.167 -45 -138.5 -45z" />
    <glyph glyph-name="u091B" unicode="&#x91b;" horiz-adv-x="1066" 
d="M786 660c-32.667 0 -59.168 -11.8311 -79.501 -35.498s-30.5 -51.834 -30.5 -84.501c0 -89.333 36.667 -159.333 110 -210c80 57.333 120 130.666 120 219.999c0 32 -11.667 58.333 -35 79s-51.666 31 -84.999 31zM835.999 760.002
c50.667 -10 91.668 -34.498 123.001 -73.498s47 -84.5 47 -136.5c0 -122.667 -58.333 -236.667 -175 -342s-238.334 -158 -365.001 -158c-90.667 0 -170 26.5 -238 79.5s-102 119.833 -102 200.5c0 51.333 9.16699 96.166 27.5 134.499s45.833 70.166 82.5 95.499
c-53.333 24.667 -93.333 53.667 -120 87s-40 71 -40 113c0 71.333 20 121.333 60 150h-142v90h1142v-90h-300v-150zM736 760.004v149.999h-480c-53.333 -44.667 -80 -94.667 -80 -150c0 -40.667 18.167 -74.167 54.5 -100.5s78.166 -39.5 125.499 -39.5h110v-100h-80
c-46 0 -84.167 -18.833 -114.5 -56.5s-45.5 -82.167 -45.5 -133.5c0 -52.667 24.333 -95.834 73 -129.501s104.334 -50.5 167.001 -50.5c86 0 169.333 33.333 250 100c-93.333 93.333 -140 190 -140 290c0 54.667 14.5 102.834 43.5 144.501s67.833 66.834 116.5 75.501z
" />
    <glyph glyph-name="u091C" unicode="&#x91c;" horiz-adv-x="1094" 
d="M844 600h-239.999c53.333 -74.667 80 -158 80 -250c0 -64 -21 -118.333 -63 -163s-94.333 -67 -157 -67c-76 0 -152.333 49.667 -229 149s-143.667 226.333 -201 381l90 40c49.333 -134 104.666 -245.833 165.999 -335.5s119.333 -134.5 174 -134.5
c34 0 62.5 12.833 85.5 38.5s34.5 56.167 34.5 91.5c0 60 -14.167 119.167 -42.5 177.5s-70.833 115.833 -127.5 172.5h430v210h-850v90h1170v-90h-220v-910h-100v600z" />
    <glyph glyph-name="u091D" unicode="&#x91d;" horiz-adv-x="1098" 
d="M848 500l0.000976562 410h-280v-240h-350c-33.333 0 -50 -10 -50 -30c0 -24 14.333 -55 43 -93s54.334 -57 77.001 -57c20 0 48.333 6.66699 85 20c37.333 13.333 65.666 20 84.999 20c38.667 0 72 -10 100 -30c38 -26.667 91.333 -40 160 -40
c29.333 0 72.666 13.333 129.999 40zM848.001 400c-45.333 -20 -88.667 -30.002 -130 -30.002c-36 0 -72.667 6.66699 -110 20c0 -75.333 -22.167 -137.5 -66.5 -186.5s-105.5 -80.167 -183.5 -93.5c68 -56 124.667 -92.667 170 -110l-50 -70
c-88 41.333 -161.333 91.333 -220 150c-48 0 -91.667 11 -131 33s-59 51 -59 87c0 22.667 7.66699 41.667 23 57s34.333 23 57 23c62.667 0 116 -33.333 160 -100c57.333 10.667 105 33.334 143 68.001s57 75.334 57 122.001c0 40 -16.667 60 -50 60
c-19.333 0 -47.666 -6.66699 -84.999 -20c-36.667 -13.333 -65 -20 -85 -20c-40 0 -86.667 31.333 -140 94s-80 114.667 -80 156c0 37.333 14.667 68.333 44 93s64.666 37 105.999 37h250v140h-474v90h1174v-90h-220v-910h-100v400z" />
    <glyph glyph-name="u091E" unicode="&#x91e;" horiz-adv-x="1108" 
d="M858 440c-54.667 -20 -101.334 -30.001 -140.001 -30.001c-29.333 0 -62.666 10 -99.999 30c-13.333 -74.667 -47 -136.667 -101 -186s-117 -74 -189 -74c-112.667 0 -212.667 63.333 -300 190l70 70c60.667 -106.667 137.334 -160 230.001 -160
c53.333 0 98.333 19.667 135 59s55 86.333 55 141c0 46.667 -15.333 86.667 -46 120s-68.667 50 -114 50c-68 0 -124.667 -26.667 -170 -80l-70 80c66.667 66.667 146.667 100 240 100c60.667 0 115.167 -19.667 163.5 -59s80.5 -89.666 96.5 -150.999
c17.333 -20 50.666 -30 99.999 -30c61.333 0 108 13.333 140 40v360h-864v90h1184v-90h-220v-910h-100v440z" />
    <glyph glyph-name="u091F" unicode="&#x91f;" horiz-adv-x="850" 
d="M678 910v-299.999h-370c-40.667 0 -74.167 -16.833 -100.5 -50.5s-39.5 -73.5 -39.5 -119.5c0 -89.333 31 -165 93 -227s137.667 -93 227 -93c118 0 204.667 46.667 260 140l80 -70c-66.667 -113.333 -180 -170 -340 -170c-117.333 0 -216.666 40.667 -297.999 122
s-122 180.666 -122 297.999c0 74 22.667 137.5 68 190.5s102.666 79.5 171.999 79.5h270v200h-584v90h926v-90h-242z" />
    <glyph glyph-name="u0920" unicode="&#x920;" horiz-adv-x="872" 
d="M676 620h-349.999c-45.333 0 -83.333 -17.833 -114 -53.5s-46 -77.834 -46 -126.501c0 -82 33.167 -157.5 99.5 -226.5s139.833 -103.5 220.5 -103.5c59.333 0 109.166 21.5 149.499 64.5s60.5 94.833 60.5 155.5c0 80.667 -40 154 -120 220l80 60
c93.333 -79.333 140 -172.666 140 -279.999c0 -88.667 -29.833 -164.167 -89.5 -226.5s-133.167 -93.5 -220.5 -93.5c-108 0 -205 44.667 -291 134s-129 188 -129 296c0 77.333 24.833 143.333 74.5 198s111.5 82 185.5 82h250v190h-582v90h948v-90h-266v-290z" />
    <glyph glyph-name="u0921" unicode="&#x921;" horiz-adv-x="950" 
d="M578 20c-109.333 0 -212.834 40.168 -310.501 120.501s-177.5 186.833 -239.5 319.5l80 50c55.333 -117.333 124.833 -211.666 208.5 -282.999s170.834 -107 261.501 -107c56 0 103.333 20.667 142 62s58 90.666 58 147.999c0 20 -4.16699 35 -12.5 45
s-20.833 15 -37.5 15c-20.667 0 -50.667 -6.66699 -90 -20s-69.333 -20 -90 -20c-53.333 0 -110 31.667 -170 95s-90 121.666 -90 174.999c0 36.667 12.5 67.5 37.5 92.5s55.833 37.5 92.5 37.5h270v160h-694v90h1026v-90h-232v-260h-370c-20 0 -30 -10 -30 -30
c0 -28.667 19.5 -64.167 58.5 -106.5s72.833 -63.5 101.5 -63.5c20.667 0 50.667 6.66699 90 20s69.333 20 90 20c42.667 0 78.334 -15.667 107.001 -47s43 -69 43 -113c0 -86 -28.833 -159.167 -86.5 -219.5s-128.834 -90.5 -213.501 -90.5z" />
    <glyph glyph-name="u0922" unicode="&#x922;" horiz-adv-x="870" 
d="M714 270c0 28.667 -9.50098 52.499 -28.501 71.499s-42.833 28.5 -71.5 28.5c-25.333 0 -46.666 -8.66699 -63.999 -26s-26 -38.666 -26 -63.999c0 -34 5.83301 -64.333 17.5 -91s29.167 -49.667 52.5 -69c36 7.33301 65 25 87 53s33 60.333 33 97zM683.999 609.999
l-390.001 -0.000976562c-38 0 -69.167 -16 -93.5 -48s-36.5 -69.333 -36.5 -112c0 -80 34.333 -155 103 -225s144.334 -108.333 227.001 -115c-46.667 38.667 -70 95.334 -70 170.001c0 52.667 18.5 97.5 55.5 134.5s81.833 55.5 134.5 55.5c56 0 103.333 -19.333 142 -58
s58 -86 58 -142c0 -73.333 -32.167 -133.333 -96.5 -180s-138.833 -70 -223.5 -70c-108.667 0 -207.5 44.5 -296.5 133.5s-133.5 187.833 -133.5 296.5c0 70.667 21.833 131.667 65.5 183s98.5 77 164.5 77h290v200h-590v90h946v-90h-256v-300z" />
    <glyph glyph-name="u0923" unicode="&#x923;" horiz-adv-x="1006" 
d="M466 910l-270 0.00195312v-420c0 -40.667 13.5 -75.834 40.5 -105.501s60.167 -44.5 99.5 -44.5c37.333 0 68.333 14.667 93 44s37 64.666 37 105.999v420zM756 910.002h-190v-420c0 -68.667 -22 -127.5 -66 -176.5s-98.667 -73.5 -164 -73.5c-68 0 -125 24.333 -171 73
s-69 107.667 -69 177v420h-102v90h1082v-90h-220v-910h-100v910z" />
    <glyph glyph-name="u0924" unicode="&#x924;" horiz-adv-x="914" 
d="M664 620l-390 -0.00195312c-32 0 -58.333 -12.833 -79 -38.5s-31 -56.167 -31 -91.5c0 -67.333 21.667 -136 65 -206s108.333 -141.333 195 -214l-60 -70c-100 84.667 -175 167.834 -225 249.501s-75 161.834 -75 240.501c0 62.667 20 116.667 60 162s90 68 150 68h390
v190h-670v90h990v-90h-220v-910h-100v620z" />
    <glyph glyph-name="u0925" unicode="&#x925;" horiz-adv-x="1030" 
d="M450 200c-97.333 0 -182.332 33.333 -254.999 100s-117.667 150 -135 250c18 -6.66699 68 -10 150 -10c68.667 0 129.167 19.667 181.5 59s78.5 89.666 78.5 150.999c0 48.667 -15.333 90.834 -46 126.501s-68.667 53.5 -114 53.5c-36.667 0 -69.167 -10.167 -97.5 -30.5
s-42.5 -46.833 -42.5 -79.5c0 -26.667 12 -48.334 36 -65.001s52 -25 84 -25v-100c-66 0 -119.167 17 -159.5 51s-60.5 80.333 -60.5 139c0 60.667 23.667 110.834 71 150.501s103.666 59.5 168.999 59.5c74 0 135.833 -27.333 185.5 -82s74.5 -120.667 74.5 -198
c0 -90 -36.833 -164.167 -110.5 -222.5s-160.167 -87.5 -259.5 -87.5c22 -46.667 53.833 -81.667 95.5 -105s93.167 -35 154.5 -35c56.667 0 112.5 15.833 167.5 47.5s109.167 79.167 162.5 142.5v420h-100v90h420v-90h-220v-910h-100v360
c-53.333 -53.333 -107.5 -93.333 -162.5 -120s-110.833 -40 -167.5 -40z" />
    <glyph glyph-name="u0926" unicode="&#x926;" horiz-adv-x="826" 
d="M896 910l-209.998 0.000976562v-260h-390c-39.333 0 -72.5 -13.5 -99.5 -40.5s-40.5 -60.167 -40.5 -99.5c0 -78.667 39.667 -141.667 119 -189s169.666 -71 270.999 -71c0 44 10 83.333 30 118s46.667 52 80 52c22.667 0 41.667 -7.66699 57 -23s23 -34.333 23 -57
c0 -56.667 -30 -106.667 -90 -150l110 -190l-90 -40l-110 200c-130 0 -245.833 32.167 -347.5 96.5s-152.5 148.833 -152.5 253.5c0 67.333 23.167 124.166 69.5 170.499s103.166 69.5 170.499 69.5h290v160h-592v90h902v-90z" />
    <glyph glyph-name="u0927" unicode="&#x927;" horiz-adv-x="974" 
d="M414 170c-72 0 -134.999 19.6689 -188.999 59.002s-81 89.666 -81 150.999c0 77.333 26.667 134 80 170c-56.667 39.333 -99.167 81.5 -127.5 126.5s-42.5 92.833 -42.5 143.5c0 57.333 19.167 106.666 57.5 147.999s85.833 62 142.5 62
c58 0 104.167 -15.167 138.5 -45.5s51.5 -71.833 51.5 -124.5c0 -45.333 -17.833 -83.333 -53.5 -114s-77.834 -46 -126.501 -46v100c53.333 0 80 20 80 60c0 20.667 -9 37.5 -27 50.5s-39 19.5 -63 19.5c-28.667 0 -52.5 -10.667 -71.5 -32s-28.5 -47.333 -28.5 -78
c0 -41.333 12.5 -79.5 37.5 -114.5s62.5 -66.833 112.5 -95.5c46 20 96 30 150 30h60l60 -100h-110c-57.333 0 -108.333 -14.667 -153 -44s-67 -68 -67 -116c0 -33.333 17.333 -60 52 -80s74 -30 118 -30c56.667 0 110.834 16.667 162.501 50s100.834 83.333 147.501 150
v440h-220v90h540v-90h-220v-910h-100v330c-44.667 -53.333 -92.834 -93.333 -144.501 -120s-106.834 -40 -165.501 -40z" />
    <glyph glyph-name="u0928" unicode="&#x928;" horiz-adv-x="880" 
d="M630 550h-290c-40 0 -60 -13.333 -60 -40v-100c0 -40 -16.667 -60 -50 -60c-25.333 0 -65 34.667 -119 104s-81 118 -81 146c0 33.333 23.333 50 70 50h530v260h-636v90h956v-90h-220v-910h-100v550z" />
    <glyph glyph-name="u0929" unicode="&#x929;" horiz-adv-x="880" 
d="M630 550h-290c-40 0 -60 -13.333 -60 -40v-100c0 -40 -16.667 -60 -50 -60c-25.333 0 -65 34.667 -119 104s-81 118 -81 146c0 33.333 23.333 50 70 50h530v260h-636v90h956v-90h-220v-910h-100v550zM404 76c0 -43.333 -21.667 -65 -65 -65s-65 21.667 -65 65
s21.667 65 65 65s65 -21.667 65 -65z" />
    <glyph glyph-name="u092A" unicode="&#x92a;" horiz-adv-x="806" 
d="M876 910h-219.999v-910h-100v380c-60 -60 -126.667 -90 -200 -90c-74.667 0 -138.334 24.667 -191.001 74s-79 111.333 -79 186v360h-92v90h882v-90zM556.001 530v380h-370v-360c0 -44.667 16.667 -82.5 50 -113.5s73.333 -46.5 120 -46.5c90 0 156.667 46.667 200 140z
" />
    <glyph glyph-name="u092B" unicode="&#x92b;" horiz-adv-x="1164" 
d="M532 530l-0.00195312 380h-350v-350c0 -39.333 14.833 -72.5 44.5 -99.5s64.834 -40.5 105.501 -40.5c82.667 0 149.334 36.667 200.001 110zM531.998 400c-53.333 -53.333 -120.001 -80 -200.001 -80c-69.333 0 -128.333 23 -177 69s-73 103 -73 171v350h-88v90h1240
v-90h-602v-280c56 66.667 126 100 210 100c72 0 131.667 -27.5 179 -82.5s71 -120.833 71 -197.5c0 -120 -43.333 -233.333 -130 -340l-90 50c80 80 120 176.667 120 290c0 48 -14.167 90 -42.5 126s-64.166 54 -107.499 54c-73.333 0 -143.333 -40 -210 -120v-510h-100v400
z" />
    <glyph glyph-name="u092C" unicode="&#x92c;" horiz-adv-x="808" 
d="M338 320c48 0 87.999 13.332 119.999 39.999l-270 220c-20 -25.333 -30 -58.666 -30 -99.999c0 -45.333 17.833 -83.333 53.5 -114s77.834 -46 126.501 -46zM337.999 219.999c-77.333 0 -143.333 24.833 -198 74.5s-82 111.5 -82 185.5c0 82 29.167 150.833 87.5 206.5
s129.166 83.5 212.499 83.5c50 0 93.333 -10 130 -30l-30 -80c-29.333 13.333 -62.666 20 -99.999 20c-59.333 0 -99.333 -13.333 -120 -40l290 -220l30 40v450h-564v90h884v-90h-220v-910h-100v320c-33.333 -33.333 -68.333 -58.333 -105 -75s-75 -25 -115 -25z" />
    <glyph glyph-name="u092D" unicode="&#x92d;" horiz-adv-x="988" 
d="M738 430h-330.001v-80c0 -26.667 -16.667 -40 -50 -40c-21.333 0 -56.666 24.667 -105.999 74s-74 84.666 -74 105.999c0 13.333 4.16699 23.333 12.5 30s20.833 10 37.5 10h80v290c0 28 -8.5 51.667 -25.5 71s-38.5 29 -64.5 29c-24 0 -45 -6.5 -63 -19.5
s-27 -29.833 -27 -50.5c0 -26.667 7.5 -46.667 22.5 -60s37.5 -20 67.5 -20v-100c-52 0 -96.667 17.333 -134 52s-56 77.334 -56 128.001c0 48 18.833 88.333 56.5 121s82.167 49 133.5 49c53.333 0 98.333 -19.667 135 -59s55 -86.333 55 -141v-290h330v380h-260v90h580
v-90h-220v-910h-100v430z" />
    <glyph glyph-name="u092E" unicode="&#x92e;" horiz-adv-x="870" 
d="M620 580v330h-360v-330h360zM620 480h-360v-70c0 -40 -10 -60 -30 -60c-23.333 0 -62.5 24.5 -117.5 73.5s-82.5 84.5 -82.5 106.5c0 33.333 16.667 50 50 50h80v330h-166v90h946v-90h-220v-910h-100v480z" />
    <glyph glyph-name="u092F" unicode="&#x92f;" horiz-adv-x="896" 
d="M386 290c112.667 0 199.332 53.334 259.999 160.001v460h-340c53.333 -64.667 80 -131.334 80 -200.001c0 -60 -23.167 -112.167 -69.5 -156.5s-103.166 -72.166 -170.499 -83.499c9.33301 -52.667 36.833 -95.834 82.5 -129.501s98.167 -50.5 157.5 -50.5z
M385.998 190.001c-98.667 0 -181.667 34.999 -249 104.999s-101 155 -101 255c71.333 0 130.833 14 178.5 42s71.5 67.333 71.5 118c0 66.667 -33.333 133.334 -100 200.001h-192v90h972v-90h-220v-910h-100v310c-80 -80 -166.667 -120 -260 -120z" />
    <glyph glyph-name="u0930" unicode="&#x930;" horiz-adv-x="664" 
d="M332 460c-17.333 0 -44 6.66602 -80 19.999c42.667 -74.667 93.167 -146.167 151.5 -214.5s124.5 -133.5 198.5 -195.5l-60 -70c-107.333 90 -203.5 190.833 -288.5 302.5s-158.833 234.167 -221.5 367.5l90 50c17.333 -48 45.166 -86.667 83.499 -116
s80.5 -44 126.5 -44c31.333 0 57.5 11.833 78.5 35.5s31.5 51.834 31.5 84.501v230h-448v90h740v-90h-192v-230c0 -60.667 -20.167 -112.5 -60.5 -155.5s-90.166 -64.5 -149.499 -64.5z" />
    <glyph glyph-name="u0931" unicode="&#x931;" horiz-adv-x="664" 
d="M332 460c-17.333 0 -44 6.66602 -80 19.999c42.667 -74.667 93.167 -146.167 151.5 -214.5s124.5 -133.5 198.5 -195.5l-60 -70c-107.333 90 -203.5 190.833 -288.5 302.5s-158.833 234.167 -221.5 367.5l90 50c17.333 -48 45.166 -86.667 83.499 -116
s80.5 -44 126.5 -44c31.333 0 57.5 11.833 78.5 35.5s31.5 51.834 31.5 84.501v230h-448v90h740v-90h-192v-230c0 -60.667 -20.167 -112.5 -60.5 -155.5s-90.166 -64.5 -149.499 -64.5zM252 62.999c0 -43.333 -21.667 -65 -65 -65s-65 21.667 -65 65s21.667 65 65 65
s65 -21.667 65 -65z" />
    <glyph glyph-name="u0932" unicode="&#x932;" horiz-adv-x="1092" 
d="M842 600c-60.667 0 -115.169 -26.167 -163.502 -78.5s-83.833 -119.5 -106.5 -201.5l-90 30c10.667 65.333 30.667 115.333 60 150c-44 66.667 -104 100 -180 100c-55.333 0 -102.5 -19.5 -141.5 -58.5s-58.5 -86.167 -58.5 -141.5c0 -63.333 31.333 -123.833 94 -181.5
s141.334 -103.834 236.001 -138.501l-40 -90c-113.333 41.333 -206.666 98.833 -279.999 172.5s-110 152.834 -110 237.501c0 84 29 155 87 213s129 87 213 87c104.667 0 188 -36.667 250 -110c62 73.333 138.667 110 230 110v210h-848v90h1168v-90h-220v-910h-100v600z" />
    <glyph glyph-name="u0933" unicode="&#x933;" horiz-adv-x="1104" 
d="M786 200c45.333 0 81.668 22.335 109.001 67.002s41 95.667 41 153c0 55.333 -13.833 104.166 -41.5 146.499s-63.834 63.5 -108.501 63.5c-39.333 0 -75.333 -20.333 -108 -61s-56.667 -90.334 -72 -149.001c26 -73.333 54 -128.333 84 -165s62 -55 96 -55z
M336.002 210.002c32.667 0 63.167 16.667 91.5 50s54.5 83.333 78.5 150c-20 73.333 -44.167 128.333 -72.5 165s-60.833 55 -97.5 55c-49.333 0 -90 -22 -122 -66s-48 -94.667 -48 -152c0 -54 16 -101.167 48 -141.5s72.667 -60.5 122 -60.5zM826.002 720.002
c64 -11.333 115.003 -45.334 153.003 -102.001s57 -122.667 57 -198c0 -82.667 -23.333 -155 -70 -217s-106.667 -93 -180 -93c-46 0 -88.167 16.667 -126.5 50s-72.833 83.333 -103.5 150c-30.667 -66.667 -64.334 -116.667 -101.001 -150s-76.334 -50 -119.001 -50
c-78 0 -142.5 29.667 -193.5 89s-76.5 130.333 -76.5 213c0 84 25.667 156.333 77 217s115.666 91 192.999 91c48 0 91.833 -16.667 131.5 -50s69.167 -76.666 88.5 -129.999c20 52.667 44.167 94 72.5 124s60.833 48.667 97.5 56v190h-732v90h1180v-90h-348v-190z" />
    <glyph glyph-name="u0934" unicode="&#x934;" horiz-adv-x="1104" 
d="M786 200c45.333 0 81.668 22.335 109.001 67.002s41 95.667 41 153c0 55.333 -13.833 104.166 -41.5 146.499s-63.834 63.5 -108.501 63.5c-39.333 0 -75.333 -20.333 -108 -61s-56.667 -90.334 -72 -149.001c26 -73.333 54 -128.333 84 -165s62 -55 96 -55z
M336.002 210.002c32.667 0 63.167 16.667 91.5 50s54.5 83.333 78.5 150c-20 73.333 -44.167 128.333 -72.5 165s-60.833 55 -97.5 55c-49.333 0 -90 -22 -122 -66s-48 -94.667 -48 -152c0 -54 16 -101.167 48 -141.5s72.667 -60.5 122 -60.5zM826.002 720.002
c64 -11.333 115.003 -45.334 153.003 -102.001s57 -122.667 57 -198c0 -82.667 -23.333 -155 -70 -217s-106.667 -93 -180 -93c-46 0 -88.167 16.667 -126.5 50s-72.833 83.333 -103.5 150c-30.667 -66.667 -64.334 -116.667 -101.001 -150s-76.334 -50 -119.001 -50
c-78 0 -142.5 29.667 -193.5 89s-76.5 130.333 -76.5 213c0 84 25.667 156.333 77 217s115.666 91 192.999 91c48 0 91.833 -16.667 131.5 -50s69.167 -76.666 88.5 -129.999c20 52.667 44.167 94 72.5 124s60.833 48.667 97.5 56v190h-732v90h1180v-90h-348v-190z
M621.005 64.001c0 -43.333 -21.667 -65 -65 -65s-65 21.667 -65 65s21.667 65 65 65s65 -21.667 65 -65z" />
    <glyph glyph-name="u0935" unicode="&#x935;" 
d="M356 220c-82.667 0 -153.333 25.6699 -212 77.0029s-88 115.666 -88 192.999s29.333 141.666 88 192.999s129.334 77 212.001 77c49.333 0 92.666 -13.333 129.999 -40l-50 -80c-25.333 20 -52 30 -80 30c-54 0 -100.833 -17.333 -140.5 -52
s-59.5 -77.334 -59.5 -128.001c0 -48.667 19.833 -89.167 59.5 -121.5s86.5 -48.5 140.5 -48.5c41.333 0 79.5 12.5 114.5 37.5s66.833 62.5 95.5 112.5v440h-572v90h892v-90h-220v-910h-100v320c-55.333 -66.667 -125.333 -100 -210 -100zM582.001 1.00293z" />
    <glyph glyph-name="u0936" unicode="&#x936;" horiz-adv-x="1016" 
d="M266 310l290.001 -240l-60 -70l-450 380l50 70c56 -46.667 92.667 -70 110 -70c77.333 0 141.666 29.333 192.999 88s77 129.334 77 212.001c-37.333 -66.667 -97.333 -100 -180 -100c-56 0 -103.333 20.667 -142 62s-58 90.666 -58 147.999
c0 64 20.833 118.333 62.5 163s94.167 67 157.5 67c76.667 0 139.167 -34.333 187.5 -103s72.5 -147.667 72.5 -237c0 -99.333 -29.167 -185.833 -87.5 -259.5s-132.5 -110.5 -222.5 -110.5zM456.001 790c-32.667 86.667 -79.333 130 -140 130
c-35.333 0 -64.166 -12.833 -86.499 -38.5s-33.5 -56.167 -33.5 -91.5c0 -30 9.5 -55.833 28.5 -77.5s42.833 -32.5 71.5 -32.5c71.333 0 124.666 36.667 159.999 110zM1086 910h-220v-910h-100v910h-200v90h520v-90z" />
    <glyph glyph-name="u0937" unicode="&#x937;" horiz-adv-x="804" 
d="M554 580v330h-350zM554 470l-370 340v-250c0 -44.667 15.5 -82.5 46.5 -113.5s68.833 -46.5 113.5 -46.5c85.333 0 155.333 23.333 210 70zM554 360c-56 -40 -126 -60 -210 -60c-72 0 -133.333 25.333 -184 76s-76 112 -76 184v350h-90v90h880v-90h-220v-910h-100v360z
" />
    <glyph glyph-name="u0938" unicode="&#x938;" horiz-adv-x="1066" 
d="M306 450c-30.667 0 -53.3311 5.99805 -67.998 17.998c45.333 -73.333 97.166 -143.166 155.499 -209.499s123.166 -129.166 194.499 -188.499l-60 -70c-107.333 90 -203.5 190.833 -288.5 302.5s-158.833 234.167 -221.5 367.5l90 50c24.667 -60 51 -105 79 -135
s57.667 -45 89 -45c28.667 0 52.5 9.5 71.5 28.5s28.5 42.833 28.5 71.5v270h-382v90h1142v-90h-220v-910h-100v480h-270l-50 100h320v330h-340v-270c0 -51.333 -16.333 -95.833 -49 -133.5s-73 -56.5 -121 -56.5z" />
    <glyph glyph-name="u0939" unicode="&#x939;" horiz-adv-x="792" 
d="M862 910h-210v-240h-410c-33.333 0 -50 -10 -50 -30c0 -58 36.667 -104.667 110 -140c46 20 96 30 150 30c72.667 0 135.834 -20.5 189.501 -61.5s80.5 -93.833 80.5 -158.5c0 -75.333 -26.667 -128.666 -80 -159.999l-80 70c40 23.333 60 53.333 60 90
c0 35.333 -17.167 64.166 -51.5 86.499s-73.833 33.5 -118.5 33.5c-66 0 -125.833 -15.5 -179.5 -46.5s-80.5 -72.167 -80.5 -123.5c0 -68.667 46.167 -122.5 138.5 -161.5s192.833 -58.5 301.5 -58.5l-20 -90c-132.667 0 -252.5 28 -359.5 84s-160.5 131.333 -160.5 226
c0 84.667 36.667 148 110 190c-73.333 62 -110 125.333 -110 190c0 37.333 14.667 68.333 44 93s64.666 37 105.999 37h310v140h-558v90h868v-90z" />
    <glyph glyph-name="u093C" unicode="&#x93c;" horiz-adv-x="0" 
d="M-855 55c0 43.333 21.667 65 65 65s65 -21.667 65 -65s-21.667 -65 -65 -65s-65 21.667 -65 65z" />
    <glyph glyph-name="u093D" unicode="&#x93d;" horiz-adv-x="664" 
d="M38 322l90 47.999c21.333 -72 53.666 -132.333 96.999 -181s91 -73 143 -73c38.667 0 70 17.5 94 52.5s36 74.833 36 119.5c0 94 -70 186 -210 276c-93.333 60.667 -140 139.334 -140 236.001c0 51.333 20.833 94.166 62.5 128.499s90.834 51.5 147.501 51.5h240v-102
h-240c-29.333 0 -55 -7.5 -77 -22.5s-33 -34.833 -33 -59.5c0 -68.667 63.333 -144.667 190 -228c106.667 -69.333 160 -162.666 160 -279.999c0 -75.333 -21.5 -140.833 -64.5 -196.5s-98.167 -83.5 -165.5 -83.5c-73.333 0 -139.833 29.667 -199.5 89
s-103.167 134.333 -130.5 225z" />
    <glyph glyph-name="u093E" unicode="&#x93e;" horiz-adv-x="400" 
d="M470 910h-220v-910h-100v910h-156v90h476v-90z" />
    <glyph glyph-name="u093F" unicode="&#x93f;" horiz-adv-x="400" 
d="M1010 1020h-109.999c-55.333 94.667 -123.5 170 -204.5 226s-166.167 84 -255.5 84c-60 0 -111.667 -19 -155 -57s-65 -85.667 -65 -143c0 -60.667 10 -104 30 -130h220v-90h-220v-910h-100v910h-156v90h156c-20 26 -30 69.333 -30 130c0 82 31.5 150.833 94.5 206.5
s138.167 83.5 225.5 83.5c108 0 212.167 -36 312.5 -108s186.166 -169.333 257.499 -292z" />
    <glyph glyph-name="u0940" unicode="&#x940;" horiz-adv-x="400" 
d="M470 910h-220v-910h-100v910h-156v90h156c-25.333 92 -61.333 170 -108 234s-97.334 96 -152.001 96c-35.333 0 -64.166 -12.833 -86.499 -38.5s-33.5 -56.167 -33.5 -91.5c0 -53.333 33.333 -113.333 100 -180h-110c-60 60 -90 120 -90 180
c0 62 21.167 114.167 63.5 156.5s94.5 63.5 156.5 63.5c78 0 149.5 -40.5 214.5 -121.5s113.5 -180.5 145.5 -298.5h220v-90z" />
    <glyph glyph-name="u0941" unicode="&#x941;" horiz-adv-x="0" 
d="M-760 -210l70.001 90c151.333 -126.667 281.333 -190 390 -190c55.333 0 104.166 13.833 146.499 41.5s63.5 63.834 63.5 108.501c0 33.333 -10.333 61.666 -31 84.999s-47 35 -79 35c-68 0 -121.333 -23.333 -160 -70l-70 70c56 66.667 132.667 100 230 100
c59.333 0 109.166 -21.5 149.499 -64.5s60.5 -94.833 60.5 -155.5c0 -73.333 -31 -133.333 -93 -180s-134.333 -70 -217 -70c-145.333 0 -298.666 66.667 -459.999 200z" />
    <glyph glyph-name="u0942" unicode="&#x942;" horiz-adv-x="0" 
d="M250 -340l-90.002 -39.999c-38 102.667 -88.333 186.667 -151 252s-129 98 -199 98c-40.667 0 -75.834 -13.5 -105.501 -40.5s-44.5 -60.167 -44.5 -99.5c0 -30.667 10.667 -56.667 32 -78s47.333 -32 78 -32c34.667 0 71.334 16.667 110.001 50l50 -90
c-56 -40 -109.333 -60 -160 -60c-57.333 0 -106.666 20.667 -147.999 62s-62 90.666 -62 147.999c0 68 24.333 125 73 171s107.667 69 177 69c91.333 0 176.333 -38.5 255 -115.5s140.334 -175.167 185.001 -294.5z" />
    <glyph glyph-name="u0943" unicode="&#x943;" horiz-adv-x="0" 
d="M-12 -330c-64.667 -53.333 -144.667 -80 -240 -80c-69.333 0 -128.333 21.833 -177 65.5s-73 98.5 -73 164.5c0 64.667 26.833 117.5 80.5 158.5s116.834 61.5 189.501 61.5h90v-90h-90c-44.667 0 -84.167 -12 -118.5 -36s-51.5 -55.333 -51.5 -94
c0 -37.333 14.667 -68.333 44 -93s64.666 -37 105.999 -37c80 0 143.333 23.333 190 70z" />
    <glyph glyph-name="u0944" unicode="&#x944;" horiz-adv-x="0" 
d="M-34 -350c-47.333 -33.333 -117.333 -49.9961 -210 -49.9961c-62.667 0 -120 12.5 -172 37.5s-78 59.167 -78 102.5c0 47.333 36.667 84 110 110c-60 15.333 -90 48.666 -90 99.999c0 35.333 15 64.166 45 86.499s65 33.5 105 33.5h180v-70h-160
c-53.333 0 -80 -16.667 -80 -50c0 -18.667 12.667 -33.334 38 -44.001s52.666 -16 81.999 -16h70v-80h-90c-29.333 0 -56.666 -6.33301 -81.999 -19s-38 -29.667 -38 -51c0 -18.667 15.167 -33.334 45.5 -44.001s61.833 -16 94.5 -16c96 0 162.667 13.333 200 40z" />
    <glyph glyph-name="u0945" unicode="&#x945;" horiz-adv-x="0" 
d="M110 1400c-13.333 -78 -47.833 -142.5 -103.5 -193.5s-121.167 -76.5 -196.5 -76.5s-140.833 25.5 -196.5 76.5s-90.167 115.5 -103.5 193.5h100c9.33301 -54 32.5 -99.167 69.5 -135.5s80.5 -54.5 130.5 -54.5s93.5 18.167 130.5 54.5s60.167 81.5 69.5 135.5h100z" />
    <glyph glyph-name="u0946" unicode="&#x946;" horiz-adv-x="0" 
d="M-144 1000l-99.999 0.000976562c0 57.333 -19.333 106.666 -58 147.999s-86 62 -142 62c-75.333 0 -140.833 25.5 -196.5 76.5s-90.167 115.5 -103.5 193.5h100c9.33301 -54 32.5 -99.167 69.5 -135.5s80.5 -54.5 130.5 -54.5c83.333 0 154.166 -27.833 212.499 -83.5
s87.5 -124.5 87.5 -206.5z" />
    <glyph glyph-name="u0947" unicode="&#x947;" horiz-adv-x="0" 
d="M-154 1000h-100l-370 440l70 60z" />
    <glyph glyph-name="u0948" unicode="&#x948;" horiz-adv-x="0" 
d="M-158 1000h-130l-430 210l50 90l450 -290l-220 430l100 60z" />
    <glyph glyph-name="u0949" unicode="&#x949;" horiz-adv-x="400" 
d="M470 910h-220v-910h-100v910h-156v90h476v-90zM301 1400c-13.333 -78 -47.833 -142.5 -103.5 -193.5s-121.167 -76.5 -196.5 -76.5s-140.833 25.5 -196.5 76.5s-90.167 115.5 -103.5 193.5h100c9.33301 -54 32.5 -99.167 69.5 -135.5s80.5 -54.5 130.5 -54.5
s93.5 18.167 130.5 54.5s60.167 81.5 69.5 135.5h100z" />
    <glyph glyph-name="u094A" unicode="&#x94a;" horiz-adv-x="400" 
d="M470 910h-220v-910h-100v910h-156v90h476v-90zM251 1000l-99.999 0.000976562c0 57.333 -19.333 106.666 -58 147.999s-86 62 -142 62c-75.333 0 -140.833 25.5 -196.5 76.5s-90.167 115.5 -103.5 193.5h100c9.33301 -54 32.5 -99.167 69.5 -135.5
s80.5 -54.5 130.5 -54.5c83.333 0 154.166 -27.833 212.499 -83.5s87.5 -124.5 87.5 -206.5z" />
    <glyph glyph-name="u094B" unicode="&#x94b;" horiz-adv-x="400" 
d="M470 910h-220v-910h-100v910h-156v90h476v-90zM246 1000h-100l-370 440l70 60z" />
    <glyph glyph-name="u094C" unicode="&#x94c;" horiz-adv-x="400" 
d="M470 910h-220v-910h-100v910h-156v90h476v-90zM260 1000h-130l-430 210l50 90l450 -290l-220 430l100 60z" />
    <glyph glyph-name="u094D" unicode="&#x94d;" horiz-adv-x="0" 
d="M168 -270l-60 -60l-300 240l-70 -40l-40 80l110 50z" />
    <glyph glyph-name="u0950" unicode="&#x950;" horiz-adv-x="1468" 
d="M1358 1142c-13.333 -78 -47.833 -142.5 -103.5 -193.5s-121.167 -76.5 -196.5 -76.5s-140.833 25.5 -196.5 76.5s-90.167 115.5 -103.5 193.5h100c9.33301 -54 32.5 -99.167 69.5 -135.5s80.5 -54.5 130.5 -54.5s93.5 18.167 130.5 54.5s60.167 81.5 69.5 135.5h100z
M1118 1157c0 -43.333 -21.667 -65 -65 -65s-65 21.667 -65 65s21.667 65 65 65s65 -21.667 65 -65zM908 320l90.001 -0.00390625c0 -44 15.667 -81.667 47 -113s69 -47 113 -47c42 0 75.833 21.333 101.5 64s38.5 91.334 38.5 146.001
c0 55.333 -13.833 104.166 -41.5 146.499s-63.834 63.5 -108.501 63.5c-67.333 0 -124 -40 -170 -120c-34 -60 -100.667 -90 -200 -90c-17.333 0 -50.666 6.66699 -99.999 20c20 -25.333 30 -62 30 -110c0 -72 -22.833 -133.333 -68.5 -184s-102.834 -76 -171.501 -76
c-86.667 0 -169.167 33.333 -247.5 100s-142.5 153.334 -192.5 260.001l90 50c42.667 -92 95.334 -166.667 158.001 -224s126.667 -86 192 -86c40 0 73.333 15.667 100 47s40 69 40 113s-10 83.333 -30 118s-46.667 52 -80 52c-30 0 -56.667 -3.33301 -80 -10l-60 70
c59.333 5.33301 112.166 24.833 158.499 58.5s69.5 74.167 69.5 121.5c0 42 -15.167 77.5 -45.5 106.5s-67.166 43.5 -110.499 43.5c-68.667 0 -136 -50 -202 -150l-76 62c80.667 126.667 174 190 280 190c71.333 0 131.833 -24.167 181.5 -72.5
s74.5 -108.166 74.5 -179.499c0 -31.333 -7.5 -61.166 -22.5 -89.499s-37.5 -55.166 -67.5 -80.499c29.333 -16.667 59 -29.167 89 -37.5s60.333 -12.5 91 -12.5c68.667 0 122 33.333 160 100c42 73.333 112 110 210 110c73.333 0 133.333 -31 180 -93s70 -134.333 70 -217
c0 -82 -22.333 -154.167 -67 -216.5s-102.334 -93.5 -173.001 -93.5s-130 25.333 -178 76s-72 112 -72 184z" />
    <glyph glyph-name="u0951" unicode="&#x951;" horiz-adv-x="0" 
d="M-130 1010h-130v392h130v-392z" />
    <glyph glyph-name="u0952" unicode="&#x952;" horiz-adv-x="0" 
d="M-80 -110h-790v90h790v-90z" />
    <glyph glyph-name="u0953" unicode="&#x953;" horiz-adv-x="0" 
d="M-158 1264h-74l-218 236h130z" />
    <glyph glyph-name="u0954" unicode="&#x954;" horiz-adv-x="0" 
d="M-158 1500l-218 -236h-74l162 236h130z" />
    <glyph glyph-name="u0958" unicode="&#x958;" horiz-adv-x="1126" 
d="M318 210c-72 0 -133.332 25.333 -183.999 76s-76 112 -76 184c0 82 29.167 150.833 87.5 206.5s129.166 83.5 212.499 83.5c50.667 0 84 -6.66699 100 -20l-20 -100c-24 13.333 -50.667 20 -80 20c-54.667 0 -101.667 -18.333 -141 -55s-59 -81.667 -59 -135
c0 -44.667 15.5 -82.5 46.5 -113.5s68.833 -46.5 113.5 -46.5c42 0 79.667 10.833 113 32.5s62.333 54.167 87 97.5v470h-524v90h1202v-90h-578v-270c46 80 116 120 210 120c66.667 0 121.667 -26.5 165 -79.5s65 -116.5 65 -190.5c0 -132.667 -63.333 -252.667 -190 -360
l-90 60c120 86 180 186 180 300c0 44.667 -12 84.167 -36 118.5s-55.333 51.5 -94 51.5c-48.667 0 -92.167 -18 -130.5 -54s-64.833 -81.333 -79.5 -136v-470h-100v300c-51.333 -60 -118 -90 -200 -90zM370.001 76c0 -43.333 -21.667 -65 -65 -65s-65 21.667 -65 65
s21.667 65 65 65s65 -21.667 65 -65z" />
    <glyph glyph-name="u0959" unicode="&#x959;" horiz-adv-x="1240" 
d="M610 90c76.667 0 148.833 21.667 216.5 65s122.167 101.666 163.5 174.999v80c-54.667 -46.667 -108 -70 -160 -70c-66 0 -122.5 20.333 -169.5 61s-70.5 91.667 -70.5 153c0 62 23.5 113.5 70.5 154.5s103.5 61.5 169.5 61.5c50 0 93.333 -10 130 -30v-100
c-54.667 20 -98 30 -130 30c-37.333 0 -70 -11 -98 -33s-42 -49.667 -42 -83s14 -60.666 42 -81.999s60.667 -32 98 -32c42 0 95.333 26.667 160 80v390h-550v-220c0 -61.333 -16.833 -115 -50.5 -161s-76.834 -69 -129.501 -69c-16.667 0 -33.334 3.33301 -50.001 10
c40.667 -111.333 96.834 -202.5 168.501 -273.5s148.834 -106.5 231.501 -106.5zM609.999 0c-123.333 0 -236.333 63.332 -339 189.999s-179.667 283.334 -231 470.001l80 40c32 -93.333 78.667 -140 140 -140c24.667 0 44.167 13.167 58.5 39.5s21.5 56.5 21.5 90.5v220
h-346v90h1316v-90h-220v-910h-100v200c-46.667 -66.667 -101.667 -116.667 -165 -150s-135 -50 -215 -50zM221.999 75.999c0 -43.333 -21.667 -65 -65 -65s-65 21.667 -65 65s21.667 65 65 65s65 -21.667 65 -65z" />
    <glyph glyph-name="u095A" unicode="&#x95a;" horiz-adv-x="778" 
d="M528 910h-250v-490c0 -40 -16.667 -60 -50 -60c-27.333 0 -67.5 31.167 -120.5 93.5s-79.5 107.833 -79.5 136.5c0 13.333 3.33301 23.333 10 30s16.667 10 30 10h70c26.667 0 40 16.667 40 50v230h-184v90h854v-90h-220v-910h-100v910zM263 76
c0 -43.333 -21.667 -65 -65 -65s-65 21.667 -65 65s21.667 65 65 65s65 -21.667 65 -65z" />
    <glyph glyph-name="u095B" unicode="&#x95b;" horiz-adv-x="1094" 
d="M844 600h-239.999c53.333 -74.667 80 -158 80 -250c0 -64 -21 -118.333 -63 -163s-94.333 -67 -157 -67c-76 0 -152.333 49.667 -229 149s-143.667 226.333 -201 381l90 40c49.333 -134 104.666 -245.833 165.999 -335.5s119.333 -134.5 174 -134.5
c34 0 62.5 12.833 85.5 38.5s34.5 56.167 34.5 91.5c0 60 -14.167 119.167 -42.5 177.5s-70.833 115.833 -127.5 172.5h430v210h-850v90h1170v-90h-220v-910h-100v600zM305.001 38c0 -43.333 -21.667 -65 -65 -65s-65 21.667 -65 65s21.667 65 65 65s65 -21.667 65 -65z" />
    <glyph glyph-name="u095C" unicode="&#x95c;" horiz-adv-x="950" 
d="M578 20c-109.333 0 -212.834 40.168 -310.501 120.501s-177.5 186.833 -239.5 319.5l80 50c55.333 -117.333 124.833 -211.666 208.5 -282.999s170.834 -107 261.501 -107c56 0 103.333 20.667 142 62s58 90.666 58 147.999c0 20 -4.16699 35 -12.5 45
s-20.833 15 -37.5 15c-20.667 0 -50.667 -6.66699 -90 -20s-69.333 -20 -90 -20c-53.333 0 -110 31.667 -170 95s-90 121.666 -90 174.999c0 36.667 12.5 67.5 37.5 92.5s55.833 37.5 92.5 37.5h270v160h-694v90h1026v-90h-232v-260h-370c-20 0 -30 -10 -30 -30
c0 -28.667 19.5 -64.167 58.5 -106.5s72.833 -63.5 101.5 -63.5c20.667 0 50.667 6.66699 90 20s69.333 20 90 20c42.667 0 78.334 -15.667 107.001 -47s43 -69 43 -113c0 -86 -28.833 -159.167 -86.5 -219.5s-128.834 -90.5 -213.501 -90.5zM641.999 -124.999
c0 -43.333 -21.667 -65 -65 -65s-65 21.667 -65 65s21.667 65 65 65s65 -21.667 65 -65z" />
    <glyph glyph-name="u095D" unicode="&#x95d;" horiz-adv-x="870" 
d="M714 270c0 28.667 -9.50098 52.499 -28.501 71.499s-42.833 28.5 -71.5 28.5c-25.333 0 -46.666 -8.66699 -63.999 -26s-26 -38.666 -26 -63.999c0 -34 5.83301 -64.333 17.5 -91s29.167 -49.667 52.5 -69c36 7.33301 65 25 87 53s33 60.333 33 97zM683.999 609.999
l-390.001 -0.000976562c-38 0 -69.167 -16 -93.5 -48s-36.5 -69.333 -36.5 -112c0 -80 34.333 -155 103 -225s144.334 -108.333 227.001 -115c-46.667 38.667 -70 95.334 -70 170.001c0 52.667 18.5 97.5 55.5 134.5s81.833 55.5 134.5 55.5c56 0 103.333 -19.333 142 -58
s58 -86 58 -142c0 -73.333 -32.167 -133.333 -96.5 -180s-138.833 -70 -223.5 -70c-108.667 0 -207.5 44.5 -296.5 133.5s-133.5 187.833 -133.5 296.5c0 70.667 21.833 131.667 65.5 183s98.5 77 164.5 77h290v200h-590v90h946v-90h-256v-300zM547.998 -125.002
c0 -43.333 -21.667 -65 -65 -65s-65 21.667 -65 65s21.667 65 65 65s65 -21.667 65 -65z" />
    <glyph glyph-name="u095E" unicode="&#x95e;" horiz-adv-x="1164" 
d="M532 530l-0.00195312 380h-350v-350c0 -39.333 14.833 -72.5 44.5 -99.5s64.834 -40.5 105.501 -40.5c82.667 0 149.334 36.667 200.001 110zM531.998 400c-53.333 -53.333 -120.001 -80 -200.001 -80c-69.333 0 -128.333 23 -177 69s-73 103 -73 171v350h-88v90h1240
v-90h-602v-280c56 66.667 126 100 210 100c72 0 131.667 -27.5 179 -82.5s71 -120.833 71 -197.5c0 -120 -43.333 -233.333 -130 -340l-90 50c80 80 120 176.667 120 290c0 48 -14.167 90 -42.5 126s-64.166 54 -107.499 54c-73.333 0 -143.333 -40 -210 -120v-510h-100v400
zM322.997 75c0 -43.333 -21.667 -65 -65 -65s-65 21.667 -65 65s21.667 65 65 65s65 -21.667 65 -65z" />
    <glyph glyph-name="u095F" unicode="&#x95f;" horiz-adv-x="896" 
d="M386 290c112.667 0 199.332 53.334 259.999 160.001v460h-340c53.333 -64.667 80 -131.334 80 -200.001c0 -60 -23.167 -112.167 -69.5 -156.5s-103.166 -72.166 -170.499 -83.499c9.33301 -52.667 36.833 -95.834 82.5 -129.501s98.167 -50.5 157.5 -50.5z
M385.998 190.001c-98.667 0 -181.667 34.999 -249 104.999s-101 155 -101 255c71.333 0 130.833 14 178.5 42s71.5 67.333 71.5 118c0 66.667 -33.333 133.334 -100 200.001h-192v90h972v-90h-220v-910h-100v310c-80 -80 -166.667 -120 -260 -120zM310.998 75
c0 -43.333 -21.667 -65 -65 -65s-65 21.667 -65 65s21.667 65 65 65s65 -21.667 65 -65z" />
    <glyph glyph-name="u0960" unicode="&#x960;" horiz-adv-x="1326" 
d="M748 460v-460h-100v380l-410 -190l-60 80l390 180l-110 110c-60 60 -110 90 -150 90c-56 0 -132.667 -33.333 -230 -100l-60 70c116 80 212.667 120 290 120c60 0 120 -30 180 -90l160 -160v420h-654v90h1402v-90h-648v-360l170 80c-2.66699 10 -4 19.667 -4 29
c0 24 8 45.167 24 63.5s36 27.5 60 27.5c60 0 90 -26.667 90 -80c0 -45.333 -13.333 -75.333 -40 -90l70 -130c-45.333 -8 -83.333 -25.833 -114 -53.5s-46 -59.834 -46 -96.501c0 -42 15.833 -77.5 47.5 -106.5s69.167 -43.5 112.5 -43.5c35.333 0 82 16.667 140 50l50 -90
c-72 -33.333 -135.333 -50 -190 -50c-72 0 -133.333 22.833 -184 68.5s-76 102.834 -76 171.501c0 43.333 10.833 80.833 32.5 112.5s54.167 57.5 97.5 77.5l-40 60z" />
    <glyph glyph-name="u0961" unicode="&#x961;" horiz-adv-x="1064" 
d="M896 370c0 58 -15.834 109.168 -47.501 153.501s-72.5 66.5 -122.5 66.5c-43.333 0 -83 -26.167 -119 -78.5s-63 -116.166 -81 -191.499l-100 30c10.667 48 27.334 94.667 50.001 140c-40.667 66.667 -94 100 -160 100c-44 0 -80 -19.167 -108 -57.5
s-42 -82.5 -42 -132.5c0 -67.333 23.167 -129.833 69.5 -187.5s106.5 -101.834 180.5 -132.501l-40 -80c-92 39.333 -166.667 95 -224 167s-86 149.667 -86 233c0 78.667 23.667 146.667 71 204s107 86 179 86c83.333 0 153.333 -40 210 -120
c41.333 66 94.666 106 159.999 120v220h-692v90h1140v-90h-348v-220c64.667 -19.333 115.834 -58.5 153.501 -117.5s56.5 -126.5 56.5 -202.5c0 -80 -25.167 -149.833 -75.5 -209.5s-115.166 -96.5 -194.499 -110.5c-46.667 -8 -70 -28 -70 -60c0 -24 11 -43.333 33 -58
s47.667 -22 77 -22h70v-80h-70c-28.667 0 -54.167 -7 -76.5 -21s-33.5 -32.333 -33.5 -55c0 -24.667 11.167 -44.834 33.5 -60.501s47.833 -23.5 76.5 -23.5c70.667 0 134 20 190 60l40 -80c-66 -46.667 -142.667 -70 -230 -70c-56 0 -105 16 -147 48s-63 72.667 -63 122
c0 59.333 30 99.333 90 120c-60 15.333 -90 55.333 -90 120c0 42 15.667 77.833 47 107.5s69.666 46.5 114.999 50.5c52.667 4 95.5 27.5 128.5 70.5s49.5 93.5 49.5 151.5z" />
    <glyph glyph-name="u0962" unicode="&#x962;" horiz-adv-x="0" 
d="M54 -192c0 45.333 -11.168 83.6689 -33.501 115.002s-52.5 47 -90.5 47c-31.333 0 -60.333 -19 -87 -57s-46.334 -84.333 -59.001 -139l-72 22c8 36 20 70 36 102c-28 48 -67.333 72 -118 72c-31.333 0 -57.166 -14 -77.499 -42s-30.5 -60 -30.5 -96
c0 -48.667 15.167 -91.834 45.5 -129.501s75.833 -69.834 136.5 -96.501l-30 -66c-68 28 -123.667 68.333 -167 121s-65 109.667 -65 171c0 59.333 17.833 110.5 53.5 153.5s80.5 64.5 134.5 64.5c68 0 120.667 -27.333 158 -82c34.667 54.667 82 82 142 82
c60.667 0 109.834 -23.5 147.501 -70.5s56.5 -104.167 56.5 -171.5c0 -55.333 -15 -103.333 -45 -144s-70.333 -67.334 -121 -80.001c-69.333 -17.333 -104 -56.666 -104 -117.999c0 -27.333 10.167 -50.166 30.5 -68.499s44.833 -27.5 73.5 -27.5
c54 0 99.333 12.667 136 38l24 -66c-48 -34.667 -101.333 -52 -160 -52c-50.667 0 -94 17 -130 51s-54 75.667 -54 125c0 47.333 14.5 88.5 43.5 123.5s66.5 56.5 112.5 64.5c76 13.333 114 64.666 114 153.999z" />
    <glyph glyph-name="u0963" unicode="&#x963;" horiz-adv-x="0" 
d="M54 -180c0 40 -11.668 75.001 -35.001 105.001s-53 45 -89 45c-31.333 0 -60.333 -19 -87 -57s-46.334 -84.333 -59.001 -139l-72 22c8 36 20 70 36 102c-28 48 -67.333 72 -118 72c-31.333 0 -57.166 -14 -77.499 -42s-30.5 -60 -30.5 -96
c0 -48.667 15.167 -91.834 45.5 -129.501s75.833 -69.834 136.5 -96.501l-30 -66c-68 28 -123.667 68.333 -167 121s-65 109.667 -65 171c0 59.333 17.833 110.5 53.5 153.5s80.5 64.5 134.5 64.5c68 0 120.667 -27.333 158 -82c34.667 54.667 82 82 142 82
c58.667 0 107.334 -22.5 146.001 -67.5s58 -99.167 58 -162.5c0 -60.667 -18.333 -113.834 -55 -159.501s-83.667 -73.167 -141 -82.5c-34.667 -5.33301 -52 -21.333 -52 -48c0 -37.333 24.667 -56 74 -56h48v-58h-48c-18.667 0 -35.667 -5.66699 -51 -17
s-23 -25.666 -23 -42.999c0 -33.333 24.667 -50 74 -50c60 0 108.667 13.333 146 40l28 -72c-45.333 -32 -103.333 -48 -174 -48c-41.333 0 -77.333 12.167 -108 36.5s-46 55.5 -46 93.5c0 44.667 20 74 60 88c-40 12.667 -60 41.334 -60 86.001
c0 31.333 11.5 58.5 34.5 81.5s50.833 35.833 83.5 38.5c38.667 2.66699 70 20.5 94 53.5s36 71.833 36 116.5z" />
    <glyph glyph-name="u0964" unicode="&#x964;" horiz-adv-x="400" 
d="M250 0h-100v1000h100v-1000z" />
    <glyph glyph-name="u0965" unicode="&#x965;" horiz-adv-x="720" 
d="M570 0h-100v1000h100v-1000zM250 0h-100v1000h100v-1000z" />
    <glyph glyph-name="u0966" unicode="&#x966;" horiz-adv-x="1000" 
d="M500 150c-97.333 0 -180 34 -248 102s-102 150.667 -102 248s34 180 102 248s150.667 102 248 102s180 -34 248 -102s102 -150.667 102 -248s-34 -180 -102 -248s-150.667 -102 -248 -102zM500 250c70 0 129.167 24.167 177.5 72.5s72.5 107.5 72.5 177.5
c0 70.667 -24 130 -72 178s-107.333 72 -178 72c-70 0 -129.167 -24.167 -177.5 -72.5s-72.5 -107.5 -72.5 -177.5c0 -69.333 24.333 -128.333 73 -177s107.667 -73 177 -73z" />
    <glyph glyph-name="u0967" unicode="&#x967;" horiz-adv-x="1000" 
d="M490 510c-74.667 0 -136.667 26.3301 -186 78.9971s-74 116.334 -74 191.001s24.667 138.334 74 191.001s111.333 79 186 79c86.667 0 155 -27.167 205 -81.5s75 -127.166 75 -218.499v-800h-100v630c-46.667 -46.667 -106.667 -70 -180 -70zM490 599.997
c47.333 0 87.5 17.6689 120.5 53.002s49.5 77.666 49.5 126.999c0 51.333 -16.333 95.833 -49 133.5s-73 56.5 -121 56.5c-46 0 -84.167 -18.833 -114.5 -56.5s-45.5 -82.167 -45.5 -133.5c0 -48.667 15.333 -90.834 46 -126.501s68.667 -53.5 114 -53.5zM874 1058z" />
    <glyph glyph-name="u0968" unicode="&#x968;" horiz-adv-x="1000" 
d="M560 320l240 -330l-80 -60l-260 350c-16.667 -6.66699 -40 -10 -70 -10c-40 0 -75 11.167 -105 33.5s-45 51.166 -45 86.499c0 23.333 9.83301 42.5 29.5 57.5s43.167 22.5 70.5 22.5c53.333 0 106.666 -26.667 159.999 -80c68.667 25.333 124.167 67 166.5 125
s63.5 123 63.5 195c0 69.333 -21.833 128.333 -65.5 177s-98.5 73 -164.5 73c-92.667 0 -182.667 -36.667 -270 -110l-60 80c106.667 86.667 216.667 130 330 130c92.667 0 170.834 -34.333 234.501 -103s95.5 -151 95.5 -247c0 -87.333 -24.5 -166.666 -73.5 -237.999
s-114.5 -122 -196.5 -152zM874 1058z" />
    <glyph glyph-name="u0969" unicode="&#x969;" horiz-adv-x="998" 
d="M514 50c66.667 -114.667 120 -181.331 160 -199.998l-80 -70c-56.667 32.667 -116.667 116 -180 250c-48 0 -90 14.167 -126 42.5s-54 64.166 -54 107.499c0 53.333 30 80 90 80c58 0 111.333 -43.333 160 -130c61.333 11.333 111.666 36.166 150.999 74.499
s59 83.5 59 135.5c0 58 -24 105.833 -72 143.5s-104 56.5 -168 56.5h-110l-50 90h180c48.667 0 90.834 15.333 126.501 46s53.5 68.667 53.5 114c0 44 -19.167 80 -57.5 108s-82.5 42 -132.5 42c-57.333 0 -127.333 -23.333 -210 -70l-50 70
c80.667 66.667 170.667 100 270 100c76.667 0 142.5 -23.667 197.5 -71s82.5 -107 82.5 -179c0 -90.667 -43.333 -160.667 -130 -210c113.333 -52 170 -132 170 -240c0 -72 -26.5 -134.667 -79.5 -188s-119.833 -87.333 -200.5 -102zM874 1058z" />
    <glyph glyph-name="u096A" unicode="&#x96a;" horiz-adv-x="998" 
d="M594 520c60 -34.667 105 -74.5 135 -119.5s45 -95.167 45 -150.5c0 -71.333 -26.333 -130.833 -79 -178.5s-116.334 -71.5 -191.001 -71.5c-72 0 -133.333 24 -184 72s-76 107.333 -76 178c0 55.333 15 105.5 45 150.5s75 84.833 135 119.5
c-79.333 37.333 -144.166 84.666 -194.499 141.999s-75.5 116.666 -75.5 177.999c0 68.667 30 128.667 90 180l80 -50c-46.667 -46.667 -70 -90 -70 -130c0 -54 23.667 -104.333 71 -151s107 -83 179 -109c80 45.333 140 89.666 180 132.999s60 85.666 60 126.999
c0 38.667 -23.333 85.334 -70 140.001l90 50c53.333 -53.333 80 -116.666 80 -189.999c0 -59.333 -20.833 -115.666 -62.5 -168.999s-104.167 -103.666 -187.5 -150.999zM504 460c-48 -17.333 -86.667 -45.167 -116 -83.5s-44 -80.5 -44 -126.5
c0 -44 15.667 -81.667 47 -113s69 -47 113 -47c46.667 0 86.667 15.167 120 45.5s50 68.5 50 114.5c0 44 -14.167 83.5 -42.5 118.5s-70.833 65.5 -127.5 91.5zM874 1058z" />
    <glyph glyph-name="u096B" unicode="&#x96b;" horiz-adv-x="1000" 
d="M700 -130l-49.999 80.0029c60 43.333 90 83.333 90 120c0 19.333 -13.333 72.666 -40 159.999l-70 230c-47.333 -33.333 -100.666 -50 -159.999 -50c-90 0 -165.833 32.167 -227.5 96.5s-92.5 142.166 -92.5 233.499c0 129.333 26.667 239.333 80 330l90 -40
c-46.667 -82 -70 -178.667 -70 -290c0 -66.667 20.833 -123.334 62.5 -170.001s94.167 -70 157.5 -70c49.333 0 92.666 13.333 129.999 40c-13.333 28 -20 84.667 -20 170c0 41.333 11.167 78.333 33.5 111s51.166 49 86.499 49c30.667 0 55 -16.167 73 -48.5
s27 -69.5 27 -111.5c0 -55.333 -26.667 -115.333 -80 -180l90 -300c26.667 -88.667 40 -142 40 -160c0 -76 -50 -142.667 -150 -200z" />
    <glyph glyph-name="u096C" unicode="&#x96c;" horiz-adv-x="1000" 
d="M820 -180l-69.998 -70c-40 48 -86.667 144.667 -140 290c-98.667 0 -185 27 -259 81s-111 123.667 -111 209c0 91.333 43.333 161.333 130 210c-56 9.33301 -101.667 36.666 -137 81.999s-53 98 -53 158c0 66 25.667 120.833 77 164.5s112.333 65.5 183 65.5
c95.333 0 172 -16.667 230 -50l-30 -90c-73.333 26.667 -140 40 -200 40c-42.667 0 -80 -12.167 -112 -36.5s-48 -55.5 -48 -93.5c0 -49.333 17.667 -91.666 53 -126.999s77.666 -53 126.999 -53h160l40 -80h-110c-56.667 0 -105.834 -18.333 -147.501 -55
s-62.5 -81.667 -62.5 -135c0 -58.667 26.167 -106.667 78.5 -144s112.833 -56 181.5 -56c0 42.667 12.167 80 36.5 112s55.5 48 93.5 48c20.667 0 37.5 -9 50.5 -27s19.5 -39 19.5 -63c0 -56.667 -30 -106.667 -90 -150c13.333 -49.333 50 -126 110 -230zM874.002 1000z" />
    <glyph glyph-name="u096D" unicode="&#x96d;" horiz-adv-x="1000" 
d="M730 290c-84.667 0 -155.837 32.499 -213.504 97.499s-86.5 142.5 -86.5 232.5c0 76 19.333 143.333 58 202s89.334 88 152.001 88c70 0 125.833 -36.667 167.5 -110s62.5 -156.666 62.5 -249.999c0 -158.667 -31.167 -290 -93.5 -394s-151.166 -156 -266.499 -156
c-113.333 0 -205 53.667 -275 161s-105 230.333 -105 369c0 52 10 192 30 420l110 60c-26.667 -150.667 -40 -310.667 -40 -480c0 -112.667 25.5 -214.167 76.5 -304.5s118.833 -135.5 203.5 -135.5c46.667 0 89.834 18.833 129.501 56.5s69.834 85.5 90.501 143.5z
M749.997 359.999c13.333 76 20.001 139.333 20.001 190c0 66 -11.5 127.5 -34.5 184.5s-54.833 85.5 -95.5 85.5c-36.667 0 -65.834 -20.667 -87.501 -62s-32.5 -87.333 -32.5 -138c0 -70.667 21.833 -131.667 65.5 -183s98.5 -77 164.5 -77zM873.998 999.999z" />
    <glyph glyph-name="u096E" unicode="&#x96e;" horiz-adv-x="1000" 
d="M850 180c-100 -120 -210 -180 -330 -180c-100.667 0 -187.5 30.167 -260.5 90.5s-109.5 136.833 -109.5 229.5c0 77.333 30 147.333 90 210l470 490l70 -70l-460 -480c-40 -42 -60 -92 -60 -150c0 -66 25.667 -120.833 77 -164.5s112.333 -65.5 183 -65.5
c84 0 170.667 53.333 260 160z" />
    <glyph glyph-name="u096F" unicode="&#x96f;" horiz-adv-x="998" 
d="M624 -140l-30.002 89.998c32 0 61.667 6.33301 89 19s41 29.667 41 51c0 22 -23.333 58.667 -70 110l-310 340c-56.667 62 -99.167 122.167 -127.5 180.5s-42.5 114.833 -42.5 169.5c0 76.667 27.167 140.834 81.5 192.501s120.5 77.5 198.5 77.5
c76.667 0 140.834 -28.333 192.501 -85s77.5 -125 77.5 -205c0 -75.333 -21.5 -140.833 -64.5 -196.5s-98.167 -83.5 -165.5 -83.5c-9.33301 0 -32.666 3.33301 -69.999 10l340 -380c40 -44.667 60 -88 60 -130c0 -42.667 -19.833 -78.667 -59.5 -108
s-86.5 -46.666 -140.5 -51.999zM273.998 799.998c0 -52 17.332 -96.668 51.999 -134.001s77.334 -56 128.001 -56c46 0 84.167 18.833 114.5 56.5s45.5 82.167 45.5 133.5c0 48.667 -15.333 90.834 -46 126.501s-68.667 53.5 -114 53.5c-50 0 -92.5 -17.5 -127.5 -52.5
s-52.5 -77.5 -52.5 -127.5zM873.997 1058z" />
    <glyph glyph-name="u0970" unicode="&#x970;" horiz-adv-x="820" 
d="M410 -10c-72.667 0 -134.167 24.5 -184.5 73.5s-75.5 109.833 -75.5 182.5s25.167 133.5 75.5 182.5s111.833 73.5 184.5 73.5s134.167 -24.5 184.5 -73.5s75.5 -109.833 75.5 -182.5s-25.167 -133.5 -75.5 -182.5s-111.833 -73.5 -184.5 -73.5zM412 74
c46.667 0 86 16.667 118 50s48 74 48 122s-16 88.667 -48 122s-71.333 50 -118 50c-47.333 0 -86.833 -16.833 -118.5 -50.5s-47.5 -74.167 -47.5 -121.5s15.833 -87.833 47.5 -121.5s71.167 -50.5 118.5 -50.5z" />
    <glyph glyph-name="HighSpacingDot" unicode="&#x971;" horiz-adv-x="530" 
d="M365 959c0 -43.333 -21.667 -65 -65 -65s-65 21.667 -65 65s21.667 65 65 65s65 -21.667 65 -65z" />
    <glyph glyph-name="CandraA" unicode="&#x972;" horiz-adv-x="1154" 
d="M1004 910l0.00195312 -910.001h-100v450c-32 -26.667 -67.333 -40 -106 -40c-50 0 -91.333 10 -124 30c26.667 -21.333 40 -58 40 -110c0 -72 -24 -133.333 -72 -184s-107.333 -76 -178 -76c-84 0 -161.833 31.667 -233.5 95s-137.167 158.333 -196.5 285l74 42
c50.667 -107.333 105.667 -187.833 165 -241.5s123 -80.5 191 -80.5c42 0 77.5 15.5 106.5 46.5s43.5 68.167 43.5 111.5c0 52.667 -16.167 97.834 -48.5 135.501s-72.833 56.5 -121.5 56.5c-30.667 0 -64 -6.66699 -100 -20l-40 90c56 5.33301 108 25.333 156 60
s72 74.667 72 120c0 37.333 -11.167 70 -33.5 98s-50.5 42 -84.5 42c-80.667 0 -160.667 -46.667 -240 -140l-70 70c73.333 106.667 176.666 160 309.999 160c62.667 0 115 -22.333 157 -67s63 -99 63 -163c0 -34.667 -7.5 -67 -22.5 -97s-37.5 -57.667 -67.5 -83
c44.667 -30 86.167 -52.5 124.5 -67.5s73.5 -22.5 105.5 -22.5c47.333 0 90.666 16.667 129.999 50v360h-180v90h500v-90h-220zM967.002 1400c-13.333 -78 -47.833 -142.5 -103.5 -193.5s-121.167 -76.5 -196.5 -76.5s-140.833 25.5 -196.5 76.5s-90.167 115.5 -103.5 193.5
h100c9.33301 -54 32.5 -99.167 69.5 -135.5s80.5 -54.5 130.5 -54.5s93.5 18.167 130.5 54.5s60.167 81.5 69.5 135.5h100z" />
    <glyph glyph-name="fullGga" unicode="&#x97b;" horiz-adv-x="778" 
d="M528 910h-250v-490c0 -40 -16.667 -60 -50 -60c-27.333 0 -67.5 31.167 -120.5 93.5s-79.5 107.833 -79.5 136.5c0 13.333 3.33301 23.333 10 30s16.667 10 30 10h70c26.667 0 40 16.667 40 50v230h-184v90h854v-90h-220v-910h-100v910zM786 -205h-790v90h790v-90z" />
    <glyph glyph-name="fullJja" unicode="&#x97c;" horiz-adv-x="1094" 
d="M844 600h-239.999c53.333 -74.667 80 -158 80 -250c0 -64 -21 -118.333 -63 -163s-94.333 -67 -157 -67c-76 0 -152.333 49.667 -229 149s-143.667 226.333 -201 381l90 40c49.333 -134 104.666 -245.833 165.999 -335.5s119.333 -134.5 174 -134.5
c34 0 62.5 12.833 85.5 38.5s34.5 56.167 34.5 91.5c0 60 -14.167 119.167 -42.5 177.5s-70.833 115.833 -127.5 172.5h430v210h-850v90h1170v-90h-220v-910h-100v600zM927.001 -205h-790v90h790v-90z" />
    <glyph glyph-name="u097D" unicode="&#x97d;" horiz-adv-x="1000" 
d="M470 490v-239.998h-100v310c107.333 30 197.5 73.833 270.5 131.5s109.5 120.5 109.5 188.5c0 61.333 -27 111.666 -81 150.999s-117 59 -189 59c-93.333 0 -183.333 -43.333 -270 -130l-60 80c100 100 210 150 330 150c99.333 0 185.833 -29.167 259.5 -87.5
s110.5 -132.5 110.5 -222.5c0 -80 -35.333 -154.833 -106 -224.5s-162 -124.834 -274 -165.501z" />
    <glyph glyph-name="fullDdda" unicode="&#x97e;" horiz-adv-x="950" 
d="M578 20c-109.333 0 -212.834 40.168 -310.501 120.501s-177.5 186.833 -239.5 319.5l80 50c55.333 -117.333 124.833 -211.666 208.5 -282.999s170.834 -107 261.501 -107c56 0 103.333 20.667 142 62s58 90.666 58 147.999c0 20 -4.16699 35 -12.5 45
s-20.833 15 -37.5 15c-20.667 0 -50.667 -6.66699 -90 -20s-69.333 -20 -90 -20c-53.333 0 -110 31.667 -170 95s-90 121.666 -90 174.999c0 36.667 12.5 67.5 37.5 92.5s55.833 37.5 92.5 37.5h270v160h-694v90h1026v-90h-232v-260h-370c-20 0 -30 -10 -30 -30
c0 -28.667 19.5 -64.167 58.5 -106.5s72.833 -63.5 101.5 -63.5c20.667 0 50.667 6.66699 90 20s69.333 20 90 20c42.667 0 78.334 -15.667 107.001 -47s43 -69 43 -113c0 -86 -28.833 -159.167 -86.5 -219.5s-128.834 -90.5 -213.501 -90.5zM863.999 -204.999h-790v90h790
v-90z" />
    <glyph glyph-name="fullBba" unicode="&#x97f;" horiz-adv-x="808" 
d="M338 320c48 0 87.999 13.332 119.999 39.999l-270 220c-20 -25.333 -30 -58.666 -30 -99.999c0 -45.333 17.833 -83.333 53.5 -114s77.834 -46 126.501 -46zM337.999 219.999c-77.333 0 -143.333 24.833 -198 74.5s-82 111.5 -82 185.5c0 82 29.167 150.833 87.5 206.5
s129.166 83.5 212.499 83.5c50 0 93.333 -10 130 -30l-30 -80c-29.333 13.333 -62.666 20 -99.999 20c-59.333 0 -99.333 -13.333 -120 -40l290 -220l30 40v450h-564v90h884v-90h-220v-910h-100v320c-33.333 -33.333 -68.333 -58.333 -105 -75s-75 -25 -115 -25z
M799.999 -205.001h-790v90h790v-90z" />
    <glyph glyph-name="u200C" unicode="&#x200c;" horiz-adv-x="0" 
d="M80 -490h-80v1990h80v-1990z" />
    <glyph glyph-name="u200D" unicode="&#x200d;" horiz-adv-x="0" 
d="M80 -490h-80v1990h340v-80h-260v-1910z" />
    <glyph glyph-name="u2013" unicode="&#x2013;" 
d="M-3 328v104h816v-104h-816z" />
    <glyph glyph-name="u2014" unicode="&#x2014;" horiz-adv-x="1466" 
d="M0 328v104h1466v-104h-1466z" />
    <glyph glyph-name="u2018" unicode="&#x2018;" horiz-adv-x="326" 
d="M230 874l-0.000976562 -149.999h-138v118c0 64 7.66699 110.333 23 139c20 38 51.667 67 95 87l31 -51c-26 -10.667 -45.167 -26.834 -57.5 -48.501s-19.166 -53.167 -20.499 -94.5h67z" />
    <glyph glyph-name="u2019" unicode="&#x2019;" horiz-adv-x="326" 
d="M89 911v149h138v-118c0 -64 -7.33301 -110 -22 -138c-20.667 -38.667 -52.667 -67.667 -96 -87l-32 51c26 10 45.333 26.333 58 49s19.667 54 21 94h-67z" />
    <glyph glyph-name="quotesinglbase" unicode="&#x201a;" horiz-adv-x="326" 
d="M89 0v149.999h138v-118c0 -64 -7.33301 -110.333 -22 -139c-20.667 -38.667 -52.667 -67.667 -96 -87l-32 51c26 10.667 45.333 27.334 58 50.001s19.667 53.667 21 93h-67z" />
    <glyph glyph-name="u201C" unicode="&#x201c;" horiz-adv-x="488" 
d="M198 874v-149.999h-139v118c0 64 7.66699 110.333 23 139c20 38 52 67 96 87l31 -51c-26 -10.667 -45.333 -26.834 -58 -48.501s-19.667 -53.167 -21 -94.5h68zM420 874.001v-149.999h-139v118c0 64 7.66699 110.333 23 139c20 38 52 67 96 87l31 -51
c-26 -10.667 -45.333 -26.834 -58 -48.501s-19.667 -53.167 -21 -94.5h68z" />
    <glyph glyph-name="u201D" unicode="&#x201d;" horiz-adv-x="488" 
d="M62 911v149h138v-118c0 -64 -7.33301 -110 -22 -138c-20.667 -38.667 -52.667 -67.667 -96 -87l-31 51c26 10 45.167 26.333 57.5 49s19.5 54 21.5 94h-68zM284 911v149h138v-118c0 -64 -7.33301 -110 -22 -138c-20.667 -38.667 -52.667 -67.667 -96 -87l-31 51
c25.333 10 44.333 26.333 57 49s20 54 22 94h-68z" />
    <glyph glyph-name="quotedblbase" unicode="&#x201e;" horiz-adv-x="488" 
d="M62 0v149.999h138v-118c0 -64 -7.33301 -110.333 -22 -139c-20.667 -38.667 -52.667 -67.667 -96 -87l-31 51c26 10.667 45.167 27.334 57.5 50.001s19.5 53.667 21.5 93h-68zM284 -0.000976562v149.999h138v-118c0 -64 -7.33301 -110.333 -22 -139
c-20.667 -38.667 -52.667 -67.667 -96 -87l-31 51c25.333 10.667 44.333 27.334 57 50.001s20 53.667 22 93h-68z" />
    <glyph glyph-name="dagger" unicode="&#x2020;" 
d="M339 -248v868h-287v115h287v290h129v-290h287v-115h-287v-868h-129z" />
    <glyph glyph-name="daggerdbl" unicode="&#x2021;" 
d="M340 -248v265h-288v115h288v520h-288v115h288v268h129v-268h289v-115h-289v-520h289v-115h-289v-265h-129z" />
    <glyph glyph-name="bullet" unicode="&#x2022;" horiz-adv-x="513" 
d="M78 514c0 50 17.833 92.667 53.5 128s78.167 53 127.5 53c50 0 92.833 -17.667 128.5 -53s53.5 -78 53.5 -128s-17.833 -92.833 -53.5 -128.5s-78.5 -53.5 -128.5 -53.5c-49.333 0 -91.833 17.833 -127.5 53.5s-53.5 78.5 -53.5 128.5z" />
    <glyph glyph-name="u2026" unicode="&#x2026;" horiz-adv-x="1466" 
d="M171 0v147h147v-147h-147zM660 0v147h147v-147h-147zM1148 0v147h148v-147h-148z" />
    <glyph glyph-name="perthousand" unicode="&#x2030;" horiz-adv-x="1466" 
d="M229 -39l430 1107h94l-429 -1107h-95zM26 787c0 94.667 18.8311 163.667 56.498 207s87.167 65 148.5 65s111 -21.667 149 -65s57 -111.333 57 -204c0 -94 -16.667 -164.667 -50 -212s-84.666 -71 -153.999 -71c-61.333 0 -111.166 22.167 -149.499 66.5
s-57.5 115.5 -57.5 213.5zM131.998 781c0 -72.667 9.5 -121.667 28.5 -147s44.167 -38 75.5 -38c28 0 49.667 11 65 33c20.667 28.667 31 80 31 154c0 72 -10.667 123.333 -32 154c-16 22 -38.333 33 -67 33c-30 0 -52.667 -11 -68 -33c-22 -30 -33 -82 -33 -156z
M545.998 241c0 94.667 18.8311 163.667 56.498 207s86.834 65 147.501 65c61.333 0 111.166 -21.833 149.499 -65.5s57.5 -111.834 57.5 -204.501c0 -93.333 -16.667 -163.666 -50 -210.999s-84.666 -71 -153.999 -71c-61.333 0 -111.166 22.167 -149.499 66.5
s-57.5 115.5 -57.5 213.5zM651.996 235c0 -72 9.5 -120.831 28.5 -146.498s43.833 -38.5 74.5 -38.5c28.667 0 50.667 10.667 66 32c20 29.333 30 80.666 30 153.999s-10.667 124.666 -32 153.999c-16 22.667 -38 34 -66 34c-30 0 -53 -11 -69 -33
c-21.333 -29.333 -32 -81.333 -32 -156zM1029 241.002c0 94.667 18.667 163.667 56 207s87 65 149 65c60.667 0 110.167 -21.833 148.5 -65.5s57.5 -111.834 57.5 -204.501c0 -93.333 -16.667 -163.666 -50 -210.999s-85 -71 -155 -71c-61.333 0 -111 22.167 -149 66.5
s-57 115.5 -57 213.5zM1135 235.002c0 -72 9.33301 -120.831 28 -146.498s43.667 -38.5 75 -38.5c28 0 49.667 10.667 65 32c20.667 29.333 31 80.666 31 153.999s-10.667 124.666 -32 153.999c-16 22.667 -38.333 34 -67 34c-29.333 0 -52 -11 -68 -33
c-21.333 -29.333 -32 -81.333 -32 -156z" />
    <glyph glyph-name="guilsinglleft" unicode="&#x2039;" horiz-adv-x="488" 
d="M208 377l190 -325h-107l-225 325l225 328h107z" />
    <glyph glyph-name="guilsinglright" unicode="&#x203a;" horiz-adv-x="488" 
d="M256 379l-190 326h107l217 -321l-217 -332h-107z" />
    <glyph glyph-name="Rupee" unicode="&#x20a8;" horiz-adv-x="1811" 
d="M115 0l-0.00195312 1050h466c93.333 0 164.333 -9.5 213 -28.5s87.5 -52.333 116.5 -100s43.5 -100.5 43.5 -158.5c0 -74 -24 -136.667 -72 -188s-122.333 -83.666 -223 -96.999c36.667 -18 64.334 -35.667 83.001 -53c40.667 -37.333 79.334 -83.666 116.001 -138.999
l182 -286h-174l-139 218c-40.667 63.333 -74.167 111.666 -100.5 144.999s-49.833 56.666 -70.5 69.999s-41.667 22.666 -63 27.999c-16 3.33301 -42 5 -78 5h-161v-466h-139zM253.998 586.001h298.999c63.333 0 112.833 6.66699 148.5 20s62.834 34.333 81.501 63
s28 60 28 94c0 50 -18 91 -54 123s-93 48 -171 48h-332v-348zM1123 227.001l128 19.998c6.66699 -51.333 26.334 -90.5 59.001 -117.5s78.334 -40.5 137.001 -40.5c59.333 0 103.333 12 132 36s43 52.333 43 85c0 28.667 -12.667 51.667 -38 69
c-17.333 11.333 -61.333 25.666 -132 42.999c-94 24 -159.333 44.667 -196 62s-64.334 41.5 -83.001 72.5s-28 64.833 -28 101.5c0 34 7.66699 65.5 23 94.5s36.333 53.167 63 72.5c20 14.667 47.333 27.167 82 37.5s72 15.5 112 15.5c59.333 0 111.5 -8.66699 156.5 -26
s78.333 -40.666 100 -69.999s36.5 -68.666 44.5 -117.999l-126 -17c-6 39.333 -22.667 70 -50 92s-66 33 -116 33c-59.333 0 -101.666 -9.83301 -126.999 -29.5s-38 -42.5 -38 -68.5c0 -17.333 5.33301 -32.666 16 -45.999s27 -24.666 49 -33.999
c13.333 -4.66699 51.333 -15.667 114 -33c91.333 -24 155 -43.833 191 -59.5s64.333 -38.334 85 -68.001s31 -66.5 31 -110.5c0 -42.667 -12.667 -83 -38 -121s-61.5 -67.333 -108.5 -88s-100.5 -31 -160.5 -31c-98.667 0 -173.834 20.5 -225.501 61.5
s-84.834 101.833 -99.501 182.5z" />
    <glyph glyph-name="Euro" unicode="&#x20ac;" 
d="M566 949c-80.667 0 -148.001 -19.333 -202.001 -58c-32.667 -23.333 -62 -56 -88 -98c-26.667 -43.333 -42.667 -84.666 -48 -123.999h489l-20 -95h-480c-0.666992 -10.667 -1 -20.334 -1 -29.001c0 -36.667 0.333008 -58.667 1 -66h461l-20 -96h-426
c20 -109.333 68.333 -187 145 -233c54.667 -32.667 114 -49 178 -49c89.333 0 159 23.333 209 70v-147c-60 -28 -126 -42 -198 -42c-215.333 0 -361 89.667 -437 269c-15.333 36.667 -28.333 80.667 -39 132h-110l20 96h75c-1.33301 20 -2 41.667 -2 65
c0 9.33301 0.333008 19.333 1 30h-94l20 95h83c29.333 156 106.333 268 231 336c77.333 42 162.333 63 255 63c88.667 0 163.334 -19.333 224.001 -58l-29 -134c-58 48.667 -124 73 -198 73z" />
    <glyph glyph-name="trademark" unicode="&#x2122;" horiz-adv-x="1466" 
d="M350 466v497h-189v87h477v-87h-190v-497h-98zM703 466v584h143l148 -466l142 466h141v-584h-89v490l-151 -490h-88l-156 497v-497h-90z" />
    <glyph glyph-name="u2212" unicode="&#x2212;" horiz-adv-x="856" 
d="M82 458v120h693v-120h-693z" />
    <glyph glyph-name="periodcentered" unicode="&#x2219;" horiz-adv-x="549" 
d="M276 353c-44 0 -81.334 14.999 -112.001 44.999s-46 67 -46 111s15.167 81.167 45.5 111.5s67.5 45.5 111.5 45.5c43.333 0 80.333 -15.333 111 -46s46 -67.667 46 -111s-15.167 -80.166 -45.5 -110.499s-67.166 -45.5 -110.499 -45.5z" />
    <glyph glyph-name="u25CC" unicode="&#x25cc;" horiz-adv-x="1380" 
d="M690 896c-20 0 -37 7 -51 21s-21 31 -21 51s7 37 21 51s31 21 51 21s37 -7 51 -21s21 -31 21 -51s-7 -37 -21 -51s-31 -21 -51 -21zM924 834c-20 0 -37 7 -51 21s-21 31 -21 51s7 37 21 51s31 21 51 21s37 -7 51 -21s21 -31 21 -51s-7 -37 -21 -51s-31 -21 -51 -21z
M456 834c-20 0 -37 7 -51 21s-21 31 -21 51s7 37 21 51s31 21 51 21s37 -7 51 -21s21 -31 21 -51s-7 -37 -21 -51s-31 -21 -51 -21zM1096 662c-20 0 -37 7 -51 21s-21 31 -21 51s7 37 21 51s31 21 51 21s37 -7 51 -21s21 -31 21 -51s-7 -37 -21 -51s-31 -21 -51 -21z
M286 662c-20 0 -37 7 -51 21s-21 31 -21 51s7 37 21 51s31 21 51 21s37 -7 51 -21s21 -31 21 -51s-7 -37 -21 -51s-31 -21 -51 -21zM1158 428c-20 0 -37 7 -51 21s-21 31 -21 51s7 37 21 51s31 21 51 21s37 -7 51 -21s21 -31 21 -51s-7 -37 -21 -51s-31 -21 -51 -21z
M222 428c-20 0 -37 7 -51 21s-21 31 -21 51s7 37 21 51s31 21 51 21s37 -7 51 -21s21 -31 21 -51s-7 -37 -21 -51s-31 -21 -51 -21zM1096 194c-20 0 -37 7 -51 21s-21 31 -21 51s7 37 21 51s31 21 51 21s37 -7 51 -21s21 -31 21 -51s-7 -37 -21 -51s-31 -21 -51 -21z
M286 194c-20 0 -37 7 -51 21s-21 31 -21 51s7 37 21 51s31 21 51 21s37 -7 51 -21s21 -31 21 -51s-7 -37 -21 -51s-31 -21 -51 -21zM924 22c-20.667 0 -37.832 7.16699 -51.499 21.5s-20.5 31.833 -20.5 52.5c0 20 7 37 21 51s31 21 51 21s37 -7 51 -21s21 -31 21 -51
c0 -20.667 -6.83301 -38.167 -20.5 -52.5s-30.834 -21.5 -51.501 -21.5zM456.002 22c-20.667 0 -37.832 7.16699 -51.499 21.5s-20.5 31.833 -20.5 52.5c0 20 7 37 21 51s31 21 51 21s37 -7 51 -21s21 -31 21 -51c0 -20.667 -6.83301 -38.167 -20.5 -52.5
s-30.834 -21.5 -51.501 -21.5zM690.004 -40c-20 0 -37 7 -51 21s-21 31 -21 51s7 37 21 51s31 21 51 21s37 -7 51 -21s21 -31 21 -51s-7 -37 -21 -51s-31 -21 -51 -21z" />
    <glyph glyph-name=".null" horiz-adv-x="0" 
 />
    <glyph glyph-name="nonmarkingreturn" horiz-adv-x="0" 
 />
    <glyph glyph-name="u09470902" horiz-adv-x="0" 
d="M-154 1000h-100l-370 440l70 60zM-65 1371c0 -43.333 -21.667 -65 -65 -65s-65 21.667 -65 65s21.667 65 65 65s65 -21.667 65 -65z" />
    <glyph glyph-name="u09470930094D" horiz-adv-x="0" 
d="M-4 1310c-54.667 20 -91.332 30 -109.999 30c-39.333 0 -72.5 -13.5 -99.5 -40.5s-40.5 -60.167 -40.5 -99.5c0 -50 6.66699 -83.333 20 -100l80 -100h-100l-370 440l70 60l211 -263c9.33301 54 35.666 98 78.999 132s93.333 51 150 51c36 0 72.667 -6.66699 110 -20v-90
z" />
    <glyph glyph-name="u09470930094D0902" horiz-adv-x="0" 
d="M6 1310c-54.667 20 -91.332 30 -109.999 30c-39.333 0 -72.5 -13.5 -99.5 -40.5s-40.5 -60.167 -40.5 -99.5c0 -50 6.66699 -83.333 20 -100l80 -100h-100l-370 440l70 60l211 -263c9.33301 54 35.666 98 78.999 132s93.333 51 150 51c36 0 72.667 -6.66699 110 -20v-90z
M-4.99805 1165c0 -43.333 -21.667 -65 -65 -65s-65 21.667 -65 65s21.667 65 65 65s65 -21.667 65 -65z" />
    <glyph glyph-name="u09480902" horiz-adv-x="0" 
d="M-158 1000h-130l-430 210l50 90l450 -290l-220 430l100 60zM-27 1323c0 -43.333 -21.667 -65 -65 -65s-65 21.667 -65 65s21.667 65 65 65s65 -21.667 65 -65z" />
    <glyph glyph-name="u09480930094D" horiz-adv-x="0" 
d="M-128 1000l-129.999 0.000976562l-440 200l50 100l460 -290l-250 430l100 60l90 -210c22 43.333 51.333 75.833 88 97.5s80.667 32.5 132 32.5c36 0 72.667 -6.66699 110 -20v-90c-54.667 20 -91.334 30 -110.001 30c-46.667 0 -86.667 -14.333 -120 -43
s-50 -64.334 -50 -107.001c0 -10 10 -40 30 -90z" />
    <glyph glyph-name="u09480930094D0902" horiz-adv-x="0" 
d="M-128 1000l-129.999 0.000976562l-440 200l50 100l460 -290l-250 430l100 60l90 -210c22 43.333 51.333 75.833 88 97.5s80.667 32.5 132 32.5c36 0 72.667 -6.66699 110 -20v-90c-54.667 20 -91.334 30 -110.001 30c-46.667 0 -86.667 -14.333 -120 -43
s-50 -64.334 -50 -107.001c0 -10 10 -40 30 -90zM65.001 1155c0 -43.333 -21.667 -65 -65 -65s-65 21.667 -65 65s21.667 65 65 65s65 -21.667 65 -65z" />
    <glyph glyph-name="u0930094D" horiz-adv-x="0" 
d="M48 1310c-54.667 20 -91.334 30 -110.001 30c-39.333 0 -72.5 -13.5 -99.5 -40.5s-40.5 -60.167 -40.5 -99.5c0 -78 46.667 -144.667 140 -200h-130c-73.333 62 -110 128.667 -110 200c0 63.333 23.333 115.833 70 157.5s103.334 62.5 170.001 62.5
c36 0 72.667 -6.66699 110 -20v-90z" />
    <glyph glyph-name="u0930094D0902" horiz-adv-x="0" 
d="M8 1310c-54.667 20 -91.334 30 -110.001 30c-39.333 0 -72.5 -13.5 -99.5 -40.5s-40.5 -60.167 -40.5 -99.5c0 -78 46.667 -144.667 140 -200h-130c-73.333 62 -110 128.667 -110 200c0 63.333 23.333 115.833 70 157.5s103.334 62.5 170.001 62.5
c36 0 72.667 -6.66699 110 -20v-90zM1 1183c0 -43.333 -21.667 -65 -65 -65s-65 21.667 -65 65s21.667 65 65 65s65 -21.667 65 -65z" />
    <glyph glyph-name="u094D0930Alt" horiz-adv-x="0" 
d="M-190 210l-490 -260l-40 80l530 270v-90z" />
    <glyph glyph-name="u094D0930Default" horiz-adv-x="0" 
d="M138 -234h-118l-220 234l-220 -234h-120l286 304h106z" />
    <glyph glyph-name="u0936094D0930" horiz-adv-x="1066" 
d="M1136 910l-220 -0.000976562v-910h-100v450l-470 -360l-70 80l380 280l-270 110l-300 -200l-66 76l276 178c-92 52 -138 120.667 -138 206c0 53.333 18 98.333 54 135s80.667 55 134 55c54.667 0 101.667 -18.333 141 -55s59 -81.667 59 -135
c0 -73.333 -32 -136.666 -96 -189.999l286 -120l80 60v340h-180v90h500v-90zM446 819.999c0 28.667 -9.5 52.499 -28.5 71.499s-42.833 28.5 -71.5 28.5c-26 0 -47.5 -9.66699 -64.5 -29s-25.5 -43 -25.5 -71c0 -65.333 36.667 -108.666 110 -129.999
c53.333 36.667 80 80 80 130z" />
    <glyph glyph-name="u095E094D0930" horiz-adv-x="1194" 
d="M562 570l-0.00195312 340h-350v-310c0 -39.333 14.833 -72.5 44.5 -99.5s64.834 -40.5 105.501 -40.5c82.667 0 149.334 36.667 200.001 110zM561.998 450c-60 -60 -126.668 -90 -200.001 -90c-69.333 0 -128.333 23 -177 69s-73 103 -73 171v310h-118v90h1270v-90h-602
v-280c56 66.667 126 100 210 100c72 0 131.667 -27.5 179 -82.5s71 -120.833 71 -197.5c0 -120 -43.333 -233.333 -130 -340l-90 50c80 80 120 176.667 120 290c0 48 -14.167 90 -42.5 126s-64.166 54 -107.499 54c-73.333 0 -143.333 -40 -210 -120v-510h-100v262
l-450 -252l-40 80l490 272v88zM306.997 5c0 43.333 21.667 65 65 65s65 -21.667 65 -65s-21.667 -65 -65 -65s-65 21.667 -65 65z" />
    <glyph glyph-name="u09240924" horiz-adv-x="1116" 
d="M866 640l-310.001 -0.00195312c-48 0 -90 -14.167 -126 -42.5s-54 -64.166 -54 -107.499c0 -84 23.167 -163.167 69.5 -237.5s109.833 -135.166 190.5 -182.499l-60 -70c-93.333 53.333 -166.666 123.333 -219.999 210s-80 180 -80 280c0 62 23.333 112 70 150h-330v90
h850v180h-872v90h1192v-90h-220v-910h-100v640z" />
    <glyph glyph-name="u0915094D0937" horiz-adv-x="990" 
d="M450 820c0 31.333 -10.832 57.5 -32.499 78.5s-48.167 31.5 -79.5 31.5c-30.667 0 -56.334 -10.667 -77.001 -32s-31 -47.333 -31 -78c0 -42 33.333 -85.333 100 -130c80 30 120 73.333 120 130zM740.001 550c-45.333 -26.667 -95.3311 -40.001 -149.998 -40.001
c-82.667 0 -169.334 26.667 -260.001 80c-44.667 -12 -82.5 -33.5 -113.5 -64.5s-46.5 -66.167 -46.5 -105.5c0 -49.333 19.5 -90 58.5 -122s84.833 -48 137.5 -48c-10.667 22.667 -16 37.334 -16 44.001c0 28 9.66699 51 29 69s43 27 71 27c28.667 0 52.5 -9.5 71.5 -28.5
s28.5 -42.833 28.5 -71.5c0 -50 -20 -86.667 -60 -110l100 -170l-80 -50l-120 200c-85.333 0 -160 24.5 -224 73.5s-96 111.167 -96 186.5c0 48 16.667 91.833 50 131.5s76.666 69.167 129.999 88.5c-80 57.333 -120 117.333 -120 180c0 58.667 20.5 108.334 61.5 149.001
s90.5 61 148.5 61s107.5 -20.333 148.5 -61s61.5 -90.334 61.5 -149.001c0 -74 -40 -134 -120 -180c56 -26.667 109.333 -40 160 -40c42 0 92 16.667 150 50v260h-100v90h420v-90h-220v-910h-100v550z" />
    <glyph glyph-name="u091C094D091E" horiz-adv-x="1068" 
d="M818 670l-579.997 0.000976562c-33.333 0 -50 -10 -50 -30c0 -28.667 18.167 -64.167 54.5 -106.5s68.166 -63.5 95.499 -63.5c22 0 53.667 6.66699 95 20c42 13.333 73.667 20 95 20c33.333 0 60 -16.333 80 -49s30 -69.667 30 -111c0 -70 -28.833 -127.5 -86.5 -172.5
s-125.5 -67.5 -203.5 -67.5c25.333 -56 88.666 -92.667 189.999 -110l-70 -70c-92 26 -165.333 72.667 -220 140c-49.333 0 -93.333 12 -132 36s-58 55.333 -58 94c0 25.333 8.66699 46.666 26 63.999s38.666 26 63.999 26c31.333 0 78 -36.667 140 -110
c65.333 6 123.333 24.5 174 55.5s76 69.167 76 114.5c0 46.667 -16.667 70 -50 70c-14 0 -39.333 -6.66699 -76 -20c-36 -13.333 -64 -20 -84 -20c-45.333 0 -96.666 32 -153.999 96s-86 119.333 -86 166c0 37.333 14.667 68 44 92s64.666 36 105.999 36h580v140h-824v90
h1144v-90h-220v-910h-100v670z" />
    <glyph glyph-name="u0915094DHalf" horiz-adv-x="878" 
d="M338 210c-77.333 0 -143.335 24.833 -198.002 74.5s-82 111.5 -82 185.5c0 79.333 28.167 145.833 84.5 199.5s124.833 80.5 205.5 80.5c36 0 72.667 -6.66699 110 -20l-10 -90c-29.333 13.333 -62.666 20 -99.999 20c-52.667 0 -97.5 -18.5 -134.5 -55.5
s-55.5 -81.833 -55.5 -134.5c0 -45.333 17.833 -83.333 53.5 -114s77.834 -46 126.501 -46c32 0 63 11.667 93 35s59 58.333 87 105v460h-524v90h954v-90h-330v-270c50.667 73.333 120.667 110 210 110c24 0 54 -6.66699 90 -20v-110c-26.667 26.667 -56.667 40 -90 40
c-51.333 0 -96.5 -19.167 -135.5 -57.5s-63.833 -85.833 -74.5 -142.5v-460h-100v300c-60 -60 -120 -90 -180 -90zM1126 0z" />
    <glyph glyph-name="u0916094DHalf" horiz-adv-x="986" 
d="M1026 440c-60 -60 -133.333 -89.999 -220 -89.999c-60.667 0 -112.5 20.167 -155.5 60.5s-64.5 90.166 -64.5 149.499c0 62.667 22.333 115 67 157s99 63 163 63c61.333 0 114.666 -13.333 159.999 -40l-40 -90c-36.667 20 -76.667 30 -120 30
c-35.333 0 -65.833 -11.5 -91.5 -34.5s-38.5 -51.5 -38.5 -85.5c0 -31.333 11.833 -57.5 35.5 -78.5s51.834 -31.5 84.501 -31.5c84.667 0 158 36.667 220 110v-120zM397.5 499.501c-32.333 -39.667 -72.8359 -59.5 -121.503 -59.5c-38.667 0 -62 6.66699 -70 20
c28.667 -110 79.667 -199.167 153 -267.5s159 -102.5 257 -102.5c86 0 163.167 18.333 231.5 55s127.833 91.667 178.5 165v-120c-53.333 -63.333 -114.166 -110.833 -182.499 -142.5s-144.166 -47.5 -227.499 -47.5c-143.333 0 -265.666 60.667 -366.999 182
s-169 277.333 -203 468l70 40c47.333 -100 97.333 -150 150 -150c23.333 0 42.5 9.83301 57.5 29.5s22.5 43.167 22.5 70.5v270h-352v90h1062v-90h-610v-270c0 -54 -16.167 -100.833 -48.5 -140.5z" />
    <glyph glyph-name="u0917094DHalf" horiz-adv-x="380" 
d="M450 910h-162v-510c0 -40 -13.333 -60 -40 -60c-28 0 -71.667 29.667 -131 89s-89 103 -89 131c0 20 3.33301 35 10 45s16.667 15 30 15h80c26.667 0 40 20 40 60v230h-194v90h456v-90z" />
    <glyph glyph-name="u0918094DHalf" horiz-adv-x="718" 
d="M408 170c-75.333 0 -140.832 21.501 -196.499 64.501s-83.5 98.167 -83.5 165.5c0 42.667 7.5 79 22.5 109s37.5 53.667 67.5 71c-44 12 -80 36.5 -108 73.5s-42 79.167 -42 126.5c0 39.333 16.667 82.666 50 129.999h-124v90h794v-90h-550
c-46.667 -38 -70 -81.333 -70 -130c0 -36.667 13.833 -67.5 41.5 -92.5s60.5 -37.5 98.5 -37.5h170l50 -90h-140c-44.667 0 -82.5 -15.5 -113.5 -46.5s-46.5 -68.833 -46.5 -113.5c0 -38.667 18.333 -70 55 -94s78.334 -36 125.001 -36
c53.333 0 109.166 15.833 167.499 47.5s119.166 79.167 182.499 142.5v-120c-68 -56.667 -131.167 -99.167 -189.5 -127.5s-111.833 -42.5 -160.5 -42.5z" />
    <glyph glyph-name="u0919094DHalf" horiz-adv-x="1078" 
d="M578 20c-109.333 0 -212.834 40.168 -310.501 120.501s-177.5 186.833 -239.5 319.5l80 50c55.333 -117.333 124.833 -211.666 208.5 -282.999s170.834 -107 261.501 -107c56 0 103.333 20.667 142 62s58 90.666 58 147.999c0 20 -4.16699 35 -12.5 45
s-20.833 15 -37.5 15c-20.667 0 -50.667 -6.66699 -90 -20s-69.333 -20 -90 -20c-53.333 0 -110 31.667 -170 95s-90 121.666 -90 174.999c0 36.667 12.5 67.5 37.5 92.5s55.833 37.5 92.5 37.5h270v160h-694v90h1154v-90h-360v-260h-370c-20 0 -30 -10 -30 -30
c0 -28.667 19.5 -64.167 58.5 -106.5s72.833 -63.5 101.5 -63.5c20.667 0 50.667 6.66699 90 20s69.333 20 90 20c42.667 0 78.334 -15.667 107.001 -47s43 -69 43 -113c0 -86 -28.833 -159.167 -86.5 -219.5s-128.834 -90.5 -213.501 -90.5zM1045 565.001
c0 -43.333 -21.667 -65 -65 -65s-65 21.667 -65 65s21.667 65 65 65s65 -21.667 65 -65zM935.999 -287.999l-60 -60l-300 240l-70 -40l-40 80l110 50z" />
    <glyph glyph-name="u091A094DHalf" horiz-adv-x="718" 
d="M438 180c-66.667 0 -123.331 23.332 -169.998 69.999s-70 103.334 -70 170.001c0 48 9.16699 90.333 27.5 127s45.833 67.667 82.5 93h-290v100h580v-100h-120c-60 -28 -105 -60.333 -135 -97s-45 -77.667 -45 -123c0 -38.667 13.667 -71.667 41 -99s60.333 -41 99 -41
c49.333 0 100.666 25 153.999 75s108.666 125 165.999 225v-160c-56 -80 -110.667 -140 -164 -180s-105.333 -60 -156 -60zM788.003 909.999h-794v90h794v-90zM958.003 -50.001z" />
    <glyph glyph-name="u091B094DHalf" horiz-adv-x="1066" 
d="M786 660c-32.667 0 -59.168 -11.8311 -79.501 -35.498s-30.5 -51.834 -30.5 -84.501c0 -89.333 36.667 -159.333 110 -210c80 57.333 120 130.666 120 219.999c0 32 -11.667 58.333 -35 79s-51.666 31 -84.999 31zM785.999 760.002
c60.667 0 112.501 -20.165 155.501 -60.498s64.5 -90.166 64.5 -149.499c0 -122.667 -58.333 -236.667 -175 -342s-238.334 -158 -365.001 -158c-90.667 0 -170 26.5 -238 79.5s-102 119.833 -102 200.5c0 51.333 9.16699 96.166 27.5 134.499s45.833 70.166 82.5 95.499
c-53.333 24.667 -93.333 53.667 -120 87s-40 71 -40 113c0 71.333 20 121.333 60 150h-142v90h1142v-90h-880c-53.333 -44.667 -80 -94.667 -80 -150c0 -40.667 18.167 -74.167 54.5 -100.5s78.166 -39.5 125.499 -39.5h110v-100h-80c-46 0 -84.167 -18.833 -114.5 -56.5
s-45.5 -82.167 -45.5 -133.5c0 -52.667 24.333 -95.834 73 -129.501s104.334 -50.5 167.001 -50.5c86 0 169.333 33.333 250 100c-93.333 93.333 -140 190 -140 290c0 60.667 20 112.5 60 155.5s90 64.5 150 64.5z" />
    <glyph glyph-name="u091C094DHalf" horiz-adv-x="884" 
d="M924 600l-310.002 -0.00195312c60 -70.667 90 -154 90 -250c0 -66.667 -20.833 -123.334 -62.5 -170.001s-94.167 -70 -157.5 -70c-80 0 -160.167 51.667 -240.5 155s-150.166 235 -209.499 395l90 40c50.667 -139.333 108.334 -254.166 173.001 -344.499
s127 -135.5 187 -135.5c34 0 62.5 12.833 85.5 38.5s34.5 56.167 34.5 91.5c0 56.667 -14.167 113.334 -42.5 170.001s-70.833 113.334 -127.5 170.001h490v-90zM953.998 909.998h-960v90h960v-90z" />
    <glyph glyph-name="u091D094DHalf" horiz-adv-x="818" 
d="M888 910l-320.002 -0.000976562v-240h-350c-26.667 0 -40 -10 -40 -30c0 -30 14.667 -64.167 44 -102.5s58 -57.5 86 -57.5c20 0 48.333 8.33301 85 25s65 25 85 25c26.667 0 63.334 -13.333 110.001 -40c35.333 -20 85.333 -30 150 -30c48 0 88 13.333 120 40v-100
c-54.667 -20 -94.667 -30 -120 -30c-41.333 0 -71.333 3.33301 -90 10v-50c0 -46 -28.167 -94.167 -84.5 -144.5s-108.166 -75.5 -155.499 -75.5c30.667 -25.333 87.334 -62 170.001 -110l-60 -70c-4.66699 8 -33.334 28.667 -86.001 62c-60 37.333 -94.667 60 -104 68
c-66 0 -127.5 11.5 -184.5 34.5s-85.5 54.833 -85.5 95.5c0 53.333 30 80 90 80c78 0 138 -36.667 180 -110c64 18 118.333 44.167 163 78.5s67 71.5 67 111.5c0 22.667 -7.66699 41.667 -23 57s-34.333 23 -57 23c-20 0 -48.333 -8.33301 -85 -25s-65 -25 -85 -25
c-41.333 0 -90 32.667 -146 98s-84 119.333 -84 162c0 34.667 13.667 63.334 41 86.001s60.333 34 99 34h250v150h-474v90h894v-90z" />
    <glyph glyph-name="u091E094DHalf" horiz-adv-x="690" 
d="M860 450c-56 -26.667 -106.002 -39.999 -150.002 -39.999c-12 0 -45.333 10 -100 30c-6.66699 -73.333 -35.5 -135 -86.5 -185s-112.167 -75 -183.5 -75c-106.667 0 -213.334 53.333 -320.001 160l50 70c93.333 -93.333 183.333 -140 270 -140
c50.667 0 93.334 19.833 128.001 59.5s52 86.5 52 140.5c0 49.333 -16.5 91.666 -49.5 126.999s-73.167 53 -120.5 53c-56 0 -102.667 -13.333 -140 -40l-50 80c56 40 119.333 60 190 60c64.667 0 121.167 -21.5 169.5 -64.5s78.5 -98.167 90.5 -165.5
c54.667 -20 91.334 -30 110.001 -30c54.667 0 101.334 16.667 140.001 50v-90zM759.998 910.001h-766v90h766v-90zM1108 -49.999z" />
    <glyph glyph-name="u091F094DHalf" horiz-adv-x="850" 
d="M678 910v-299.999h-370c-40.667 0 -74.167 -16.833 -100.5 -50.5s-39.5 -73.5 -39.5 -119.5c0 -89.333 31 -165 93 -227s137.667 -93 227 -93c118 0 204.667 46.667 260 140l80 -70c-66.667 -113.333 -180 -170 -340 -170c-117.333 0 -216.666 40.667 -297.999 122
s-122 180.666 -122 297.999c0 74 22.667 137.5 68 190.5s102.666 79.5 171.999 79.5h270v200h-584v90h926v-90h-242zM848 -309.999l-60 -60l-300 240l-70 -40l-40 80l110 50z" />
    <glyph glyph-name="u0920094DHalf" horiz-adv-x="872" 
d="M676 620h-349.999c-45.333 0 -83.333 -17.833 -114 -53.5s-46 -77.834 -46 -126.501c0 -82 33.167 -157.5 99.5 -226.5s139.833 -103.5 220.5 -103.5c59.333 0 109.166 21.5 149.499 64.5s60.5 94.833 60.5 155.5c0 80.667 -40 154 -120 220l80 60
c93.333 -79.333 140 -172.666 140 -279.999c0 -88.667 -29.833 -164.167 -89.5 -226.5s-133.167 -93.5 -220.5 -93.5c-108 0 -205 44.667 -291 134s-129 188 -129 296c0 77.333 24.833 143.333 74.5 198s111.5 82 185.5 82h250v190h-582v90h948v-90h-266v-290zM848.001 -309
l-60 -60l-300 240l-70 -40l-40 80l110 50z" />
    <glyph glyph-name="u0921094DHalf" horiz-adv-x="950" 
d="M578 20c-109.333 0 -212.834 40.168 -310.501 120.501s-177.5 186.833 -239.5 319.5l80 50c55.333 -117.333 124.833 -211.666 208.5 -282.999s170.834 -107 261.501 -107c56 0 103.333 20.667 142 62s58 90.666 58 147.999c0 20 -4.16699 35 -12.5 45
s-20.833 15 -37.5 15c-20.667 0 -50.667 -6.66699 -90 -20s-69.333 -20 -90 -20c-53.333 0 -110 31.667 -170 95s-90 121.666 -90 174.999c0 36.667 12.5 67.5 37.5 92.5s55.833 37.5 92.5 37.5h270v160h-694v90h1026v-90h-232v-260h-370c-20 0 -30 -10 -30 -30
c0 -28.667 19.5 -64.167 58.5 -106.5s72.833 -63.5 101.5 -63.5c20.667 0 50.667 6.66699 90 20s69.333 20 90 20c42.667 0 78.334 -15.667 107.001 -47s43 -69 43 -113c0 -86 -28.833 -159.167 -86.5 -219.5s-128.834 -90.5 -213.501 -90.5zM938.999 -300.999l-60 -60
l-300 240l-70 -40l-40 80l110 50z" />
    <glyph glyph-name="u0922094DHalf" horiz-adv-x="870" 
d="M714 270c0 28.667 -9.50098 52.499 -28.501 71.499s-42.833 28.5 -71.5 28.5c-25.333 0 -46.666 -8.66699 -63.999 -26s-26 -38.666 -26 -63.999c0 -34 5.83301 -64.333 17.5 -91s29.167 -49.667 52.5 -69c36 7.33301 65 25 87 53s33 60.333 33 97zM683.999 609.999
l-390.001 -0.000976562c-38 0 -69.167 -16 -93.5 -48s-36.5 -69.333 -36.5 -112c0 -80 34.333 -155 103 -225s144.334 -108.333 227.001 -115c-46.667 38.667 -70 95.334 -70 170.001c0 52.667 18.5 97.5 55.5 134.5s81.833 55.5 134.5 55.5c56 0 103.333 -19.333 142 -58
s58 -86 58 -142c0 -73.333 -32.167 -133.333 -96.5 -180s-138.833 -70 -223.5 -70c-108.667 0 -207.5 44.5 -296.5 133.5s-133.5 187.833 -133.5 296.5c0 70.667 21.833 131.667 65.5 183s98.5 77 164.5 77h290v200h-590v90h946v-90h-256v-300zM855.998 -320.002l-60 -60
l-300 240l-70 -40l-40 80l110 50z" />
    <glyph glyph-name="u0923094DHalf" horiz-adv-x="682" 
d="M486 910h-289.999v-440c0 -37.333 14.667 -68.333 44 -93s64.666 -37 105.999 -37c38 0 70.833 12.167 98.5 36.5s41.5 55.5 41.5 93.5v440zM752.001 910h-165.999v-440c0 -63.333 -23.333 -115.833 -70 -157.5s-103.334 -62.5 -170.001 -62.5
c-68 0 -126.667 20.833 -176 62.5s-74 94.167 -74 157.5v440h-102v90h758v-90z" />
    <glyph glyph-name="u0924094DHalf" horiz-adv-x="566" 
d="M606 620h-310c-36.667 0 -69.167 -10.167 -97.5 -30.5s-42.5 -46.833 -42.5 -79.5c0 -62 23.333 -128 70 -198s116.667 -144 210 -222l-60 -60c-106.667 90 -186.667 175 -240 255s-80 155 -80 225c0 58 24 105.833 72 143.5s104 56.5 168 56.5h310v-90zM636 910h-642v90
h642v-90z" />
    <glyph glyph-name="u0925094DHalf" horiz-adv-x="814" 
d="M464 180c-89.333 0 -171.165 30.8311 -245.498 92.498s-129.166 140.834 -164.499 237.501h180c65.333 0 121.666 19.833 168.999 59.5s71 89.834 71 150.501c0 53.333 -18.333 98.333 -55 135s-81.667 55 -135 55c-32.667 0 -60.834 -10.5 -84.501 -31.5
s-35.5 -47.167 -35.5 -78.5c0 -27.333 14.333 -49.166 43 -65.499s61 -24.5 97 -24.5v-90c-62.667 0 -118.334 16.833 -167.001 50.5s-73 76.834 -73 129.501c0 59.333 21.5 109.166 64.5 149.499s94.833 60.5 155.5 60.5c81.333 0 150 -28 206 -84s84 -124.667 84 -206
c0 -86.667 -35.833 -158.334 -107.5 -215.001s-155.834 -85 -252.501 -85c28.667 -50 63.834 -87.5 105.501 -112.5s89.834 -37.5 144.501 -37.5c72 0 142.167 24.833 210.5 74.5s128.166 118.167 179.499 205.5v-150c-50.667 -73.333 -108.5 -128.333 -173.5 -165
s-137.167 -55 -216.5 -55zM884.001 909.998h-270v90h270v-90z" />
    <glyph glyph-name="u0926094DHalf" horiz-adv-x="826" 
d="M896 910l-209.998 0.000976562v-260h-390c-39.333 0 -72.5 -13.5 -99.5 -40.5s-40.5 -60.167 -40.5 -99.5c0 -78.667 39.667 -141.667 119 -189s169.666 -71 270.999 -71c0 44 10 83.333 30 118s46.667 52 80 52c22.667 0 41.667 -7.66699 57 -23s23 -34.333 23 -57
c0 -56.667 -30 -106.667 -90 -150l110 -190l-90 -40l-110 200c-130 0 -245.833 32.167 -347.5 96.5s-152.5 148.833 -152.5 253.5c0 67.333 23.167 124.166 69.5 170.499s103.166 69.5 170.499 69.5h290v160h-592v90h902v-90zM720.002 -220.999l-60 -60l-300 240l-70 -40
l-40 80l110 50z" />
    <glyph glyph-name="u0927094DHalf" horiz-adv-x="736" 
d="M416 160c-72.667 0 -135.834 20.498 -189.501 61.498s-80.5 93.833 -80.5 158.5c0 79.333 30 136 90 170c-60 28 -105 64.5 -135 109.5s-45 98.5 -45 160.5c0 55.333 19.5 102.5 58.5 141.5s86.167 58.5 141.5 58.5c50.667 0 95 -15.167 133 -45.5s57 -68.5 57 -114.5
c0 -43.333 -18 -79.166 -54 -107.499s-78 -42.5 -126 -42.5v90c53.333 0 80 20 80 60s-30 60 -90 60c-28.667 0 -52.5 -9.5 -71.5 -28.5s-28.5 -42.833 -28.5 -71.5c0 -49.333 14.833 -94.166 44.5 -134.499s68.167 -68.833 115.5 -85.5c54.667 20 94.667 30 120 30h100
l50 -80h-120c-60 0 -113.333 -15.833 -160 -47.5s-70 -72.5 -70 -122.5c0 -38.667 18.333 -70 55 -94s78.334 -36 125.001 -36c52.667 0 109 20 169 60s123.667 100 191 180v-130c-66.667 -66.667 -130 -116.667 -190 -150s-116.667 -50 -170 -50zM806 909.998h-280v90h280
v-90z" />
    <glyph glyph-name="u0928094DHalf" horiz-adv-x="592" 
d="M632 560h-310c-40 0 -60 -13.333 -60 -40v-110c0 -40 -13.333 -60 -40 -60c-30 0 -69.167 33.333 -117.5 100s-72.5 116.667 -72.5 150s23.333 50 70 50h530v-90zM662 910h-668v90h668v-90z" />
    <glyph glyph-name="u0929094DHalf" horiz-adv-x="592" 
d="M632 560h-310c-40 0 -60 -13.333 -60 -40v-110c0 -40 -13.333 -60 -40 -60c-30 0 -69.167 33.333 -117.5 100s-72.5 116.667 -72.5 150s23.333 50 70 50h530v-90zM662 910h-668v90h668v-90zM457 74c0 -43.333 -21.667 -65 -65 -65s-65 21.667 -65 65s21.667 65 65 65
s65 -21.667 65 -65z" />
    <glyph glyph-name="u092A094DHalf" horiz-adv-x="530" 
d="M600 910h-420.001v-320c0 -52 17.333 -96.667 52 -134s77.334 -56 128.001 -56c91.333 0 161.333 53.333 210 160v-140c-50.667 -73.333 -120.667 -110 -210 -110c-80 0 -146.667 28.333 -200 85s-80 125 -80 205v310h-86v90h606v-90z" />
    <glyph glyph-name="u092B094DHalf" horiz-adv-x="884" 
d="M524 530v380h-340v-350c0 -44.667 15.5 -82.5 46.5 -113.5s68.833 -46.5 113.5 -46.5c61.333 0 121.333 43.333 180 130zM524 400c-51.333 -60 -111.335 -90 -180.002 -90c-72 0 -133.333 24 -184 72s-76 107.333 -76 178v350h-90v90h960v-90h-330v-290
c62 73.333 125.333 110 190 110c36.667 0 73.334 -10 110.001 -30v-100c-37.333 26.667 -74 40 -110 40c-55.333 0 -118.666 -50 -189.999 -150v-490h-100v400z" />
    <glyph glyph-name="u092C094DHalf" horiz-adv-x="550" 
d="M340 290c60 0 110.001 19.998 150.001 59.998l-300 220c-20 -25.333 -30 -58.666 -30 -99.999c0 -49.333 17.667 -91.666 53 -126.999s77.666 -53 126.999 -53zM340.001 189.998c-78.667 0 -144.999 27 -198.999 81s-81 120.333 -81 199c0 84 29 155 87 213
s129 87 213 87c37.333 0 70.666 -6.66699 99.999 -20v-100c-18.667 13.333 -52 20 -100 20s-88 -13.333 -120 -40l310 -230l40 50v-130c-29.333 -43.333 -64.833 -75.833 -106.5 -97.5s-89.5 -32.5 -143.5 -32.5zM620.002 909.998h-626v90h626v-90zM808.002 49.998z" />
    <glyph glyph-name="u092D094DHalf" horiz-adv-x="700" 
d="M740 440l-330.001 0.000976562v-90c0 -26.667 -16.667 -40 -50 -40c-21.333 0 -58.333 21.667 -111 65s-79 75 -79 95c0 16 6 30 18 42s26 18 42 18h80v290c0 28 -8.5 51.667 -25.5 71s-38.5 29 -64.5 29c-24 0 -45 -6.5 -63 -19.5s-27 -29.833 -27 -50.5
c0 -22.667 7.66699 -41.667 23 -57s34.333 -23 57 -23v-100c-49.333 0 -91.666 17.667 -126.999 53s-53 77.666 -53 126.999c0 48 18.833 88.333 56.5 121s82.167 49 133.5 49c53.333 0 98.333 -19.667 135 -59s55 -86.333 55 -141v-290h330v-90zM769.999 910.001h-290v90
h290v-90z" />
    <glyph glyph-name="u092E094DHalf" horiz-adv-x="600" 
d="M670 910h-410v-350h380v-90h-380v-90c0 -26.667 -13.333 -40 -40 -40c-22 0 -59.167 23.167 -111.5 69.5s-78.5 79.833 -78.5 100.5c0 33.333 16.667 50 50 50h80v350h-166v90h676v-90z" />
    <glyph glyph-name="u092F094DHalf" horiz-adv-x="620" 
d="M390 200c-82 0 -155.832 34.332 -221.499 102.999s-111.834 154.334 -138.501 257.001c64.667 0 122.5 15.5 173.5 46.5s76.5 72.167 76.5 123.5c0 53.333 -33.333 113.333 -100 180h-186v90h696v-90h-390c53.333 -53.333 80 -113.333 80 -180
c0 -63.333 -20.833 -117.833 -62.5 -163.5s-94.167 -71.167 -157.5 -76.5c21.333 -56.667 52.5 -102.5 93.5 -137.5s86.5 -52.5 136.5 -52.5c108 0 198 63.333 270 190v-140c-83.333 -100 -173.333 -150 -270 -150zM646.001 49.999z" />
    </font>
</defs>
</svg>
